<svg xmlns="http://www.w3.org/2000/svg" viewBox="0 0 438 345"><defs><style>.cls-1{fill:#ffd7b6;}.cls-2{fill:#fff;}.cls-3{fill:#80adff;}.cls-4{fill:#165dc4;}.cls-5{fill:#4380c9;}.cls-6{fill:#6ea0d3;}.cls-7{fill:#2d3892;}.cls-8{fill:#233182;}.cls-9{fill:#64c4c2;}.cls-10{fill:#e28c35;}.cls-11{fill:#f29949;}.cls-12{fill:#cadcf8;}.cls-13{fill:#5691e6;}.cls-14{fill:#fffeff;}.cls-15{fill:#0484cf;}.cls-16{fill:#0d3954;}.cls-17{fill:#357bc3;}.cls-18{fill:#49c5cc;}.cls-19{fill:#252e55;}.cls-20{fill:#f6feff;}</style></defs><title>资源 1</title><g id="图层_2" data-name="图层 2"><g id="图层_1-2" data-name="图层 1"><rect class="cls-1" width="438" height="345"/><path class="cls-2" d="M314.72,111.54q59.32.19,118.65,0a1.15,1.15,0,0,0,0-2.3q-59.33.23-118.65,0a1.15,1.15,0,0,0,0,2.3Z"/><path class="cls-2" d="M289.57,111.52h15a1.15,1.15,0,0,0,0-2.3h-15a1.15,1.15,0,0,0,0,2.3Z"/><path class="cls-2" d="M320.05,110.79c-.22.51.36-.68.47-.87a13,13,0,0,1,2-2.54,9.85,9.85,0,0,1,9.78-2.48,1.18,1.18,0,0,0,1.3-.53,28.26,28.26,0,0,1,12.52-10.71,20.2,20.2,0,0,1,13.21-.91,6.15,6.15,0,0,1,2.57,1.51c.2.2.65,1.06.5.66.5,1.38,2.72.78,2.22-.61-2.16-5.92-12.3-4.8-16.77-3.66-6.57,1.69-12.65,6.88-16.23,12.56l1.29-.53a12.7,12.7,0,0,0-15,7.5c-.57,1.37,1.65,2,2.22.61Z"/><path class="cls-2" d="M360.7,99.86c6.17-9,16.09-16.62,26.74-19.1,6-1.4,11.55.87,14.32,6.45,1.52,3,2.74,8.45.56,11.49-.8,1.12.88,2.19,1.8,1.39a19,19,0,0,1,5.46-3.19c2.39-.93,8.37-1.59,8.54,2.26.1,2.52-2.12,5.18-3.61,7a36.35,36.35,0,0,1-3.17,3.4c-1.09,1,.54,2.63,1.62,1.62,3.26-3,8.76-8.68,7.19-13.6-1.22-3.77-6.45-4.07-9.62-3.38a19.3,19.3,0,0,0-8,4.27l1.8,1.39c2.5-3.48,1.38-9.21-.12-12.83a14,14,0,0,0-13.67-9c-8.31.2-16.4,5.33-22.52,10.56a53.44,53.44,0,0,0-9.27,10.08c-.84,1.22,1.15,2.37,2,1.16Z"/><path class="cls-3" d="M121.59,220.64c11.87-.66,21-14,20.46-24.42-.6-10.8-8.64-19-12.08-28.93-7.34-21.61,8.11-42.32-.65-63.49-10-24-36.49-26.48-52.92-42.9-3.82-3.75-5.54-8.71-8.64-12.51-5.42-6.55-9.12-1.66-9.82,5.24-.82,11.24,7.78,23,13.34,32.11,6,10.13,11.6,20.28,13,32.12,1,10.77-4.39,18.3-5.27,28.45a143.69,143.69,0,0,0-.12,17.33c.32,5.76,3.42,9.56,6.22,14.46,5.94,9.41,9.28,15.9,15.22,25.32,2.4,4.2,3.06,12.73,5.82,16.91,2.72,3.46,12.12,5.18,15.46.31"/><path class="cls-2" d="M94.76,105.36a89.08,89.08,0,0,1,11.06,18.69c6.74,15,10,31.36,7.54,47.77-1.18,8-2.87,15.82-2.18,23.93s3.62,15,7.12,22.25c3.59,7.41,7.32,15,8.46,23.24a86.88,86.88,0,0,1-.38,25.15A141.77,141.77,0,0,1,123,281.92l1.38.07a127.5,127.5,0,0,0,3.17-14.35,91,91,0,0,0,1-22.6,65.18,65.18,0,0,0-6.08-21.38c-3.47-7.51-8-14.9-9.34-23.16-1.44-8.57-.38-17,1.07-25.45a85,85,0,0,0-4.47-45.12,100.94,100.94,0,0,0-10.3-20.47A103.12,103.12,0,0,0,85.9,93.72C75.85,84,64.23,72.13,63.16,57.31a.68.68,0,0,0-1.36.07c.91,12.42,9.56,24,18.12,32.49C85,94.92,90.32,99.7,94.76,105.36Z"/><path class="cls-3" d="M134.58,276.79c5.48,5.68,16.15,4.51,21.14-.31,5.17-5,5.81-12.58,9.3-18.61,7.67-13.05,24.78-14.27,31.62-27.85,7.71-15.42-2.52-29.81-1.4-45.19.23-3.55,2-6.56,2.54-9.76.95-5.57-3.12-5.3-6.88-2.66-6,4.46-8.2,13.89-10.35,20.62-2.5,7.4-5.17,14.62-10.51,20.45-5,5.15-11.1,5.72-16.58,9.68a96,96,0,0,0-8.76,7.46c-2.75,2.65-3.32,5.86-4.57,9.39-2.15,7.06-4,11.56-6.12,18.62-1.07,3-5.07,7.06-6,10.26-.56,2.86,2.66,8.34,6.55,7.9"/><path class="cls-2" d="M131.51,282.41c.69-1.25,1.34-2.53,1.94-3.86,2.27-5,4-10.46,7.59-14.73,3.68-4.44,8.35-7.55,13.25-10.5A56.51,56.51,0,0,0,175,231.51a67.39,67.39,0,0,0,5.82-14,68.94,68.94,0,0,0,2-13.63c.55-9.28,1.45-20.24,8.43-27.21.41-.41-.22-1.05-.63-.64-5.84,5.83-7.92,15.21-8.46,23.18-.33,4.75-.43,9.49-1.35,14.17A59.86,59.86,0,0,1,176.28,227c-4.63,9.9-11.44,18.61-20.74,24.5-4.51,2.87-9.19,5.42-13,9.28s-6,8.34-8.09,13.22c-1.21,2.81-2.45,5.66-3.93,8.36Z"/><path class="cls-4" d="M98.34,267.9c7.72-.43,13.67-9.09,13.29-15.87-.38-7-5.61-12.36-7.85-18.8-4.77-14,5.27-27.5-.42-41.26-6.5-15.59-23.71-17.21-34.39-27.88-2.49-2.44-3.6-5.66-5.62-8.13-3.52-4.26-5.92-1.08-6.38,3.41-.53,7.3,5.06,15,8.67,20.86,3.89,6.59,7.54,13.19,8.44,20.88.62,7-2.86,11.88-3.43,18.49a94.37,94.37,0,0,0-.08,11.26c.21,3.74,2.21,8.76,4,11.94,3.86,6.12,6.05,7.79,9.91,13.91,1.56,2.73,2,8.28,3.78,11,1.77,2.25,7.88,3.37,10,.2"/><path class="cls-2" d="M80.9,193a57.8,57.8,0,0,1,7.19,12.14c4.38,9.77,6.48,20.38,4.9,31.05-.76,5.17-1.86,10.28-1.41,15.55s2.35,9.76,4.62,14.45,4.75,9.73,5.49,15.08l.84,0a44.11,44.11,0,0,0-3.61-11.42c-2.26-4.88-5.17-9.68-6.07-15.05-.94-5.57-.25-11,.69-16.53A55.26,55.26,0,0,0,90.64,209a66.07,66.07,0,0,0-6.7-13.3,67,67,0,0,0-8.8-10.24c-6.52-6.34-14.08-14-14.78-23.65a.44.44,0,0,0-.88.05c.59,8.07,6.21,15.6,11.78,21.11C74.57,186.2,78,189.3,80.9,193Z"/><path class="cls-3" d="M279.93,271.66c-5.93-7.61-2.67-20.31,4-25.52,6.92-5.38,16.23-4.85,24.12-8,17.11-7,21.54-27.51,39.14-33.44,20-6.68,35.63,8.18,54.42,9.48,4.33.33,8.28-1.26,12.25-1.39,6.89-.18,5.87,4.68,2,8.79-6.43,6.49-18.22,7.52-26.73,9-9.38,1.75-18.58,3.72-26.54,9.19-7.1,5.15-8.84,12.43-14.58,18.38a118.07,118.07,0,0,1-10.53,9.31c-3.69,2.87-7.66,3-12.15,3.9-8.92,1.39-14.66,2.81-23.58,4.19-3.84.77-9.41,4.92-13.43,5.46-3.57.18-9.63-4.64-8.43-9.28"/><path class="cls-2" d="M364.67,226.62a72.39,72.39,0,0,0-17.32,3.2c-12.77,3.89-24.48,10.61-33.21,20.85-4.24,5-8.14,10.18-13.46,14.08s-11.11,5.8-17.39,7.51c-6.44,1.76-13.06,3.52-18.71,7.22a70.23,70.23,0,0,0-15.16,13.63,113.64,113.64,0,0,0-7.69,10.35l-.78-.81a102,102,0,0,1,7.08-9.58,73.11,73.11,0,0,1,13.28-12.67,52.82,52.82,0,0,1,16.29-7.68c6.44-1.88,13.35-3.08,19.14-6.64,6-3.68,10.56-8.8,15-14.21a69,69,0,0,1,30-21.31,81.1,81.1,0,0,1,18-4.61,83.13,83.13,0,0,1,16.84-.12c11.31.93,24.73,1.74,34.36-5.51.57-.42,1.24.44.68.87-8.07,6.07-19.77,7-29.51,6.24C376.24,227,370.5,226.31,364.67,226.62Z"/><path class="cls-4" d="M238.69,293.64c-6.39-.32-11.36-7.46-11.08-13.08.29-5.81,4.6-10.25,6.42-15.6,3.89-11.64-4.48-22.75.17-34.16,5.31-12.94,19.56-14.36,28.35-23.23,2.05-2,3-4.71,4.62-6.76,2.9-3.54,4.9-.92,5.29,2.79.48,6.05-4.12,12.42-7.08,17.32-3.19,5.47-6.19,10.94-6.9,17.32-.48,5.8,2.42,9.83,2.92,15.29a76.92,76.92,0,0,1,.11,9.33c-.15,3.09-1.81,5.15-3.3,7.79-3.17,5.08-4.95,8.58-8.12,13.67-1.28,2.26-1.61,6.86-3.08,9.11-1.46,1.87-6.51,2.83-8.32.21"/><path class="cls-2" d="M236.89,298.52c.4-1.09.84-2.17,1.33-3.25,1.84-4,4.23-8,5-12.49.75-4.61.15-9.12-.65-13.68a45.73,45.73,0,0,1,2.28-24.29,54.69,54.69,0,0,1,5.48-11.05,56.56,56.56,0,0,1,7.24-8.51c5.38-5.28,11.6-11.67,12.14-19.65a.37.37,0,0,1,.73,0c-.45,6.69-5.08,13-9.66,17.54a91,91,0,0,0-7.94,8.37,47.85,47.85,0,0,0-5.9,10.09c-3.58,8.1-5.28,16.9-3.92,25.73.65,4.28,1.59,8.5,1.24,12.86s-1.91,8.1-3.77,12c-1.07,2.24-2.15,4.52-3,6.86C237.26,298.88,237.08,298.7,236.89,298.52Z"/><path class="cls-4" d="M263.44,311.05c-3.85-4.94-1.74-13.2,2.61-16.58s10.54-3.15,15.67-5.22c11.13-4.57,14-17.88,25.44-21.73,13-4.34,23.15,5.31,35.36,6.16,2.82.21,5.38-.82,8-.9,4.47-.12,3.81,3,1.31,5.71-4.17,4.21-11.84,4.88-17.37,5.82-6.09,1.14-12.07,2.42-17.25,6-4.61,3.35-5.74,8.08-9.47,12a75.66,75.66,0,0,1-6.84,6,25.47,25.47,0,0,1-9.45,3.9c-5.79.9-8,.46-13.77,1.36-2.5.5-6.12,3.2-8.73,3.55-2.32.12-6.26-3-5.48-6"/><path class="cls-2" d="M318.51,281.78a48,48,0,0,0-11.26,2.08c-8.3,2.53-15.9,6.9-21.58,13.56-2.75,3.22-5.29,6.61-8.75,9.14s-7.22,3.77-11.29,4.88-8.48,2.29-12.14,4.68c-.16-.16-.31-.33-.46-.5a35.55,35.55,0,0,1,8.9-3.88c4.18-1.22,8.67-2,12.43-4.31s6.87-5.72,9.73-9.24a45,45,0,0,1,19.47-13.85,53.2,53.2,0,0,1,11.7-3,54.15,54.15,0,0,1,10.95-.08c7.35.61,16.07,1.13,22.33-3.58.36-.27.8.29.44.56-5.25,3.95-12.85,4.53-19.18,4.06A90.61,90.61,0,0,0,318.51,281.78Z"/><g id="right"><polygon class="cls-5" points="247.82 327.91 263.88 309.94 209.17 309.94 232.76 322.78 247.82 327.91"/><polygon class="cls-2" points="245.81 288.88 260.87 278.6 260.87 311.48 246.31 325.73 238.78 305.31 245.81 288.88"/><rect class="cls-6" x="112.3" y="288.88" width="135.51" height="39.04"/><rect class="cls-7" x="237.28" y="288.88" width="3.51" height="39.04"/><rect class="cls-7" x="226.07" y="288.88" width="3.52" height="39.04"/><rect class="cls-7" x="130.23" y="288.88" width="3.51" height="39.04"/><rect class="cls-7" x="120.9" y="288.88" width="3.51" height="39.04"/><polygon class="cls-5" points="247.82 288.88 263.94 278.1 235.07 278.1 211.13 289.05 247.82 288.88"/><polygon class="cls-8" points="229.61 287.76 242.16 277.73 212.05 279.23 212.05 281.74 229.61 287.76"/><polyline class="cls-2" points="239.15 249.58 239.15 278.23 226.1 287.76 224.59 258.11 226.6 251.09 239.15 249.58"/><path class="cls-8" d="M229.61,258.11l10.54-9.53h-137l-13.55,9.53,18.57,25.14s35.14,1.5,38.15,1.5S229.61,258.11,229.61,258.11Z"/><rect class="cls-7" x="89.58" y="258.11" width="140.03" height="31.16"/><rect class="cls-9" x="218.57" y="258.11" width="6.02" height="31.16"/><rect class="cls-9" x="190.05" y="258.11" width="20.16" height="31.16"/><rect class="cls-9" x="179.62" y="258.11" width="6.25" height="31.16"/></g><g id="right-2" data-name="right"><polygon class="cls-10" points="246.44 255.05 262.5 244.87 207.79 244.87 231.38 252.14 246.44 255.05"/><polygon class="cls-2" points="244.43 232.95 259.49 227.13 259.49 245.74 244.93 253.81 237.4 242.25 244.43 232.95"/><rect class="cls-11" x="110.92" y="232.95" width="135.51" height="22.1"/><rect class="cls-2" x="235.9" y="232.95" width="3.51" height="22.1"/><rect class="cls-2" x="224.69" y="232.95" width="3.52" height="22.1"/><rect class="cls-2" x="128.85" y="232.95" width="3.51" height="22.1"/><rect class="cls-2" x="119.52" y="232.95" width="3.51" height="22.1"/><polygon class="cls-10" points="246.44 232.95 262.56 226.85 137.49 226.85 110.92 233.05 246.44 232.95"/></g><path class="cls-4" d="M221.51,101.17a12.87,12.87,0,0,0-5.08-8.06C208,86.9,198.23,90.24,194.18,99s-2,15.39-10.32,19S164.32,129.31,159.57,145s7.38,18.93,1.51,32.49-21.66,24.09,1.22,33.61,55.27-1.82,69.24-2,43.15-2.77,43.32-21.87c.23-24.81-23.38-17-32.09-27.23s3.95-14.88-10.63-26.82c-8.25-6.76-17.2-9.11-14-17.41S223.08,103.4,221.51,101.17Z"/><path class="cls-12" d="M255.68,175.62c-4.66-1-5.35,1.06-5.35,1.06s-24.21.86-30.48-10.37c-3-5.41-2.93-12.48-2-18.36a24.57,24.57,0,0,1-6.15.79,22.2,22.2,0,0,1-8.79-1.83c-2.31,10.14-2.71,22.12,5,29.42,15.39,14.58,41.3,4.25,41.3,4.25s6.78-3.14,8.5-1.11c0,0,.66,1.11,1.52.71S260.34,176.63,255.68,175.62Z"/><path class="cls-13" d="M279,207c-1.45,2.06-3,4.29-4.55,6.76C259,237.77,253,272.62,253,272.62l9,5s16.34-24.11,28.77-46.13C286.86,223.35,282.79,215.25,279,207Z"/><path class="cls-3" d="M187.21,194.53s-9.56,9-5.92,25.36,47.68,17.46,68.93,9.26,25.51-10.63,25.51-10.63-13.27,21.87,9.5,75.62h10.39s6.79-85.87-7.89-95.07S187.21,194.53,187.21,194.53Z"/><path class="cls-12" d="M220.6,102s-1.06,21.71-9.26,20.5-9.11-4.41-9.11-4.41-3.95-15.79,4.86-19.58A10.69,10.69,0,0,1,220.6,102Z"/><path class="cls-14" d="M203.09,128.4a31.21,31.21,0,0,0-21.46,14.88s8.81,2,11.34,8.1c0,0-9,27.13-4.76,41.09,0,0,19.44,7.29,31.58,2,0,0-.81-20.85,2.23-26.93s8.15-12.6,4-20-9.59-15.18-13.87-17.31A20.27,20.27,0,0,0,203.09,128.4Z"/><path class="cls-12" d="M212.2,120.4s-.91,6.78,0,9.82c0,0-5.16,1.92-9.11-1.82,0,0,1.32-8.71-.5-13.46S212.2,120.4,212.2,120.4Z"/><path class="cls-4" d="M221.51,101.17a29.61,29.61,0,0,1-7.18,5.87c-4,2.13-7.8,1.82-8.4,4.25,0,0-.92-5.35-2.74-3.64s.91,5.36.91,5.36,3.71,5.47-2.75,7.49-10.81-2.73-10-9.51,9.72-14.88,14.07-16S216.76,86.9,221.51,101.17Z"/><path class="cls-3" d="M287,291.3h10.44v7.34s15.75,16.29,13.83,17.57-18-7.88-18.41-8.2,1-4.56-1-4.2a3.53,3.53,0,0,0-2.56,1.86l-5.43-3.52S288.4,298.53,287,291.3Z"/><path class="cls-13" d="M253.14,271.7l10.14,2.44-1.71,7.14s11.51,19.51,9.35,20.31-15.65-11.86-16-12.27,2-4.22,0-4.31a3.53,3.53,0,0,0-2.92,1.21l-4.46-4.68S252.79,279.06,253.14,271.7Z"/><polygon class="cls-2" points="224.86 195.92 212.58 194.47 221.92 190.79 284.97 191.93 282.35 195.92 224.86 195.92"/><path class="cls-12" d="M181.63,143.28s-16.9,33.2-1.52,47.78,41.3,4.25,41.3,4.25,6.79-3.14,8.51-1.12c0,0,.66,1.12,1.52.71s1.11-3.54-3.55-4.55-5.35,1.06-5.35,1.06-24.21.86-30.48-10.37.91-29.66.91-29.66S191.45,144,181.63,143.28Z"/><path class="cls-2" d="M244.39,167a3.5,3.5,0,0,0-2.64,1.45l-16.38,26c-.51.8-.14,1.46.8,1.46h54.46a3.58,3.58,0,0,0,2.67-1.44l17.14-26.07c.52-.8.17-1.44-.78-1.44Z"/><polygon class="cls-15" points="114.54 134.27 112.58 134.27 112.58 109.38 114.54 108.95 114.54 134.27"/><polygon class="cls-15" points="114.78 136.45 115.09 136.45 115.09 135.79 115.2 135.75 118.04 142.73 116.73 143.26 115.53 140.32 114.78 136.45"/><polygon class="cls-15" points="112.34 136.45 111.51 140.75 110.49 143.26 109.17 142.73 112.01 135.75 112.03 135.75 112.03 136.45 112.34 136.45"/><polygon class="cls-15" points="112.34 136.45 112.85 136.45 112.85 141.28 112.4 143.65 111.7 143.51 111 143.38 111.51 140.75 112.34 136.45"/><polygon class="cls-15" points="114.27 136.45 114.78 136.45 115.53 140.32 116.12 143.38 115.43 143.51 114.73 143.65 114.27 141.29 114.27 136.45"/><polygon class="cls-15" points="112.85 136.45 114.27 136.45 114.27 141.29 114.27 143.68 112.85 143.68 112.85 141.28 112.85 136.45"/><polygon class="cls-15" points="115.09 134.27 115.09 135.79 115.09 136.45 114.78 136.45 114.27 136.45 112.85 136.45 112.34 136.45 112.03 136.45 112.03 135.75 112.03 134.27 112.58 134.27 114.54 134.27 115.09 134.27"/><polygon class="cls-15" points="86.29 105.41 86.29 98.65 123.39 108.68 114.54 110.64 112.58 111.07 105.71 112.58 105.71 109.12 86.29 105.41"/><polygon class="cls-15" points="66.88 109.12 66.88 112.58 49.21 108.68 86.29 98.65 86.29 105.41 66.88 109.12"/><polygon class="cls-16" points="66.88 108.38 86.29 104.67 105.71 108.38 105.71 111.84 105.71 124.74 66.88 124.74 66.88 111.84 66.88 108.38"/><path class="cls-17" d="M270.9,121.49a13.59,13.59,0,0,1-2.06,6.8,13.56,13.56,0,0,1-2-6.81,13.7,13.7,0,0,1,2.05-6.81A13.64,13.64,0,0,1,270.9,121.49Z"/><path class="cls-18" d="M277.05,127.45a16.63,16.63,0,0,1-8.67-.53,15.11,15.11,0,0,1,16.2-3.8A16.59,16.59,0,0,1,277.05,127.45Z"/><path class="cls-19" d="M269.15,127.82c.42-.66,6.55-7.94,6.55-7.94l-2.2-1.33-5.29,8.68Z"/><path class="cls-20" d="M273.53,128.52a9,9,0,0,0-4.35-1.39,9.06,9.06,0,0,0-3.08-3.37c-5-3.22-12.32-.77-16.31,5.45s-3.16,13.89,1.85,17.1A9,9,0,0,0,256,147.7a9.06,9.06,0,0,0,3.08,3.37c5,3.22,12.32.77,16.31-5.45S278.54,131.73,273.53,128.52Z"/><path class="cls-4" d="M133.9,61.09H138l4.7,15.09h-3.62l-1.95-7.64c-.38-1.5-.84-3.27-1.2-4.86h-.09c-.37,1.59-.79,3.36-1.18,4.86l-2,7.64H129.2Zm-1.59,8.84h7.22v2.66h-7.22Z"/><path class="cls-4" d="M144.62,61.09H150c3.27,0,5.9,1.19,5.9,4.85s-2.7,5.12-5.9,5.12H148v5.12h-3.42Zm5.16,7.26c1.87,0,2.76-.84,2.76-2.41s-1-2.14-2.76-2.14H148v4.55Z"/><path class="cls-4" d="M158.51,73.32H162V64h-3.52V61.09H169V64h-3.52v9.36H169v2.86H158.51Z"/><path class="cls-4" d="M186.22,61.09h4.17c4.37,0,7.25,2.29,7.25,7.48s-2.88,7.61-7.06,7.61h-4.36Zm4,12.34c2.35,0,3.94-1.25,3.94-4.86s-1.59-4.73-3.94-4.73h-.57v9.59Z"/><path class="cls-4" d="M199.58,70.44a5.86,5.86,0,1,1,5.85,6A5.75,5.75,0,0,1,199.58,70.44Zm8.22,0c0-2-.8-3.27-2.37-3.27s-2.37,1.28-2.37,3.27.8,3.27,2.37,3.27S207.8,72.43,207.8,70.44Z"/><path class="cls-4" d="M213.94,70.44c0-3.82,3.1-6,6.64-6a6.22,6.22,0,0,1,4.3,1.56l-1.57,2.11a4.19,4.19,0,0,0-2.55-.92,3.13,3.13,0,0,0-3.34,3.27,3.09,3.09,0,0,0,3.23,3.27,5.26,5.26,0,0,0,3-1.1l1.38,2.15a7.45,7.45,0,0,1-4.72,1.7C216.71,76.46,213.94,74.25,213.94,70.44Z"/><path class="cls-4" d="M227.71,71.79v-7.1h3.41v6.66c0,1.52.41,2.2,1.68,2.2a2.6,2.6,0,0,0,2.22-1.3V64.69h3.41V76.18h-2.78l-.25-1.65h-.09a4.94,4.94,0,0,1-3.87,1.93C228.82,76.46,227.71,74.68,227.71,71.79Z"/><path class="cls-4" d="M241,64.69h2.56l.25,1.42h.08a2.59,2.59,0,0,1,2.48-1.69,2,2,0,0,1,2,1.87,2.69,2.69,0,0,1,2.54-1.87c1.64,0,2.57,1.41,2.57,3.7v8.06h-3.24V68.36c0-.71-.17-1-.62-1s-.73.36-1.05,1.12v7.75H245.9V68.36c0-.71-.21-1-.66-1s-.71.36-1,1.12v7.75H241Z"/><path class="cls-4" d="M255.35,70.43a5.86,5.86,0,0,1,6-6c3.54,0,5.4,2.39,5.4,5.51a9.35,9.35,0,0,1-.14,1.52h-8.71V69.17h6.41l-.54.65c0-1.84-.8-2.81-2.31-2.81-1.68,0-2.79,1.14-2.79,3.42s1.3,3.43,3.53,3.43a6.27,6.27,0,0,0,3-.8l1.13,2a8.79,8.79,0,0,1-4.55,1.35C258.14,76.46,255.35,74.25,255.35,70.43Z"/><path class="cls-4" d="M269.64,64.69h2.78l.25,1.54h.09a5.56,5.56,0,0,1,4-1.81c2.59,0,3.74,1.77,3.74,4.67v7.09h-3.41V69.53c0-1.53-.44-2.21-1.68-2.21a3.22,3.22,0,0,0-2.33,1.19v7.67h-3.41Z"/><path class="cls-4" d="M285.91,71.42V67.36H283V64.83l3.05-.14.44-3.51h2.81v3.51h4.85v2.67h-4.85v4c0,1.74.74,2.4,2.42,2.4a6.65,6.65,0,0,0,2.27-.41l.61,2.47a12.67,12.67,0,0,1-3.75.62C287.21,76.46,285.91,74.43,285.91,71.42Z"/></g></g></svg>