<svg xmlns="http://www.w3.org/2000/svg" xmlns:xlink="http://www.w3.org/1999/xlink" viewBox="0 0 838.05 249.66"><defs><style>.cls-1{fill:#4a4a4a;}.cls-2{fill:url(#未命名的渐变_81);}.cls-3{fill:url(#未命名的渐变_69);}.cls-4{fill:url(#未命名的渐变_69-2);}.cls-5{fill:url(#未命名的渐变_69-3);}.cls-6{fill:url(#未命名的渐变_69-4);}.cls-7{fill:url(#未命名的渐变_69-5);}.cls-8{fill:url(#未命名的渐变_69-6);}.cls-9{fill:url(#未命名的渐变_69-7);}.cls-10{fill:url(#未命名的渐变_69-8);}.cls-11{fill:url(#未命名的渐变_69-9);}.cls-12{fill:url(#未命名的渐变_69-10);}.cls-13{fill:url(#未命名的渐变_69-11);}.cls-14{fill:url(#未命名的渐变_69-12);}.cls-15{fill:url(#未命名的渐变_69-14);}.cls-16{fill:url(#未命名的渐变_69-19);}.cls-17{fill:url(#未命名的渐变_69-20);}.cls-18{fill:url(#新建渐变色板_1);}.cls-19{fill:url(#未命名的渐变_69-81);}.cls-20{fill:url(#未命名的渐变_81-2);}.cls-21{fill:url(#未命名的渐变_81-3);}.cls-22{fill:url(#新建渐变色板_1-2);}</style><linearGradient id="未命名的渐变_81" x1="707.49" y1="432.49" x2="753.47" y2="524.21" gradientTransform="translate(-500 -300)" gradientUnits="userSpaceOnUse"><stop offset="0" stop-color="#21d4fd"/><stop offset="0.52" stop-color="#08aeea"/><stop offset="0.99" stop-color="#2af598"/></linearGradient><radialGradient id="未命名的渐变_69" cx="131.67" cy="207.77" r="0.41" gradientUnits="userSpaceOnUse"><stop offset="0" stop-color="#21d4fd"/><stop offset="0.35" stop-color="#b721ff"/><stop offset="0.41" stop-color="#a133fc"/><stop offset="0.52" stop-color="#6762f5"/><stop offset="0.69" stop-color="#0bacea"/><stop offset="0.69" stop-color="#08aeea"/><stop offset="0.99" stop-color="#2af598"/></radialGradient><radialGradient id="未命名的渐变_69-2" cx="137.55" cy="207.08" r="0.29" xlink:href="#未命名的渐变_69"/><radialGradient id="未命名的渐变_69-3" cx="163.1" cy="198.74" r="0.41" xlink:href="#未命名的渐变_69"/><radialGradient id="未命名的渐变_69-4" cx="190.21" cy="176.31" r="0.29" xlink:href="#未命名的渐变_69"/><radialGradient id="未命名的渐变_69-5" cx="190.62" cy="175.8" r="0.17" xlink:href="#未命名的渐变_69"/><radialGradient id="未命名的渐变_69-6" cx="196.82" cy="166.6" r="0.44" xlink:href="#未命名的渐变_69"/><radialGradient id="未命名的渐变_69-7" cx="197.71" cy="165.03" r="0.48" xlink:href="#未命名的渐变_69"/><radialGradient id="未命名的渐变_69-8" cx="198.81" cy="162.98" r="0.33" xlink:href="#未命名的渐变_69"/><radialGradient id="未命名的渐变_69-9" cx="205.68" cy="144.54" r="1.21" xlink:href="#未命名的渐变_69"/><radialGradient id="未命名的渐变_69-10" cx="207.08" cy="137.57" r="0.31" xlink:href="#未命名的渐变_69"/><radialGradient id="未命名的渐变_69-11" cx="137.51" cy="207.09" r="0.32" xlink:href="#未命名的渐变_69"/><radialGradient id="未命名的渐变_69-12" cx="160.27" cy="200.14" r="0.63" xlink:href="#未命名的渐变_69"/><radialGradient id="未命名的渐变_69-14" cx="190.33" cy="176.16" r="0.5" xlink:href="#未命名的渐变_69"/><radialGradient id="未命名的渐变_69-19" cx="206.47" cy="141.07" r="0.07" xlink:href="#未命名的渐变_69"/><radialGradient id="未命名的渐变_69-20" cx="207.16" cy="136.98" r="0.73" xlink:href="#未命名的渐变_69"/><linearGradient id="新建渐变色板_1" y1="114.45" x2="207.81" y2="114.45" gradientUnits="userSpaceOnUse"><stop offset="0" stop-color="#21d4fd"/><stop offset="1" stop-color="#b721ff"/></linearGradient><radialGradient id="未命名的渐变_69-81" cx="207.85" cy="130.7" r="0.32" xlink:href="#未命名的渐变_69"/><linearGradient id="未命名的渐变_81-2" x1="194.6" y1="108.87" x2="19" y2="229.54" gradientTransform="matrix(1, 0, 0, 1, 0, 0)" xlink:href="#未命名的渐变_81"/><linearGradient id="未命名的渐变_81-3" x1="96.33" y1="56.68" x2="229.48" y2="218.13" gradientTransform="matrix(1, 0, 0, 1, 0, 0)" xlink:href="#未命名的渐变_81"/><linearGradient id="新建渐变色板_1-2" x1="73.9" y1="-10.39" x2="154.21" y2="149.81" xlink:href="#新建渐变色板_1"/></defs><title>资源 2</title><g id="图层_2" data-name="图层 2"><g id="图层_1-2" data-name="图层 1"><path class="cls-1" d="M838,207.51a44.44,44.44,0,0,1-19.54-2.82c-6.32-2.49-11.19-6.65-14-12.78-4.44,2.59-8.62,5.35-13.08,7.56a82.24,82.24,0,0,1-42.47,8.4c-33.77-2.13-63-25.2-73.57-57.27-10.21-31-.52-66.78,24.12-88.16A83.25,83.25,0,0,1,835.18,103.9,91.12,91.12,0,0,1,838,126.59c.09,26.17,0,52.35,0,78.52ZM804.4,124.76A49.79,49.79,0,1,0,755,174.57,49.82,49.82,0,0,0,804.4,124.76Z"/><path class="cls-1" d="M456.07,115.68v-3.77a71.35,71.35,0,0,0-.73-8.86,78.64,78.64,0,0,0-22.73-44.73c-2.86-2.87-6-5.49-9.38-8.5a17.05,17.05,0,0,0-.42,5.16c.8,12.06,1,24.17,1,36.27a225.22,225.22,0,0,1-2,32.29c-2.68,19-14.73,34-32,40.06h0c-.52.18-1,.36-1.57.52a49.39,49.39,0,0,1-15.14,2.41h-.83a49.39,49.39,0,0,1-15.14-2.41c-.53-.16-1.05-.34-1.57-.52h0c-17.25-6.1-29.3-21.1-32-40.06a225.22,225.22,0,0,1-2-32.29c.05-12.1.24-24.21,1-36.27a17.05,17.05,0,0,0-.42-5.16c-3.37,3-6.52,5.63-9.38,8.5A78.64,78.64,0,0,0,290,103.05a71.51,71.51,0,0,0-.73,8.86v3.77c.09,4,.43,7.95.88,11.92A75.13,75.13,0,0,0,305,164.94a98.31,98.31,0,0,0,17.41,18l.52.41c.59.46,1.19.9,1.79,1.34s1.09.79,1.64,1.17l.86.6c.61.41,1.23.82,1.86,1.22l1.08.68,1.5.91a80.75,80.75,0,0,0,19.51,8.28c7,2,14.24,2.29,21.47,2.34s14.44-.38,21.48-2.34a80.75,80.75,0,0,0,19.51-8.28l1.5-.91,1.09-.68,1.85-1.22.86-.6c.55-.38,1.1-.77,1.64-1.17s1.2-.88,1.79-1.34l.52-.41a98.31,98.31,0,0,0,17.41-18,75.13,75.13,0,0,0,14.87-37.34C455.64,123.63,456,119.65,456.07,115.68Z"/><path class="cls-1" d="M645.61,151.25a70.4,70.4,0,0,0,1.45-13.68v-3.85c0-1.89-.12-3.78-.23-5.68a90.4,90.4,0,0,0-1.07-9.65,86.42,86.42,0,0,0-3.71-14.12c-.18-.5-.39-1-.58-1.51a68.79,68.79,0,0,0-5.72-11.33,101.56,101.56,0,0,0-12.32-16,91.63,91.63,0,0,0-20.31-15.76,84.82,84.82,0,0,0-17.6-7.3A66.8,66.8,0,0,0,569.24,50c-1.85,0-3.7-.09-5.55-.1s-3.7.05-5.55.1a66.87,66.87,0,0,0-16.28,2.38,84.51,84.51,0,0,0-17.59,7.3A91.63,91.63,0,0,0,504,75.44a101.16,101.16,0,0,0-12.33,16,69.38,69.38,0,0,0-5.72,11.35c-.19.5-.39,1-.57,1.49a84.3,84.3,0,0,0-3.71,14.13,89.93,89.93,0,0,0-1.07,9.64c-.11,1.9-.19,3.79-.23,5.68v3.85a69.64,69.64,0,0,0,1.45,13.68c4.15,19.23,14.29,34.7,29.46,47,.71.58,1.45,1.1,2,1.5a1.17,1.17,0,0,1,0-.2c0-3.37.11-6.69,0-10,0-1-.08-2-.12-3q-.27-5.84-.39-11.67c-.13-5-.2-10.06-.18-15.09,0-.39,0-.78,0-1.17a217.92,217.92,0,0,1,2.39-34.49,47.09,47.09,0,0,1,4.07-13c0-.11.09-.22.14-.32A47.42,47.42,0,0,1,536.33,91.4,49.11,49.11,0,0,1,558,83.49a50.74,50.74,0,0,1,5.35-.28H564a50.78,50.78,0,0,1,5.36.28,49.11,49.11,0,0,1,21.69,7.91,47.4,47.4,0,0,1,17.17,19.39c0,.1.09.21.14.32a47.1,47.1,0,0,1,4.08,13,219.1,219.1,0,0,1,2.38,34.49v1.18c0,5-.05,10-.18,15.08-.09,3.89-.21,7.78-.4,11.67,0,1-.07,2-.11,3-.14,3.3,0,6.62,0,10a1.94,1.94,0,0,0,0,.2c.52-.4,1.27-.92,2-1.5C631.32,186,641.45,170.48,645.61,151.25Z"/><path class="cls-2" d="M249.66,124.83V249.66h-9.81a31.8,31.8,0,0,1-31.8-31.8h0A124.47,124.47,0,0,0,249.66,124.83Z"/><path class="cls-3" d="M131.1,207.82l1.15-.1c-.33,0-.65.07-1,.09Z"/><path class="cls-4" d="M137.14,207.14,138,207l-.78.12Z"/><path class="cls-5" d="M162.59,199c.34-.18.68-.35,1-.54a3.24,3.24,0,0,1-.36.2l-.37.19Z"/><path class="cls-6" d="M190,176.63l.51-.64-.19.26c-.06.06-.11.14-.17.2l-.08.09s0,0,0,.05Z"/><path class="cls-7" d="M190.47,176l.3-.39a2.43,2.43,0,0,1-.14.2Z"/><path class="cls-8" d="M196.51,167.13c.21-.36.42-.7.62-1.06-.08.15-.16.3-.25.44Z"/><path class="cls-9" d="M197.38,165.62c.23-.39.44-.79.66-1.18-.08.15-.17.3-.24.45Z"/><path class="cls-10" d="M198.59,163.4l.43-.84c-.1.2-.2.41-.31.61A2.53,2.53,0,0,1,198.59,163.4Z"/><path class="cls-11" d="M205.28,146.21c.29-1.1.56-2.21.81-3.34C205.85,144,205.57,145.11,205.28,146.21Z"/><path class="cls-12" d="M207.14,137.14v0c0,.28-.08.55-.13.83C207.06,137.71,207.1,137.43,207.14,137.14Z"/><path class="cls-13" d="M137.14,207.14,138,207l-.78.12-.12,0Z"/><path class="cls-14" d="M159.89,200.31c.4-.17.79-.36,1.18-.55l-.43.21c-.39.19-.78.38-1.18.55C159.61,200.45,159.75,200.39,159.89,200.31Z"/><path class="cls-5" d="M162.59,199c.34-.18.68-.35,1-.54a3.24,3.24,0,0,1-.36.2l-.37.19Z"/><path class="cls-15" d="M190.47,176l.3-.39a2.43,2.43,0,0,1-.14.2l-.35.45c-.06.06-.11.14-.17.2l-.08.09s0,0,0,.05l-.11.13.07-.09Z"/><path class="cls-8" d="M196.51,167.13c.21-.36.42-.7.62-1.06-.08.15-.16.3-.25.44Z"/><path class="cls-9" d="M197.38,165.62c.23-.39.44-.79.66-1.18-.08.15-.17.3-.24.45Z"/><path class="cls-10" d="M198.59,163.4l.43-.84c-.1.2-.2.41-.31.61A2.53,2.53,0,0,1,198.59,163.4Z"/><path class="cls-11" d="M205.28,146.21c.29-1.1.56-2.21.81-3.34C205.85,144,205.57,145.11,205.28,146.21Z"/><path class="cls-16" d="M206.46,141.08l0-.1c0,.05,0,.12,0,.18S206.46,141.11,206.46,141.08Z"/><path class="cls-17" d="M207.31,136c-.05.41-.11.81-.17,1.22s-.08.55-.13.83c.05-.3.09-.58.13-.87S207.26,136.36,207.31,136Z"/><path class="cls-3" d="M131.1,207.82l1.15-.1c-.33,0-.65.07-1,.09Z"/><path class="cls-4" d="M137.14,207.14,138,207l-.78.12Z"/><path class="cls-5" d="M162.59,199c.34-.18.68-.35,1-.54a3.24,3.24,0,0,1-.36.2l-.37.19Z"/><path class="cls-6" d="M190,176.63l.51-.64-.19.26c-.06.06-.11.14-.17.2l-.08.09s0,0,0,.05Z"/><path class="cls-7" d="M190.47,176l.3-.39a2.43,2.43,0,0,1-.14.2Z"/><path class="cls-8" d="M196.51,167.13c.21-.36.42-.7.62-1.06-.08.15-.16.3-.25.44Z"/><path class="cls-9" d="M197.38,165.62c.23-.39.44-.79.66-1.18-.08.15-.17.3-.24.45Z"/><path class="cls-10" d="M198.59,163.4l.43-.84c-.1.2-.2.41-.31.61A2.53,2.53,0,0,1,198.59,163.4Z"/><path class="cls-11" d="M205.28,146.21c.29-1.1.56-2.21.81-3.34C205.85,144,205.57,145.11,205.28,146.21Z"/><path class="cls-12" d="M207.14,137.14v0c0,.28-.08.55-.13.83C207.06,137.71,207.1,137.43,207.14,137.14Z"/><path class="cls-13" d="M137.14,207.14,138,207l-.78.12-.12,0Z"/><path class="cls-14" d="M159.89,200.31c.4-.17.79-.36,1.18-.55l-.43.21c-.39.19-.78.38-1.18.55C159.61,200.45,159.75,200.39,159.89,200.31Z"/><path class="cls-5" d="M162.59,199c.34-.18.68-.35,1-.54a3.24,3.24,0,0,1-.36.2l-.37.19Z"/><path class="cls-15" d="M190.47,176l.3-.39a2.43,2.43,0,0,1-.14.2l-.35.45c-.06.06-.11.14-.17.2l-.08.09s0,0,0,.05l-.11.13.07-.09Z"/><path class="cls-8" d="M196.51,167.13c.21-.36.42-.7.62-1.06-.08.15-.16.3-.25.44Z"/><path class="cls-9" d="M197.38,165.62c.23-.39.44-.79.66-1.18-.08.15-.17.3-.24.45Z"/><path class="cls-10" d="M198.59,163.4l.43-.84c-.1.2-.2.41-.31.61A2.53,2.53,0,0,1,198.59,163.4Z"/><path class="cls-11" d="M205.28,146.21c.29-1.1.56-2.21.81-3.34C205.85,144,205.57,145.11,205.28,146.21Z"/><path class="cls-16" d="M206.46,141.08l0-.1c0,.05,0,.12,0,.18S206.46,141.11,206.46,141.08Z"/><path class="cls-17" d="M207.31,136c-.05.41-.11.81-.17,1.22s-.08.55-.13.83c.05-.3.09-.58.13-.87S207.26,136.36,207.31,136Z"/><path class="cls-13" d="M137.14,207.14,138,207l-.78.12-.12,0Z"/><path class="cls-14" d="M159.89,200.31c.4-.17.79-.36,1.18-.55l-.43.21c-.39.19-.78.38-1.18.55C159.61,200.45,159.75,200.39,159.89,200.31Z"/><path class="cls-5" d="M162.59,199c.34-.18.68-.35,1-.54a3.24,3.24,0,0,1-.36.2l-.37.19Z"/><path class="cls-15" d="M190.47,176l.3-.39a2.43,2.43,0,0,1-.14.2l-.35.45c-.06.06-.11.14-.17.2l-.08.09s0,0,0,.05l-.11.13.07-.09Z"/><path class="cls-8" d="M196.51,167.13c.21-.36.42-.7.62-1.06-.08.15-.16.3-.25.44Z"/><path class="cls-9" d="M197.38,165.62c.23-.39.44-.79.66-1.18-.08.15-.17.3-.24.45Z"/><path class="cls-10" d="M198.59,163.4l.43-.84c-.1.2-.2.41-.31.61A2.53,2.53,0,0,1,198.59,163.4Z"/><path class="cls-11" d="M205.28,146.21c.29-1.1.56-2.21.81-3.34C205.85,144,205.57,145.11,205.28,146.21Z"/><path class="cls-16" d="M206.46,141.08l0-.1c0,.05,0,.12,0,.18S206.46,141.11,206.46,141.08Z"/><path class="cls-17" d="M207.31,136c-.05.41-.11.81-.17,1.22s-.08.55-.13.83c.05-.3.09-.58.13-.87S207.26,136.36,207.31,136Z"/><path class="cls-13" d="M137.14,207.14,138,207l-.78.12-.12,0Z"/><path class="cls-14" d="M159.89,200.31c.4-.17.79-.36,1.18-.55l-.43.21c-.39.19-.78.38-1.18.55C159.61,200.45,159.75,200.39,159.89,200.31Z"/><path class="cls-5" d="M162.59,199c.34-.18.68-.35,1-.54a3.24,3.24,0,0,1-.36.2l-.37.19Z"/><path class="cls-15" d="M190.47,176l.3-.39a2.43,2.43,0,0,1-.14.2l-.35.45c-.06.06-.11.14-.17.2l-.08.09s0,0,0,.05l-.11.13.07-.09Z"/><path class="cls-8" d="M196.51,167.13c.21-.36.42-.7.62-1.06-.08.15-.16.3-.25.44Z"/><path class="cls-9" d="M197.38,165.62c.23-.39.44-.79.66-1.18-.08.15-.17.3-.24.45Z"/><path class="cls-10" d="M198.59,163.4l.43-.84c-.1.2-.2.41-.31.61A2.53,2.53,0,0,1,198.59,163.4Z"/><path class="cls-11" d="M205.28,146.21c.29-1.1.56-2.21.81-3.34C205.85,144,205.57,145.11,205.28,146.21Z"/><path class="cls-16" d="M206.46,141.08l0-.1c0,.05,0,.12,0,.18S206.46,141.11,206.46,141.08Z"/><path class="cls-17" d="M207.31,136c-.05.41-.11.81-.17,1.22s-.08.55-.13.83c.05-.3.09-.58.13-.87S207.26,136.36,207.31,136Z"/><path class="cls-3" d="M131.1,207.82l1.15-.1c-.33,0-.65.07-1,.09Z"/><path class="cls-4" d="M137.14,207.14,138,207l-.78.12Z"/><path class="cls-5" d="M162.59,199c.34-.18.68-.35,1-.54a3.24,3.24,0,0,1-.36.2l-.37.19Z"/><path class="cls-6" d="M190,176.63l.51-.64-.19.26c-.06.06-.11.14-.17.2l-.08.09s0,0,0,.05Z"/><path class="cls-7" d="M190.47,176l.3-.39a2.43,2.43,0,0,1-.14.2Z"/><path class="cls-8" d="M196.51,167.13c.21-.36.42-.7.62-1.06-.08.15-.16.3-.25.44Z"/><path class="cls-9" d="M197.38,165.62c.23-.39.44-.79.66-1.18-.08.15-.17.3-.24.45Z"/><path class="cls-10" d="M198.59,163.4l.43-.84c-.1.2-.2.41-.31.61A2.53,2.53,0,0,1,198.59,163.4Z"/><path class="cls-11" d="M205.28,146.21c.29-1.1.56-2.21.81-3.34C205.85,144,205.57,145.11,205.28,146.21Z"/><path class="cls-12" d="M207.14,137.14v0c0,.28-.08.55-.13.83C207.06,137.71,207.1,137.43,207.14,137.14Z"/><path class="cls-13" d="M137.14,207.14,138,207l-.78.12-.12,0Z"/><path class="cls-14" d="M159.89,200.31c.4-.17.79-.36,1.18-.55l-.43.21c-.39.19-.78.38-1.18.55C159.61,200.45,159.75,200.39,159.89,200.31Z"/><path class="cls-5" d="M162.59,199c.34-.18.68-.35,1-.54a3.24,3.24,0,0,1-.36.2l-.37.19Z"/><path class="cls-15" d="M190.47,176l.3-.39a2.43,2.43,0,0,1-.14.2l-.35.45c-.06.06-.11.14-.17.2l-.08.09s0,0,0,.05l-.11.13.07-.09Z"/><path class="cls-8" d="M196.51,167.13c.21-.36.42-.7.62-1.06-.08.15-.16.3-.25.44Z"/><path class="cls-9" d="M197.38,165.62c.23-.39.44-.79.66-1.18-.08.15-.17.3-.24.45Z"/><path class="cls-10" d="M198.59,163.4l.43-.84c-.1.2-.2.41-.31.61A2.53,2.53,0,0,1,198.59,163.4Z"/><path class="cls-11" d="M205.28,146.21c.29-1.1.56-2.21.81-3.34C205.85,144,205.57,145.11,205.28,146.21Z"/><path class="cls-16" d="M206.46,141.08l0-.1c0,.05,0,.12,0,.18S206.46,141.11,206.46,141.08Z"/><path class="cls-17" d="M207.31,136c-.05.41-.11.81-.17,1.22s-.08.55-.13.83c.05-.3.09-.58.13-.87S207.26,136.36,207.31,136Z"/><path class="cls-18" d="M207.64,133.15c.07-.66.13-1.33.17-2-.06,1-.12,2.06-.21,3.07q-.16,2-.42,3.93c-.17,1.31-.36,2.61-.58,3.9-.1.63-.21,1.27-.32,1.91-.05.22-.09.44-.13.68-.11.56-.23,1.12-.34,1.68-.5,2.35-1.06,4.66-1.71,6.94,0,.17-.09.33-.14.5q-.75,2.61-1.64,5.17l-.64,1.8c-.44,1.2-.9,2.39-1.38,3.56-.25.6-.49,1.18-.74,1.76q-1.08,2.49-2.28,4.94c-.29.57-.58,1.14-.88,1.71q-2.22,4.31-4.85,8.38c-.33.52-.68,1-1,1.57s-.59.87-.88,1.3-.6.86-.91,1.28c-.48.69-1,1.36-1.47,2A104,104,0,0,1,0,127.52c0-.45,0-.9,0-1.34s0-.9,0-1.35,0-.9,0-1.35,0-.89,0-1.34A124.82,124.82,0,0,1,122.14,0,104,104,0,0,0,62.41,187.26q2.28,1.71,4.67,3.31c.45.3.89.59,1.34.87l.89.58c.43.27.85.54,1.29.79q3.93,2.41,8.09,4.47c.54.28,1.09.54,1.63.79l.15.08,1.71.78,1.76.78c1.19.49,2.37,1,3.57,1.44l0,0c1,.4,2.1.79,3.17,1.16l1.24.41c.53.19,1.06.36,1.6.53l1.46.45,1.43.4c.48.15,1,.29,1.46.4l1.46.39c.84.21,1.69.41,2.54.6A103.6,103.6,0,0,0,121.36,208l1.32,0,2.15,0,2.15,0,1.32-.05.95,0,1.85-.12h.17c.33,0,.65-.06,1-.09h.14l.65-.06h.11l.83-.09c.21,0,.43,0,.65-.07l.44,0,.13,0,1.43-.19.43-.06.08,0L138,207l1-.17h.1l1.85-.34H141l1-.22c.29-.05.57-.12.86-.18,1.23-.27,2.44-.57,3.65-.89l.14,0h0l1.8-.51.07,0c.59-.17,1.17-.35,1.76-.54l.1,0c.57-.18,1.14-.38,1.7-.58a.8.8,0,0,0,.26-.09c.37-.12.74-.25,1.11-.4a4.61,4.61,0,0,0,.55-.2l.15-.05,1.5-.59.22-.08.76-.32c.41-.16.82-.33,1.22-.51l.79-.35c.28-.11.54-.23.8-.36s.29-.13.43-.21l.75-.34.43-.21.08,0c.47-.22.94-.46,1.41-.7h0c.34-.18.68-.35,1-.54l.31-.15.32-.17.32-.18s0,0,0,0l.4-.22c.24-.13.49-.26.74-.41l.46-.26.23-.13,1.37-.81.47-.29.84-.52c.14-.08.27-.17.4-.26.32-.2.64-.4.95-.61l.34-.22c.44-.28.87-.58,1.29-.88.15-.09.3-.2.45-.31l.49-.34.72-.52.27-.2.4-.3c.31-.22.63-.46.94-.71s.42-.31.63-.48l.74-.59c.33-.25.66-.52,1-.8l.41-.34c.36-.29.71-.6,1.07-.91l.4-.34a2.61,2.61,0,0,0,.25-.23c.26-.21.51-.44.77-.68l.47-.43c.32-.29.65-.59,1-.9l.6-.58c.25-.23.49-.48.74-.72l.43-.42.88-.9.28-.29.26-.28.82-.87c.13-.14.27-.29.4-.45l.9-1,.48-.54c.22-.26.45-.52.66-.79a2.26,2.26,0,0,0,.25-.29l.14-.16a1.09,1.09,0,0,0,.13-.17c.27-.31.52-.63.78-.95a.34.34,0,0,0,.09-.12l.07-.09.51-.64.3-.39.27-.35a3.59,3.59,0,0,0,.25-.33h0c.22-.3.45-.6.66-.9l.2-.27c.39-.53.78-1.07,1.15-1.63l.3-.43c.23-.34.46-.67.68-1l0,0c.27-.39.52-.78.77-1.19.08-.11.15-.23.22-.34l.13-.2.49-.79.23-.39c.12-.19.23-.39.35-.59.21-.36.42-.7.62-1.06a4.79,4.79,0,0,0,.25-.45c.23-.39.44-.79.66-1.18,0-.07.08-.14.11-.21.15-.28.3-.55.44-.83l.43-.84a.93.93,0,0,0,.1-.2c.23-.42.44-.85.64-1.29a1.24,1.24,0,0,0,.1-.2l.14-.28.63-1.36a1.33,1.33,0,0,0,.09-.21c.13-.28.27-.58.39-.87l.28-.64c.07-.16.14-.32.2-.5s.26-.59.38-.9.21-.49.3-.75.27-.69.41-1c0-.1.07-.19.1-.28s.15-.38.2-.57a.93.93,0,0,0,.1-.26c.14-.36.26-.72.39-1.08a.84.84,0,0,0,.05-.17c.15-.43.3-.86.45-1.31a3.58,3.58,0,0,0,.11-.35c.18-.54.35-1.09.51-1.64s.25-.84.37-1.27c0-.15.09-.31.13-.47s.12-.47.19-.71c.29-1.1.56-2.21.81-3.34.12-.55.25-1.12.36-1.69v0s0,0,0-.08l0-.1c0-.18.06-.36.1-.54.08-.42.16-.84.23-1.26,0,0,0-.07,0-.11.06-.35.11-.71.17-1.06s.09-.58.13-.87.12-.78.17-1.18c0-.24.07-.48.1-.73a.15.15,0,0,1,0-.06c.05-.39.09-.79.13-1.19S207.61,133.43,207.64,133.15Z"/><path class="cls-19" d="M207.82,131.1v.05c0-.3.05-.6.07-.91Z"/><path class="cls-20" d="M228.86,145.64a104,104,0,0,1-101.34,104l-1.34,0h-2.7l-1.34,0A124.82,124.82,0,0,1,0,127.52a104,104,0,0,0,187.23,59.74c.49-.67,1-1.34,1.47-2,.31-.42.61-.85.91-1.28s.59-.86.88-1.3.7-1.05,1-1.57q2.63-4.07,4.85-8.38c.3-.57.59-1.14.88-1.71q1.2-2.44,2.28-4.94c.25-.58.49-1.16.74-1.76.48-1.17.94-2.36,1.38-3.56l.64-1.8q.88-2.56,1.64-5.17c0-.17.1-.33.14-.5.65-2.28,1.21-4.59,1.71-6.94.11-.56.23-1.12.34-1.68,0-.24.08-.46.13-.68.11-.64.22-1.28.32-1.91.22-1.29.41-2.59.58-3.9s.31-2.61.42-3.93.21-2.65.28-4c0-.29,0-.58.05-.86a.28.28,0,0,0,0-.09c0-.18,0-.36,0-.56,0-.58,0-1.16.07-1.75s0-1.43,0-2.15,0-1.43,0-2.15,0-1.17-.07-1.75c0-.19,0-.38,0-.56a.25.25,0,0,0,0-.08,83.21,83.21,0,0,0-78.55-78.55,104,104,0,0,1,97.4,83.09A104.91,104.91,0,0,1,228.86,145.64Z"/><path class="cls-21" d="M249.66,124.83c0,.45,0,.9,0,1.35s0,.89,0,1.34A124.82,124.82,0,0,1,127.52,249.63a104,104,0,0,0,101.34-104,103.79,103.79,0,0,0-41.6-83.23,103.46,103.46,0,0,0-57.88-20.67h-.09l-.56,0c-.58,0-1.17-.05-1.75-.06s-1.43,0-2.15,0l-2.15,0c-.58,0-1.17,0-1.75.06l-.56,0h-.08a83.2,83.2,0,0,0-78.55,78.55,104,104,0,0,1,207.89,1.85c0,.45,0,.89,0,1.34S249.66,124.38,249.66,124.83Z"/><path class="cls-22" d="M249.63,122.14a104,104,0,0,0-207.89-1.85.25.25,0,0,0,0,.08l0,.56c0,.58-.05,1.17-.06,1.75s0,1.44,0,2.15,0,1.43,0,2.15,0,1.17.06,1.75c0,.2,0,.38,0,.56a.31.31,0,0,0,0,.09,83.21,83.21,0,0,0,78.55,78.55,104.8,104.8,0,0,1-18.37-2.42l-2.54-.6-1.46-.39-1.46-.4-1.43-.4-1.46-.45c-.54-.17-1.07-.34-1.6-.53l-1.24-.41c-1.07-.37-2.12-.76-3.17-1.16l0,0c-1.2-.46-2.38-1-3.57-1.44l-1.76-.78-1.71-.78-.15-.08c-.54-.25-1.09-.52-1.63-.79q-4.16-2.06-8.09-4.47c-.44-.25-.86-.52-1.29-.79l-.89-.58c-.45-.28-.89-.57-1.34-.87q-2.39-1.6-4.67-3.31A104,104,0,0,1,122.14,0l1.34,0h2.7l1.34,0A124.82,124.82,0,0,1,249.63,122.14Z"/><path class="cls-3" d="M131.1,207.82l1.15-.1c-.33,0-.65.07-1,.09Z"/><path class="cls-4" d="M137.14,207.14,138,207l-.78.12Z"/><path class="cls-5" d="M162.59,199c.34-.18.68-.35,1-.54a3.24,3.24,0,0,1-.36.2l-.37.19Z"/><path class="cls-6" d="M190,176.63l.51-.64-.19.26c-.06.06-.11.14-.17.2l-.08.09s0,0,0,.05Z"/><path class="cls-7" d="M190.47,176l.3-.39a2.43,2.43,0,0,1-.14.2Z"/><path class="cls-8" d="M196.51,167.13c.21-.36.42-.7.62-1.06-.08.15-.16.3-.25.44Z"/><path class="cls-9" d="M197.38,165.62c.23-.39.44-.79.66-1.18-.08.15-.17.3-.24.45Z"/><path class="cls-10" d="M198.59,163.4l.43-.84c-.1.2-.2.41-.31.61A2.53,2.53,0,0,1,198.59,163.4Z"/><path class="cls-11" d="M205.28,146.21c.29-1.1.56-2.21.81-3.34C205.85,144,205.57,145.11,205.28,146.21Z"/><path class="cls-12" d="M207.14,137.14v0c0,.28-.08.55-.13.83C207.06,137.71,207.1,137.43,207.14,137.14Z"/></g></g></svg>