<svg xmlns="http://www.w3.org/2000/svg" xmlns:xlink="http://www.w3.org/1999/xlink" viewBox="0 0 890 346"><defs><style>.cls-1{isolation:isolate;}.cls-2{fill:url(#未命名的渐变_14);}.cls-3{fill:#f9ab83;}.cls-4{fill:#d13985;}.cls-5{fill:#010400;}.cls-6{fill:#1c1c38;}.cls-7{fill:#46466c;}.cls-8{fill:#2d2d4f;}.cls-9{fill:#ed549c;}.cls-10{fill:#e28c66;}.cls-11{fill:#52a3f6;}.cls-12{fill:#bdcefa;}.cls-13{fill:url(#Degradado_sin_nombre_2);}.cls-14{fill:url(#Degradado_sin_nombre_12);}.cls-15{fill:url(#未命名的渐变_338);}.cls-16{fill:url(#未命名的渐变_338-2);}.cls-17{fill:url(#未命名的渐变_338-3);}.cls-18{fill:#ff9100;}.cls-19{fill:#ffec00;}.cls-20{fill:#73ebff;}.cls-21{fill:#d87600;}.cls-22{fill:url(#Degradado_sin_nombre_11);}.cls-23{fill:url(#Degradado_sin_nombre_11-2);}.cls-24,.cls-34{fill:#d6c100;}.cls-25{fill:url(#Degradado_sin_nombre_11-3);}.cls-26,.cls-38{fill:#39c2d1;}.cls-27,.cls-53{mix-blend-mode:overlay;}.cls-28{fill:#fff;}.cls-29{fill:url(#Degradado_sin_nombre_10);}.cls-30{fill:url(#Degradado_sin_nombre_9);}.cls-31{fill:url(#Degradado_sin_nombre_8);}.cls-32{fill:#e8f2fe;}.cls-33{fill:url(#Degradado_sin_nombre_2-2);}.cls-34,.cls-36,.cls-38,.cls-60,.cls-66{mix-blend-mode:color-dodge;}.cls-35{fill:#938100;}.cls-36{fill:url(#Degradado_sin_nombre_3);}.cls-37{fill:#bc6200;}.cls-39{fill:#20a8af;}.cls-40{fill:url(#Degradado_sin_nombre_2-3);}.cls-41{fill:url(#Degradado_sin_nombre_2-4);}.cls-42{fill:url(#Degradado_sin_nombre_2-5);}.cls-43{fill:url(#Degradado_sin_nombre_2-6);}.cls-44{fill:url(#Degradado_sin_nombre_2-7);}.cls-45{fill:url(#Degradado_sin_nombre_2-8);}.cls-46,.cls-47,.cls-48,.cls-76,.cls-81{fill-rule:evenodd;}.cls-46{fill:url(#Degradado_sin_nombre_7);}.cls-47{fill:url(#Degradado_sin_nombre_6);}.cls-48{fill:url(#Degradado_sin_nombre_2-9);}.cls-49{fill:#7de7e8;}.cls-50{fill:url(#Degradado_sin_nombre_5);}.cls-51,.cls-76{fill:#e58800;}.cls-52{fill:url(#Degradado_sin_nombre_4);}.cls-53{fill:url(#Degradado_sin_nombre_2-10);}.cls-54{fill:#f1ac85;}.cls-55{fill:#383260;}.cls-56{fill:#ffffeb;}.cls-57{fill:#7b3d94;}.cls-58{fill:url(#Degradado_sin_nombre_4-2);}.cls-59{fill:url(#Degradado_sin_nombre_2-11);}.cls-60{fill:url(#Degradado_sin_nombre_3-2);}.cls-61{fill:url(#Degradado_sin_nombre_2-12);}.cls-62{fill:#290082;}.cls-63{fill:url(#Degradado_sin_nombre_2-13);}.cls-64{fill:url(#Degradado_sin_nombre_2-14);}.cls-65{fill:url(#Degradado_sin_nombre_2-15);}.cls-66{fill:url(#Degradado_sin_nombre_3-3);}.cls-67{fill:url(#Degradado_sin_nombre_2-16);}.cls-68{fill:url(#Degradado_sin_nombre_2-17);}.cls-69{fill:url(#Degradado_sin_nombre_2-18);}.cls-70{fill:#293677;}.cls-71{fill:#3587d8;}.cls-72{fill:#58a3fc;}.cls-73{fill:#3c4892;}.cls-74{fill:#e5a89c;}.cls-75{fill:#fcc4b7;}.cls-77,.cls-81{fill:#0382ff;}.cls-78{fill:#730698;}.cls-79{fill:#e4f2ff;}.cls-80{fill:#dd936f;}.cls-82{fill:#484968;}.cls-83{fill:#54a5f8;}.cls-84{fill:#3f4893;}.cls-85{fill:url(#未命名的渐变_338-4);}.cls-86{fill:url(#未命名的渐变_338-5);}.cls-87{fill:url(#未命名的渐变_338-6);}.cls-88{fill:url(#未命名的渐变_338-7);}.cls-89{fill:url(#未命名的渐变_338-8);}.cls-90{fill:url(#未命名的渐变_338-9);}.cls-91{fill:url(#未命名的渐变_338-10);}.cls-92{fill:url(#未命名的渐变_338-11);}.cls-93{fill:url(#未命名的渐变_338-12);}.cls-94{fill:url(#未命名的渐变_338-13);}.cls-95{fill:url(#未命名的渐变_338-14);}.cls-96{fill:url(#未命名的渐变_338-15);}.cls-97{fill:url(#未命名的渐变_338-16);}</style><linearGradient id="未命名的渐变_14" y1="173" x2="890" y2="173" gradientUnits="userSpaceOnUse"><stop offset="0" stop-color="#e0ebff"/><stop offset="1" stop-color="#f4f9ff"/></linearGradient><linearGradient id="Degradado_sin_nombre_2" x1="131.71" y1="163.49" x2="350.67" y2="225.62" gradientUnits="userSpaceOnUse"><stop offset="0" stop-color="#e4f2ff"/><stop offset="0.06" stop-color="#e1efff"/><stop offset="0.65" stop-color="#c7d7fb"/><stop offset="1" stop-color="#bdcefa"/></linearGradient><linearGradient id="Degradado_sin_nombre_12" x1="134.57" y1="112.81" x2="293.57" y2="270.27" gradientUnits="userSpaceOnUse"><stop offset="0.14" stop-color="#0f123b"/><stop offset="0.2" stop-color="#141754"/><stop offset="0.32" stop-color="#1b1f7a"/><stop offset="0.44" stop-color="#212599"/><stop offset="0.56" stop-color="#262ab2"/><stop offset="0.69" stop-color="#292dc3"/><stop offset="0.83" stop-color="#2b2fce"/><stop offset="1" stop-color="#2c30d1"/></linearGradient><linearGradient id="未命名的渐变_338" x1="513.55" y1="-77.39" x2="473.28" y2="-77.39" gradientTransform="matrix(1.42, -0.65, 0.69, 0.39, -439.91, 560)" gradientUnits="userSpaceOnUse"><stop offset="0" stop-color="#15a6ff"/><stop offset="0" stop-color="#17aefe"/><stop offset="0" stop-color="#1fd1fb"/><stop offset="0" stop-color="#25eaf8"/><stop offset="0" stop-color="#29faf7"/><stop offset="0" stop-color="#2afff6"/><stop offset="0.19" stop-color="#27edf7"/><stop offset="0.58" stop-color="#1fbefb"/><stop offset="1" stop-color="#1586ff"/></linearGradient><linearGradient id="未命名的渐变_338-2" x1="541.61" y1="-81.33" x2="485.38" y2="-81.33" xlink:href="#未命名的渐变_338"/><linearGradient id="未命名的渐变_338-3" x1="541.76" y1="-74.84" x2="513.57" y2="-74.84" xlink:href="#未命名的渐变_338"/><linearGradient id="Degradado_sin_nombre_11" x1="233.98" y1="217.66" x2="198.81" y2="276.18" gradientUnits="userSpaceOnUse"><stop offset="0" stop-color="#fff"/><stop offset="0.1" stop-color="#eee" stop-opacity="0.93"/><stop offset="0.3" stop-color="#c2c3c2" stop-opacity="0.76"/><stop offset="0.57" stop-color="#7b7d7b" stop-opacity="0.48"/><stop offset="0.91" stop-color="#1b1e1a" stop-opacity="0.1"/><stop offset="1" stop-color="#010400" stop-opacity="0"/></linearGradient><linearGradient id="Degradado_sin_nombre_11-2" x1="271.04" y1="243.25" x2="241.83" y2="291.85" xlink:href="#Degradado_sin_nombre_11"/><linearGradient id="Degradado_sin_nombre_11-3" x1="228.91" y1="231.68" x2="205.7" y2="270.29" xlink:href="#Degradado_sin_nombre_11"/><linearGradient id="Degradado_sin_nombre_10" x1="326.41" y1="218.61" x2="303.59" y2="204.92" gradientUnits="userSpaceOnUse"><stop offset="0" stop-color="#fcfdff" stop-opacity="0"/><stop offset="0.12" stop-color="#fcfad7" stop-opacity="0.16"/><stop offset="0.37" stop-color="#fdf58c" stop-opacity="0.45"/><stop offset="0.59" stop-color="#fef150" stop-opacity="0.69"/><stop offset="0.77" stop-color="#ffee24" stop-opacity="0.86"/><stop offset="0.91" stop-color="#ffed0a" stop-opacity="0.96"/><stop offset="1" stop-color="#ffec00"/></linearGradient><linearGradient id="Degradado_sin_nombre_9" x1="336.37" y1="215.48" x2="317.73" y2="204.83" gradientUnits="userSpaceOnUse"><stop offset="0" stop-color="#fcfdff" stop-opacity="0"/><stop offset="0.12" stop-color="#fcdbe7" stop-opacity="0.16"/><stop offset="0.37" stop-color="#fd9cb8" stop-opacity="0.45"/><stop offset="0.59" stop-color="#fe6a94" stop-opacity="0.69"/><stop offset="0.77" stop-color="#ff4679" stop-opacity="0.86"/><stop offset="0.91" stop-color="#ff2f69" stop-opacity="0.96"/><stop offset="1" stop-color="#ff2763"/></linearGradient><linearGradient id="Degradado_sin_nombre_8" x1="340.83" y1="209.67" x2="322.2" y2="198.66" gradientUnits="userSpaceOnUse"><stop offset="0" stop-color="#fcfdff" stop-opacity="0"/><stop offset="0.12" stop-color="#e7faff" stop-opacity="0.16"/><stop offset="0.37" stop-color="#bef5ff" stop-opacity="0.45"/><stop offset="0.59" stop-color="#9ef1ff" stop-opacity="0.69"/><stop offset="0.77" stop-color="#87eeff" stop-opacity="0.86"/><stop offset="0.91" stop-color="#78ecff" stop-opacity="0.96"/><stop offset="1" stop-color="#73ebff"/></linearGradient><linearGradient id="Degradado_sin_nombre_2-2" x1="347.43" y1="57.34" x2="210.65" y2="119.66" xlink:href="#Degradado_sin_nombre_2"/><linearGradient id="Degradado_sin_nombre_3" x1="262.72" y1="103.63" x2="262.72" y2="47.86" gradientUnits="userSpaceOnUse"><stop offset="0.07" stop-color="#55d1ff"/><stop offset="0.16" stop-color="#4fc3ee" stop-opacity="0.93"/><stop offset="0.35" stop-color="#41a0c2" stop-opacity="0.76"/><stop offset="0.6" stop-color="#29677b" stop-opacity="0.48"/><stop offset="0.92" stop-color="#0a191a" stop-opacity="0.1"/><stop offset="1" stop-color="#010400" stop-opacity="0"/></linearGradient><linearGradient id="Degradado_sin_nombre_2-3" x1="274.44" y1="332.3" x2="259.66" y2="332.02" xlink:href="#Degradado_sin_nombre_2"/><linearGradient id="Degradado_sin_nombre_2-4" x1="304.93" y1="317" x2="290.16" y2="316.73" xlink:href="#Degradado_sin_nombre_2"/><linearGradient id="Degradado_sin_nombre_2-5" x1="334.51" y1="299.8" x2="319.74" y2="299.52" xlink:href="#Degradado_sin_nombre_2"/><linearGradient id="Degradado_sin_nombre_2-6" x1="211.83" y1="86.33" x2="58.35" y2="156.26" xlink:href="#Degradado_sin_nombre_2"/><linearGradient id="Degradado_sin_nombre_2-7" x1="184.42" y1="86.16" x2="-8.79" y2="198.96" xlink:href="#Degradado_sin_nombre_2"/><linearGradient id="Degradado_sin_nombre_2-8" x1="163.09" y1="78.07" x2="86.81" y2="112.82" xlink:href="#Degradado_sin_nombre_2"/><linearGradient id="Degradado_sin_nombre_7" x1="117.92" y1="110.94" x2="136.04" y2="101.99" gradientUnits="userSpaceOnUse"><stop offset="0.07" stop-color="#b8d0f6"/><stop offset="0.62" stop-color="#a7c2ea"/><stop offset="1" stop-color="#99b6e0"/></linearGradient><linearGradient id="Degradado_sin_nombre_6" x1="140.35" y1="93.5" x2="103.48" y2="123.23" gradientUnits="userSpaceOnUse"><stop offset="0" stop-color="#fff"/><stop offset="0.37" stop-color="#e1e9fd"/><stop offset="0.76" stop-color="#c7d5fb"/><stop offset="1" stop-color="#bdcefa"/></linearGradient><linearGradient id="Degradado_sin_nombre_2-9" x1="119.3" y1="111.12" x2="149.73" y2="95.67" xlink:href="#Degradado_sin_nombre_2"/><linearGradient id="Degradado_sin_nombre_5" x1="604.79" y1="59.76" x2="604.79" y2="97.3" gradientTransform="matrix(-1, 0, 0, 1, 737.72, 0)" gradientUnits="userSpaceOnUse"><stop offset="0" stop-color="#7de7e8"/><stop offset="0.29" stop-color="#4fc3e8"/><stop offset="0.61" stop-color="#24a1e9"/><stop offset="0.85" stop-color="#0a8ce9"/><stop offset="1" stop-color="#0084e9"/></linearGradient><linearGradient id="Degradado_sin_nombre_4" x1="201.84" y1="-21.91" x2="105.37" y2="112.34" gradientUnits="userSpaceOnUse"><stop offset="0" stop-color="#e4f2ff"/><stop offset="0.2" stop-color="#dceafe" stop-opacity="0.78"/><stop offset="0.6" stop-color="#cbdbfc" stop-opacity="0.37"/><stop offset="0.87" stop-color="#c1d2fb" stop-opacity="0.1"/><stop offset="1" stop-color="#bdcefa" stop-opacity="0"/></linearGradient><linearGradient id="Degradado_sin_nombre_2-10" x1="97.03" y1="58.86" x2="166.41" y2="16.44" xlink:href="#Degradado_sin_nombre_2"/><linearGradient id="Degradado_sin_nombre_4-2" x1="133.87" y1="210.39" x2="107.97" y2="246.44" xlink:href="#Degradado_sin_nombre_4"/><linearGradient id="Degradado_sin_nombre_2-11" x1="93.19" y1="245.61" x2="31.16" y2="276.37" xlink:href="#Degradado_sin_nombre_2"/><linearGradient id="Degradado_sin_nombre_3-2" x1="63.16" y1="280.1" x2="63.16" y2="227.01" xlink:href="#Degradado_sin_nombre_3"/><linearGradient id="Degradado_sin_nombre_2-12" x1="103.68" y1="267.49" x2="63.24" y2="251.31" xlink:href="#Degradado_sin_nombre_2"/><linearGradient id="Degradado_sin_nombre_2-13" x1="77.17" y1="256.1" x2="85.96" y2="256.1" xlink:href="#Degradado_sin_nombre_2"/><linearGradient id="Degradado_sin_nombre_2-14" x1="79.62" y1="230.73" x2="64.85" y2="230.46" xlink:href="#Degradado_sin_nombre_2"/><linearGradient id="Degradado_sin_nombre_2-15" x1="180.26" y1="296.14" x2="118.23" y2="326.9" xlink:href="#Degradado_sin_nombre_2"/><linearGradient id="Degradado_sin_nombre_3-3" x1="150.23" y1="330.63" x2="150.23" y2="277.54" xlink:href="#Degradado_sin_nombre_3"/><linearGradient id="Degradado_sin_nombre_2-16" x1="190.76" y1="318.02" x2="150.31" y2="301.84" xlink:href="#Degradado_sin_nombre_2"/><linearGradient id="Degradado_sin_nombre_2-17" x1="164.54" y1="306.37" x2="173.33" y2="306.37" xlink:href="#Degradado_sin_nombre_2"/><linearGradient id="Degradado_sin_nombre_2-18" x1="166.72" y1="281.92" x2="151.95" y2="281.64" xlink:href="#Degradado_sin_nombre_2"/><linearGradient id="未命名的渐变_338-4" x1="432.22" y1="113.88" x2="463.64" y2="145.3" gradientTransform="matrix(1, 0, 0, 1, 0, 0)" xlink:href="#未命名的渐变_338"/><linearGradient id="未命名的渐变_338-5" x1="470.03" y1="126.26" x2="496.81" y2="153.04" gradientTransform="matrix(1, 0, 0, 1, 0, 0)" xlink:href="#未命名的渐变_338"/><linearGradient id="未命名的渐变_338-6" x1="504.61" y1="128.72" x2="527.63" y2="151.74" gradientTransform="matrix(1, 0, 0, 1, 0, 0)" xlink:href="#未命名的渐变_338"/><linearGradient id="未命名的渐变_338-7" x1="530.4" y1="118.7" x2="560.22" y2="148.53" gradientTransform="matrix(1, 0, 0, 1, 0, 0)" xlink:href="#未命名的渐变_338"/><linearGradient id="未命名的渐变_338-8" x1="570.82" y1="127.71" x2="592.32" y2="149.22" gradientTransform="matrix(1, 0, 0, 1, 0, 0)" xlink:href="#未命名的渐变_338"/><linearGradient id="未命名的渐变_338-9" x1="604.6" y1="127.71" x2="626.1" y2="149.22" gradientTransform="matrix(1, 0, 0, 1, 0, 0)" xlink:href="#未命名的渐变_338"/><linearGradient id="未命名的渐变_338-10" x1="632.26" y1="125" x2="655.38" y2="148.12" gradientTransform="matrix(1, 0, 0, 1, 0, 0)" xlink:href="#未命名的渐变_338"/><linearGradient id="未命名的渐变_338-11" x1="671.24" y1="111.05" x2="701.41" y2="141.23" gradientTransform="matrix(1, 0, 0, 1, 0, 0)" xlink:href="#未命名的渐变_338"/><linearGradient id="未命名的渐变_338-12" x1="706.47" y1="123.1" x2="734.77" y2="151.4" gradientTransform="matrix(1, 0, 0, 1, 0, 0)" xlink:href="#未命名的渐变_338"/><linearGradient id="未命名的渐变_338-13" x1="739.21" y1="145.64" x2="746.15" y2="152.59" gradientTransform="matrix(1, 0, 0, 1, 0, 0)" xlink:href="#未命名的渐变_338"/><linearGradient id="未命名的渐变_338-14" x1="750.58" y1="121.75" x2="779.92" y2="151.09" gradientTransform="matrix(1, 0, 0, 1, 0, 0)" xlink:href="#未命名的渐变_338"/><linearGradient id="未命名的渐变_338-15" x1="784.26" y1="145.64" x2="791.2" y2="152.59" gradientTransform="matrix(1, 0, 0, 1, 0, 0)" xlink:href="#未命名的渐变_338"/><linearGradient id="未命名的渐变_338-16" x1="797.52" y1="120.43" x2="822.94" y2="145.85" gradientTransform="matrix(1, 0, 0, 1, 0, 0)" xlink:href="#未命名的渐变_338"/></defs><title>资源 4</title><g class="cls-1"><g id="图层_2" data-name="图层 2"><g id="图层_1-2" data-name="图层 1"><rect class="cls-2" width="890" height="346"/><path class="cls-3" d="M108.13,67.18h0a2.82,2.82,0,0,1-3.26-2.26l-2-11.44a2.81,2.81,0,0,1,2.27-3.25h0a2.81,2.81,0,0,1,3.25,2.27l2.05,11.43A2.81,2.81,0,0,1,108.13,67.18Z"/><path class="cls-4" d="M110.47,55.63l-1.24-7a4.36,4.36,0,0,0-5-3.51h0a4.35,4.35,0,0,0-3.51,5l1.25,7S105.64,60.57,110.47,55.63Z"/><path class="cls-3" d="M120.68,68.18h0A2.83,2.83,0,0,1,117.16,70l-9.68-2.83a2.8,2.8,0,0,1-2.62-3h0a2.81,2.81,0,0,1,3-2.62l11,3.07A2.81,2.81,0,0,1,120.68,68.18Z"/><path class="cls-5" d="M90.94,113c-.13,1.23,2.81,2,5.27,3.41,3.41,2,7.1,3,8.85,2a1.14,1.14,0,0,0,.67-1v-2c.06-1.13-1.63-2.86-4.19-5.36-2.83-2.76-4.63-4.48-8.86-2-1.21.7-1.69,1.22-1.7,1.66Z"/><path class="cls-6" d="M101.54,110.14c3.41,3.32,5.28,5.29,3.52,6.3s-5.26-.51-8.85-3.23c-3.15-2.38-7.75-2.67-3.53-5.11S98.71,107.38,101.54,110.14Z"/><path class="cls-7" d="M98.8,107.72a1.77,1.77,0,0,0,.2-.85V77.56c0-1.86-1.91-3.37-4.25-3.37h0c-2.33,0-4.25,1.51-4.25,3.37v31.87a1.08,1.08,0,0,0,.76,1C92.89,111,96.75,111.65,98.8,107.72Z"/><path class="cls-5" d="M100.13,106.25c-.12,1.23,2.81,2,5.27,3.41,3.42,2,7.1,3,8.85,2a1.12,1.12,0,0,0,.67-1v-2c.07-1.13-1.62-2.86-4.19-5.36-2.83-2.76-4.63-4.48-8.85-2-1.21.7-1.7,1.22-1.7,1.66Z"/><path class="cls-6" d="M110.73,103.36c3.42,3.32,5.28,5.29,3.52,6.3s-5.25-.51-8.85-3.23c-3.15-2.38-7.75-2.67-3.52-5.11S107.9,100.6,110.73,103.36Z"/><path class="cls-8" d="M108,100.94a1.89,1.89,0,0,0,.19-.85V70.78c0-1.86-1.91-3.37-4.24-3.37h0c-2.34,0-4.25,1.51-4.25,3.37v31.87a1.07,1.07,0,0,0,.75,1C102.08,104.17,106,104.87,108,100.94Z"/><path class="cls-9" d="M91.9,82.83a.89.89,0,0,0,.36.11c1.88.15,8.63-1.32,15.39-8.93a3.52,3.52,0,0,0,.91-2.19V50.21a3.55,3.55,0,0,0-1.51-3.29L102,44a3.56,3.56,0,0,0-3.62.33l-6.93,4a11.28,11.28,0,0,0-5.08,8.81V78.82a1.09,1.09,0,0,0,.49,1Z"/><path class="cls-10" d="M93.87,49.63a1.77,1.77,0,0,0,1,1.48,5.57,5.57,0,0,0,5.06,0,1.77,1.77,0,0,0,1-1.48V44.92a1.77,1.77,0,0,0-1-1.49,5.57,5.57,0,0,0-5.06,0,1.77,1.77,0,0,0-1,1.49Z"/><circle class="cls-3" cx="97.45" cy="37.41" r="9.86" transform="translate(39.22 124.04) rotate(-77.09)"/><path class="cls-3" d="M94.57,73.62h0a2.81,2.81,0,0,1-3.49-1.88L87.76,60.61a2.8,2.8,0,0,1,1.88-3.49h0A2.82,2.82,0,0,1,93.13,59l3.33,11.13A2.81,2.81,0,0,1,94.57,73.62Z"/><path class="cls-4" d="M95.59,61.87l-2-6.77a4.35,4.35,0,0,0-5.4-2.91h0a4.35,4.35,0,0,0-2.92,5.4l2,6.77S91.35,67.33,95.59,61.87Z"/><path class="cls-3" d="M110.32,73.89h0A2.8,2.8,0,0,1,107,76.11l-13.11-2.4A2.82,2.82,0,0,1,91,71h0a2.81,2.81,0,0,1,2.66-2.94l14.45,2.5A2.81,2.81,0,0,1,110.32,73.89Z"/><path class="cls-11" d="M92.13,45.14a7.81,7.81,0,0,0,2-3.29,1,1,0,0,0,0-.24V36.89a5.1,5.1,0,0,1,.72-2.67A2.19,2.19,0,0,1,96.84,33s7.91,3.45,10.87-3a.87.87,0,0,0-.56-1.21c-.57-.13-1.32-.62-2.14-2a.86.86,0,0,0-.94-.41,3.48,3.48,0,0,1-3.55-1.31.87.87,0,0,0-.65-.28c-1.51,0-6.72.28-9.55,2.33l-.06.05c-.61.5-10.4,8.85.69,18A.89.89,0,0,0,92.13,45.14Z"/><path class="cls-3" d="M94.16,43c0,1.18-.83,1.65-1.85,1.06a4,4,0,0,1-1.84-3.19c0-1.18.82-1.65,1.84-1.06A4.05,4.05,0,0,1,94.16,43Z"/><path class="cls-12" d="M323.34,95.15,284.45,117.6a2.63,2.63,0,0,1-2.36-.09h0c-.7-.4-.77-1-.17-1.37l38.89-22.45a2.63,2.63,0,0,1,2.36.1h0C323.87,94.19,324,94.8,323.34,95.15Z"/><path class="cls-12" d="M324.32,112.37,299.85,126.5a2.63,2.63,0,0,1-2.36-.1h0c-.69-.4-.77-1-.17-1.36l24.47-14.13a2.6,2.6,0,0,1,2.36.1h0C324.85,111.41,324.93,112,324.32,112.37Z"/><path class="cls-12" d="M320.22,102.66l-30.83,17.8a2.66,2.66,0,0,1-2.36-.1h0c-.7-.4-.77-1-.17-1.37l30.83-17.8a2.65,2.65,0,0,1,2.37.1h0C320.75,101.69,320.83,102.31,320.22,102.66Z"/><path class="cls-12" d="M329.22,103.16l-34.89,20.15a2.63,2.63,0,0,1-2.36-.1h0c-.7-.4-.77-1-.17-1.36l34.89-20.15a2.63,2.63,0,0,1,2.36.1h0C329.75,102.2,329.82,102.82,329.22,103.16Z"/><path class="cls-12" d="M295,132.16a9.88,9.88,0,0,1-4.83-1.2l-15.35-8.86a3.75,3.75,0,0,1-2.19-3,2.79,2.79,0,0,1,1.6-2.37l45.26-26.13c2.2-1.27,6.06-1.12,8.59.35L343.4,99.8a3.74,3.74,0,0,1,2.19,3,2.81,2.81,0,0,1-1.6,2.38L298.72,131.3A7.61,7.61,0,0,1,295,132.16ZM323.2,90.47a6.91,6.91,0,0,0-3.37.76l-45.27,26.12a2.11,2.11,0,0,0-1.23,1.74,3,3,0,0,0,1.82,2.37l15.35,8.87c2.29,1.32,5.89,1.47,7.86.34l45.26-26.13a2.08,2.08,0,0,0,1.24-1.74,3.06,3.06,0,0,0-1.83-2.37l-15.35-8.86A9.2,9.2,0,0,0,323.2,90.47Z"/><polygon class="cls-12" points="334.23 139.16 316.96 138.06 317.07 137.47 333.24 138.51 333.79 125.31 350.32 123.52 351 113.21 352.01 113.23 351.31 124.01 334.79 125.8 334.23 139.16"/><polygon class="cls-12" points="355.15 113.92 351.71 110.15 347.78 113.76 355.15 113.92"/><path class="cls-12" d="M319.4,136.39c1.32.76,1.32,2,0,2.75a5.3,5.3,0,0,1-4.78,0c-1.31-.76-1.31-2,0-2.75A5.23,5.23,0,0,1,319.4,136.39Z"/><path class="cls-12" d="M336.12,137.46c1.32.76,1.32,2,0,2.76a5.27,5.27,0,0,1-4.77,0c-1.32-.77-1.32-2,0-2.76A5.27,5.27,0,0,1,336.12,137.46Z"/><path class="cls-12" d="M336.68,124.18c1.31.76,1.31,2,0,2.76a5.3,5.3,0,0,1-4.78,0c-1.32-.76-1.32-2,0-2.76A5.3,5.3,0,0,1,336.68,124.18Z"/><path class="cls-12" d="M353.2,122.38c1.32.77,1.32,2,0,2.76a5.27,5.27,0,0,1-4.77,0c-1.32-.76-1.32-2,0-2.76A5.27,5.27,0,0,1,353.2,122.38Z"/><path class="cls-13" d="M150.69,170.22c47.1-27.2,123.47-27.2,170.57,0,22.18,12.8,33.91,29.35,35.21,46.12,1.45-18.84-10.28-38-35.21-52.35-47.1-27.2-123.47-27.2-170.57,0-24.93,14.39-36.66,33.51-35.21,52.35C116.78,199.57,128.51,183,150.69,170.22Z"/><path class="cls-12" d="M236,287.84c-33.06,0-66.12-7.27-91.29-21.8-24.42-14.1-37.87-32.85-37.87-52.81s13.45-38.71,37.87-52.81c50.33-29.06,132.23-29.06,182.57,0,24.42,14.1,37.87,32.85,37.87,52.81S351.68,251.94,327.26,266l-.09-.16.09.16C302.09,280.57,269,287.84,236,287.84ZM236,139c-33,0-66,7.25-91.1,21.75-24.3,14-37.68,32.67-37.68,52.49s13.38,38.46,37.68,52.49c50.24,29,132,29,182.21,0,24.3-14,37.68-32.67,37.68-52.49s-13.38-38.46-37.68-52.49C302,146.24,269,139,236,139Z"/><ellipse class="cls-14" cx="235.98" cy="213.23" rx="120.62" ry="69.64"/><path class="cls-15" d="M249.18,204.55c7.88,4.94,2.65,14.22-12,21.24l-1,.49c-.35.17-.71.32-1.06.48-15.22,6.69-34,8.43-42.91,4l-.62-.32L147.45,205.8c-1.2-.67-.19-2.12,2.25-3.25h0c7-3.22,15.89-4,19.84-1.84l39.15,21.85c.12.06.23.13.35.18a18.66,18.66,0,0,0,7.06,1.67A47.37,47.37,0,0,0,230.26,223a54.49,54.49,0,0,0,9.65-3.33,33,33,0,0,0,7.91-4.92C252.14,210.93,252.9,207,249.18,204.55Z"/><path class="cls-16" d="M255.52,167.65l-.08,0c-4.59-1.47-11.53-1.29-18.56.32a54.72,54.72,0,0,0-10.43,3.52,33.76,33.76,0,0,0-7.47,4.54c-2.89,2.4-4.36,4.87-4.17,7a4.84,4.84,0,0,0,2.6,3.72l.33.19,30.87,17.22.57.35c3.72,2.45,3,6.38-1.36,10.19a33,33,0,0,1-7.91,4.92,54.49,54.49,0,0,1-9.65,3.33,47.37,47.37,0,0,1-14.16,1.42,18.66,18.66,0,0,1-7.06-1.67c3.59,1.69,10.89,1,16.88-1.56l.61-.28.6-.28c5.64-2.77,7.67-6.38,4.7-8.35a2.63,2.63,0,0,0-.33-.2l-30.87-17.22c-.2-.11-.38-.23-.56-.34-5.95-3.73-4.44-9.92,2.93-15.75a47.09,47.09,0,0,1,8.34-5.16l.69-.34,1-.49,1.06-.48C228.54,166,246.09,164.07,255.52,167.65Z"/><path class="cls-17" d="M257.66,168.63l43.51,24.28c1.55.86.24,2.73-2.91,4.18h0c-6.3,2.89-14.28,3.63-17.83,1.65L240.55,176.5a3.9,3.9,0,0,0-.35-.19c-3.59-1.69-10.88-1-16.87,1.57l-.61.27-.6.28c-5.64,2.77-7.68,6.38-4.71,8.36a4.84,4.84,0,0,1-2.6-3.72c-.19-2.13,1.28-4.6,4.17-7a33.76,33.76,0,0,1,7.47-4.54A54.72,54.72,0,0,1,236.88,168c7-1.61,14-1.79,18.56-.32a13.16,13.16,0,0,1,1.61.62Z"/><path class="cls-18" d="M237.24,254.34l15.61,11.52c-10,4.53-24.51,4-33.52-1.18-3.79-2.19-6.29-5-7.12-8.07Z"/><path class="cls-19" d="M237.24,254.34l3.1-14.51A35.17,35.17,0,0,1,255.15,244c9.82,5.67,9.82,15,0,20.68-.73.42-1.49.81-2.3,1.18Z"/><path class="cls-20" d="M237.24,254.34l-25,2.27c-1.25-4.61,1.4-9.31,7.12-12.61,5.51-3.18,13.27-4.72,21-4.17Z"/><path class="cls-21" d="M219.33,264.68c-3.79-2.19-6.29-5-7.12-8.07v8.23c.83,3.06,3.33,5.89,7.12,8.08,9,5.2,23.49,5.71,33.52,1.17v-8.23C242.82,270.39,228.34,269.89,219.33,264.68Z"/><path class="cls-22" d="M211.92,254.13v.47C211.92,254.44,211.91,254.29,211.92,254.13Z"/><path class="cls-23" d="M255.15,264.68c-.73.42-1.49.81-2.3,1.18v8.23c.81-.36,1.57-.76,2.3-1.17,4.94-2.86,7.39-6.64,7.37-10.41v-8.1C262.49,258.14,260,261.86,255.15,264.68Z"/><path class="cls-24" d="M255.15,264.68c-.73.42-1.49.81-2.3,1.18v8.23c.81-.36,1.57-.76,2.3-1.17,4.94-2.86,7.39-6.64,7.37-10.41v-8.1C262.49,258.14,260,261.86,255.15,264.68Z"/><path class="cls-25" d="M211.92,254.6v7.63a8.62,8.62,0,0,0,.29,2.61v-8.23A8.71,8.71,0,0,1,211.92,254.6Z"/><path class="cls-26" d="M211.92,254.6v7.63a8.62,8.62,0,0,0,.29,2.61v-8.23A8.71,8.71,0,0,1,211.92,254.6Z"/><g class="cls-27"><path class="cls-28" d="M267.59,242.75l9.3-5.36c1.71-1,1.5-2.73-.48-3.87l-2.21-1.27a7.44,7.44,0,0,0-6.7-.28l-9.29,5.36c-1.72,1-1.51,2.73.48,3.87l2.2,1.28A7.43,7.43,0,0,0,267.59,242.75Z"/><path class="cls-28" d="M297.78,214.49l-20.91,12.07c-1.72,1-1.5,2.72.48,3.87l2.21,1.27a7.44,7.44,0,0,0,6.7.28l20.91-12.07c1.71-1,1.5-2.73-.48-3.87l-2.21-1.28A7.43,7.43,0,0,0,297.78,214.49Z"/><polygon class="cls-28" points="270.4 247.97 316.19 221.53 314.06 220.29 268.26 246.73 270.4 247.97"/><polygon class="cls-28" points="273.44 249.72 305.67 231.11 303.53 229.88 271.3 248.49 273.44 249.72"/></g><polygon class="cls-29" points="328.03 216.88 323.86 219.29 301.63 206.46 305.81 204.05 328.03 216.88"/><polygon class="cls-30" points="335.45 212.6 331.28 215 317.62 207.12 321.79 204.71 335.45 212.6"/><polygon class="cls-31" points="342.87 208.31 338.7 210.72 320.6 200.27 324.77 197.86 342.87 208.31"/><path class="cls-12" d="M227.51,147.79h-.73v-7a2.51,2.51,0,0,0-1.25-2.16l-18.89-11a3.23,3.23,0,0,1,0-5.59l20.89-12.2.36.63L207,122.67a2.5,2.5,0,0,0,0,4.33l18.89,11a3.27,3.27,0,0,1,1.61,2.8Z"/><path class="cls-32" d="M323.82,70.8l-75.67,43.69c-2.44,1.41-6.72,1.23-9.53-.39l-19.28-11.23c-2.81-1.62-3.12-4.1-.69-5.5l75.68-43.69c2.43-1.41,6.72-1.23,9.52.39L323.14,65.3C325.94,66.92,326.25,69.4,323.82,70.8Z"/><path class="cls-33" d="M323.82,70.8l-75.67,43.69c-2.44,1.41-6.72,1.23-9.53-.39l-19.28-11.23c-1.57-.9-2.35-2.07-2.33-3.17v5s0,0,0,.05c0,1.12.74,2.31,2.33,3.22l19.28,11.23c2.81,1.62,7.09,1.8,9.53.39l75.67-43.69a2.84,2.84,0,0,0,1.64-2.33V68.52A2.86,2.86,0,0,1,323.82,70.8Z"/><path class="cls-19" d="M308.9,22.11l-14,8.07a4.46,4.46,0,0,1-4-.16L277.5,22.27c-1.18-.68-1.31-1.72-.29-2.3l14-8.08a4.46,4.46,0,0,1,4,.16l13.41,7.75C309.79,20.48,309.92,21.52,308.9,22.11Z"/><path class="cls-24" d="M309.57,72.38V21.29h0a1.33,1.33,0,0,1-.67.82l-14,8.07a3.63,3.63,0,0,1-1.86.4V82a3.63,3.63,0,0,0,1.86-.39l14-8.08A1.13,1.13,0,0,0,309.57,72.38Z"/><path class="cls-34" d="M290.91,30,277.5,22.27a1.75,1.75,0,0,1-1-1.13V72.23c-.1.51.22,1.07,1,1.5l13.41,7.74a4.66,4.66,0,0,0,2.14.56V30.58A4.66,4.66,0,0,1,290.91,30Z"/><path class="cls-35" d="M290.91,30,277.5,22.27a1.75,1.75,0,0,1-1-1.13V72.23c-.1.51.22,1.07,1,1.5l13.41,7.74a4.66,4.66,0,0,0,2.14.56V30.58A4.66,4.66,0,0,1,290.91,30Z"/><path class="cls-18" d="M286.84,52.55l-14,8.08a4.46,4.46,0,0,1-4-.17l-13.42-7.74c-1.17-.68-1.3-1.72-.28-2.31l14-8.07a4.44,4.44,0,0,1,4,.16l13.42,7.75C287.73,50.93,287.86,52,286.84,52.55Z"/><path class="cls-21" d="M287.5,85.08V51.74h0a1.26,1.26,0,0,1-.66.81l-14,8.08A3.65,3.65,0,0,1,271,61V94.73a3.65,3.65,0,0,0,1.86-.39l14-8.08A1.13,1.13,0,0,0,287.5,85.08Z"/><path class="cls-36" d="M268.85,60.46l-13.42-7.74a1.78,1.78,0,0,1-1-1.13V84.94c-.11.5.22,1.06,1,1.49l13.42,7.74a4.54,4.54,0,0,0,2.14.56V61A4.54,4.54,0,0,1,268.85,60.46Z"/><path class="cls-37" d="M268.85,60.46l-13.42-7.74a1.78,1.78,0,0,1-1-1.13V84.94c-.11.5.22,1.06,1,1.49l13.42,7.74a4.54,4.54,0,0,0,2.14.56V61A4.54,4.54,0,0,1,268.85,60.46Z"/><path class="cls-20" d="M265.26,77.82l-14,8.08a4.46,4.46,0,0,1-4-.17L233.86,78c-1.18-.68-1.31-1.72-.29-2.31l14-8.08a4.5,4.5,0,0,1,4,.17L265,75.52C266.15,76.2,266.28,77.23,265.26,77.82Z"/><path class="cls-26" d="M265.93,97.54V77h0a1.25,1.25,0,0,1-.67.81l-14,8.08a3.63,3.63,0,0,1-1.86.39v20.9a3.63,3.63,0,0,0,1.86-.39l14-8.08A1.13,1.13,0,0,0,265.93,97.54Z"/><path class="cls-38" d="M247.27,85.73,233.86,78a1.83,1.83,0,0,1-1-1.13V97.39c-.1.51.23,1.07,1,1.5l13.41,7.74a4.7,4.7,0,0,0,2.14.56V86.29A4.57,4.57,0,0,1,247.27,85.73Z"/><path class="cls-39" d="M247.27,85.73,233.86,78a1.83,1.83,0,0,1-1-1.13V97.39c-.1.51.23,1.07,1,1.5l13.41,7.74a4.7,4.7,0,0,0,2.14.56V86.29A4.57,4.57,0,0,1,247.27,85.73Z"/><path class="cls-32" d="M271.87,325.38c2.64,1.53,2.64,4,0,5.52a10.53,10.53,0,0,1-9.56,0c-2.64-1.52-2.64-4,0-5.52A10.59,10.59,0,0,1,271.87,325.38Z"/><path class="cls-40" d="M271.87,330.9a10.53,10.53,0,0,1-9.56,0,3.36,3.36,0,0,1-2-2.74v4.2a3.35,3.35,0,0,0,2,2.78,10.59,10.59,0,0,0,9.56,0,3.35,3.35,0,0,0,2-2.78v-4.2A3.36,3.36,0,0,1,271.87,330.9Z"/><path class="cls-32" d="M302.36,310.09c2.65,1.52,2.65,4,0,5.52a10.59,10.59,0,0,1-9.56,0c-2.64-1.53-2.64-4,0-5.52A10.53,10.53,0,0,1,302.36,310.09Z"/><path class="cls-41" d="M302.36,315.61a10.59,10.59,0,0,1-9.56,0,3.38,3.38,0,0,1-2-2.74v4.19a3.37,3.37,0,0,0,2,2.79,10.59,10.59,0,0,0,9.56,0,3.35,3.35,0,0,0,2-2.79v-4.19A3.36,3.36,0,0,1,302.36,315.61Z"/><path class="cls-32" d="M331.94,292.88c2.64,1.52,2.64,4,0,5.52a10.59,10.59,0,0,1-9.56,0c-2.64-1.52-2.64-4,0-5.52A10.59,10.59,0,0,1,331.94,292.88Z"/><path class="cls-42" d="M331.94,298.4a10.59,10.59,0,0,1-9.56,0,3.38,3.38,0,0,1-2-2.74v4.2a3.35,3.35,0,0,0,2,2.78,10.59,10.59,0,0,0,9.56,0,3.35,3.35,0,0,0,2-2.78v-4.2A3.38,3.38,0,0,1,331.94,298.4Z"/><path class="cls-12" d="M267.26,329.36a.38.38,0,0,1-.37-.37V314.18a3.23,3.23,0,0,1,1.63-2.81L292,297.83a3.25,3.25,0,0,1,4.87,2.81v12.58a.37.37,0,0,1-.73,0V300.64a2.52,2.52,0,0,0-3.77-2.17L268.88,312a2.54,2.54,0,0,0-1.26,2.18V329A.37.37,0,0,1,267.26,329.36Z"/><path class="cls-12" d="M297.58,313.21a.36.36,0,0,1-.36-.36V296.64a3.25,3.25,0,0,1,1.62-2.81l23.44-13.54a3.26,3.26,0,0,1,4.88,2.82v12.57a.37.37,0,0,1-.74,0V283.11a2.51,2.51,0,0,0-3.77-2.18l-23.44,13.53a2.53,2.53,0,0,0-1.26,2.18v16.21A.36.36,0,0,1,297.58,313.21Z"/><path class="cls-32" d="M181.09,91.4l-75.68,43.69c-2.43,1.41-6.72,1.23-9.52-.39L67.22,117.45c-2.81-1.62-3.12-4.09-.69-5.5l75.68-43.69c2.43-1.4,6.72-1.22,9.53.4L180.4,85.9C183.21,87.52,183.52,90,181.09,91.4Z"/><path class="cls-43" d="M181.09,91.4l-75.68,43.69c-2.43,1.41-6.72,1.23-9.52-.39L67.22,117.45c-1.56-.9-2.35-2.06-2.32-3.16l9.38,44.59v.05c0,1.12.74,2.3,2.33,3.22l19.28,11.23c2.8,1.62,7.09,1.8,9.52.39l75.68-43.69a2.86,2.86,0,0,0,1.64-2.33V89.12A2.86,2.86,0,0,1,181.09,91.4Z"/><path class="cls-44" d="M68.64,132.07l27.25,16.39c2.8,1.62,7.09,1.8,9.52.4l75.68-43.69a2.9,2.9,0,0,0,1.64-2.3v4.55a2.87,2.87,0,0,1-1.64,2.38l-75.68,43.69c-2.43,1.4-6.72,1.22-9.52-.4L69.76,137.37Z"/><path class="cls-32" d="M149.36,83.59l-32.42,18.72a4.57,4.57,0,0,1-4.08-.17L92.62,90.45c-1.21-.69-1.34-1.75-.3-2.36l32.42-18.71a4.51,4.51,0,0,1,4.08.17l20.25,11.68C150.27,81.93,150.4,83,149.36,83.59Z"/><path class="cls-45" d="M149.36,83.59l-32.42,18.72a4.57,4.57,0,0,1-4.08-.17L92.62,90.45a1.66,1.66,0,0,1-1-1.36v18.28a1.65,1.65,0,0,0,1,1.38l20.24,11.69a4.54,4.54,0,0,0,4.08.17l32.42-18.72a1.17,1.17,0,0,0,.7-1V82.61A1.19,1.19,0,0,1,149.36,83.59Z"/><path class="cls-46" d="M123,105.05l20.75-11.92a3.33,3.33,0,0,1,5,2.88v1.06a3.33,3.33,0,0,1-1.67,2.89L126.3,111.87a3.33,3.33,0,0,1-5-2.89v-1A3.35,3.35,0,0,1,123,105.05Z"/><path class="cls-47" d="M121.3,109v-1a3.35,3.35,0,0,1,1.67-2.89l20.75-11.92a3.29,3.29,0,0,1,3.68.23,2.12,2.12,0,0,0-.35-.23L145,91.77a3.29,3.29,0,0,0-3.35,0L120.9,103.68a3.35,3.35,0,0,0-1.67,2.89v1.05a3.3,3.3,0,0,0,1.67,2.88l2,1.36h0A3.32,3.32,0,0,1,121.3,109Z"/><path class="cls-48" d="M146.64,92.92a3.39,3.39,0,0,1,.24,1.25v1a3.34,3.34,0,0,1-1.67,2.89L124.46,110a3.27,3.27,0,0,1-2.91.2,3.32,3.32,0,0,0,4.75,1.64L147.05,100a3.33,3.33,0,0,0,1.67-2.89V96A3.32,3.32,0,0,0,146.64,92.92Z"/><polygon class="cls-49" points="142.96 83.61 119.17 97.3 100.92 87.35 125.27 73.42 142.96 83.61"/><polygon class="cls-50" points="142.96 83.61 146.7 59.76 123.01 73.42 119.17 97.3 142.96 83.61"/><path class="cls-51" d="M161.58,172.47c2.12,1.22,2.12,3.21,0,4.44a8.52,8.52,0,0,1-7.68,0c-2.12-1.23-2.12-3.22,0-4.44A8.45,8.45,0,0,1,161.58,172.47Z"/><path class="cls-51" d="M158.11,174.69h-.74v-4.77a6,6,0,0,0-3-5.21l-12.26-7.09a6.75,6.75,0,0,1-3.38-5.85V119.34a6.05,6.05,0,0,0-3-5.21l-13.53-7.8.37-.64,13.53,7.81a6.79,6.79,0,0,1,3.36,5.84v32.43a6,6,0,0,0,3,5.22l12.27,7.08a6.79,6.79,0,0,1,3.38,5.85Z"/><path class="cls-19" d="M171.26,167.17c2.12,1.23,2.12,3.21,0,4.44a8.54,8.54,0,0,1-7.69,0c-2.12-1.23-2.12-3.21,0-4.44A8.54,8.54,0,0,1,171.26,167.17Z"/><path class="cls-19" d="M167.78,169.39h-.73v-4.76a6,6,0,0,0-3-5.22l-12.27-7.08a6.8,6.8,0,0,1-3.38-5.85V114.05a6,6,0,0,0-3-5.21l-14-8.1.37-.63,14,8.09a6.79,6.79,0,0,1,3.37,5.85v32.43a6,6,0,0,0,3,5.21l12.26,7.08a6.78,6.78,0,0,1,3.38,5.86Z"/><path class="cls-20" d="M180.94,161.87c2.12,1.23,2.12,3.22,0,4.44a8.47,8.47,0,0,1-7.69,0c-2.12-1.22-2.12-3.21,0-4.44A8.54,8.54,0,0,1,180.94,161.87Z"/><path class="cls-20" d="M177.46,164.09h-.73v-4.76a6.05,6.05,0,0,0-3-5.22L161.45,147a6.77,6.77,0,0,1-3.38-5.85V108.75a6,6,0,0,0-3-5.21L140.9,95.32l.36-.63,14.18,8.22a6.77,6.77,0,0,1,3.36,5.84v32.43a6.06,6.06,0,0,0,3,5.22l12.26,7.08a6.77,6.77,0,0,1,3.38,5.85Z"/><path class="cls-52" d="M169.68,94.51,107.2,130.58a6.38,6.38,0,0,1-9.58-5.53V52.55A6.38,6.38,0,0,1,100.81,47L163.3,11a6.38,6.38,0,0,1,9.57,5.53V89A6.4,6.4,0,0,1,169.68,94.51Z"/><path class="cls-53" d="M166.3,19.9,104.19,55.76c-1,.56-1.75,0-1.75-1.32h0a4.2,4.2,0,0,1,1.75-3.34L166.3,15.23c1-.55,1.75,0,1.75,1.33h0A4.18,4.18,0,0,1,166.3,19.9Z"/><path class="cls-54" d="M86.47,162.18h0a2.93,2.93,0,0,1-3.21-2.58l-3-27.94a2.91,2.91,0,0,1,2.58-3.2h0A2.92,2.92,0,0,1,86,131l3,27.93A2.92,2.92,0,0,1,86.47,162.18Z"/><path class="cls-5" d="M69.58,200.54c0,.38.28.72.79,1.05.15.09,0-2.09.49-1.73.15.11,7.16,5.57,11.08,4.56a.83.83,0,0,0,.58-.84v-.88c.06-1-1.42-2.51-3.67-4.7-2.47-2.41-4-3.91-7.74-1.78-1.06.61-1.48,1.07-1.48,1.46Z"/><path class="cls-55" d="M78.85,198c3,2.91,4.62,4.63,3.09,5.52s-4.6-.45-7.75-2.83c-2.75-2.08-6.78-2.33-3.08-4.47S76.38,195.59,78.85,198Z"/><path class="cls-54" d="M75.85,196.61l-.22-26.87-7.43,2.41.07,4.85a32.3,32.3,0,0,0,1.12,11.77s1.27,2.59,1,8.61C70.41,197.38,73.67,199.24,75.85,196.61Z"/><path class="cls-5" d="M78.16,193.49c0,.39.27.72.78,1,.15.1,0-2.09.49-1.72.15.1,7.16,5.56,11.08,4.55a.83.83,0,0,0,.58-.84v-.88c.06-1-1.42-2.51-3.66-4.69-2.47-2.41-4.05-3.92-7.75-1.78-1.05.61-1.48,1.06-1.48,1.45Z"/><path class="cls-55" d="M87.43,191c3,2.91,4.61,4.63,3.08,5.51s-4.6-.45-7.74-2.82c-2.76-2.08-6.78-2.34-3.09-4.47S85,188.55,87.43,191Z"/><path class="cls-54" d="M84.42,189.57l-.21-26.88-8.89,2.88L76.85,170A32.36,32.36,0,0,0,78,181.73s1.27,2.59,1,8.61C79,190.34,82.25,192.19,84.42,189.57Z"/><path class="cls-18" d="M63.61,163.46v9.93s11.63,3.93,22.56-9.93v-9.6Z"/><path class="cls-56" d="M69.14,167.29a.74.74,0,0,0,.37.12c1.95.15,8.95-1.37,16-9.27a3.67,3.67,0,0,0,1-2.27V133.45A3.67,3.67,0,0,0,84.85,130L79.58,127a3.7,3.7,0,0,0-3.76.34l-7.19,4.15a11.72,11.72,0,0,0-5.27,9.15v22.55a1.15,1.15,0,0,0,.5,1.08Z"/><path class="cls-54" d="M93.88,152.51h0A2.92,2.92,0,0,1,90,153.72L65.17,140.61A2.93,2.93,0,0,1,64,136.67h0a2.93,2.93,0,0,1,3.94-1.21l24.78,13.11A2.93,2.93,0,0,1,93.88,152.51Z"/><path class="cls-10" d="M71.17,132.84a1.84,1.84,0,0,0,1.09,1.54,5.8,5.8,0,0,0,5.26,0,1.83,1.83,0,0,0,1.08-1.54V128a1.81,1.81,0,0,0-1.08-1.54,5.8,5.8,0,0,0-5.26,0A1.82,1.82,0,0,0,71.17,128Z"/><path class="cls-57" d="M84.34,117.37,88,131.63a1.67,1.67,0,0,1-2.25,2l-8.45-3.52a1.67,1.67,0,0,1-1-1.86l2.77-14a1.66,1.66,0,0,1,3-.55l2,3.29A1.79,1.79,0,0,1,84.34,117.37Z"/><path class="cls-3" d="M71.47,125.91c0,1.22-.86,1.71-1.91,1.1a4.22,4.22,0,0,1-1.92-3.31c0-1.22.86-1.72,1.92-1.11A4.25,4.25,0,0,1,71.47,125.91Z"/><circle class="cls-54" cx="74.84" cy="120.09" r="10.23"/><path class="cls-57" d="M64.89,121.45s8.65,4.74,12.86-7.59c0,0,2.26,5.21,7.88,4.06,0,0,0-8.12-8.37-9.69C77.26,108.23,62.45,106.75,64.89,121.45Z"/><path class="cls-57" d="M69.65,121.86l3.68,14.26a1.66,1.66,0,0,1-2.25,1.95l-8.46-3.52a1.65,1.65,0,0,1-1-1.86l2.77-14a1.66,1.66,0,0,1,3-.54l2,3.28A1.54,1.54,0,0,1,69.65,121.86Z"/><path class="cls-12" d="M136,273.82l-46.58,26.9a3.18,3.18,0,0,1-2.83-.12h0c-.84-.48-.93-1.22-.21-1.63l46.59-26.9a3.12,3.12,0,0,1,2.83.12h0C136.59,272.67,136.68,273.4,136,273.82Z"/><path class="cls-12" d="M132.22,282.81,95.28,304.13a3.15,3.15,0,0,1-2.83-.11h0c-.83-.49-.92-1.22-.2-1.64l36.93-21.32a3.15,3.15,0,0,1,2.83.11h0C132.85,281.66,132.94,282.39,132.22,282.81Z"/><path class="cls-12" d="M76.63,287.28a.36.36,0,0,0-.32,0A24.71,24.71,0,0,1,70,288.59a.34.34,0,0,0-.17.05h0s0,.06-.07.1c-.16.43-.3.87-.51,1.3a7.94,7.94,0,0,1-1.85,2.42c-.06.05-.1.1,0,.16a16.22,16.22,0,0,0,2.8,1.38c.46.17.93.33,1.4.46h0a22.7,22.7,0,0,0,5.19.84,24.66,24.66,0,0,0,4.21-.11h0a5.11,5.11,0,0,0-.27-4,6,6,0,0,0-.94-1.41h0A10.9,10.9,0,0,0,76.63,287.28Z"/><path class="cls-12" d="M75.43,299.42a18.31,18.31,0,0,1-9-2.15c-2.46-1.41-3.82-3.32-3.82-5.36s1.36-4,3.82-5.37c5-2.85,13-2.85,18,0h0c2.46,1.42,3.81,3.33,3.81,5.37s-1.35,3.95-3.81,5.36A18.38,18.38,0,0,1,75.43,299.42Zm0-14.4a17.72,17.72,0,0,0-8.66,2.07c-2.25,1.3-3.5,3-3.5,4.82s1.25,3.52,3.5,4.82c4.78,2.76,12.55,2.76,17.32,0,2.26-1.3,3.5-3,3.5-4.82s-1.24-3.52-3.5-4.82A17.66,17.66,0,0,0,75.43,285Z"/><path class="cls-12" d="M99.07,276.19,98,275.55a5.78,5.78,0,0,0-3.24-.7,5.49,5.49,0,0,0-2,.46l-.28.14-.26.15a1.43,1.43,0,0,0-.24.16c-.95.77-1.07,1.58-.37,2.43a3,3,0,0,0,.79.61l1.09.62c-.75.47-.73,1.19,0,1.64l4.63,2.68a3.24,3.24,0,0,0,2.91,0l5.46-3.15c.81-.47.81-1.22,0-1.68l-4.63-2.68A3.21,3.21,0,0,0,99.07,276.19Zm-5.38.51a2.12,2.12,0,0,1,1.68-.48,2,2,0,0,1,.8.23l1.2.71-2.22,1.28L94,277.77C93.47,277.48,93.37,277.05,93.69,276.7Zm7.44,3.22,1.56.91c.33.18.33.48,0,.67a1.31,1.31,0,0,1-1.16,0l-1.57-.91a2.92,2.92,0,0,1-1.91-.24c-.72-.42-.73-1.08,0-1.5a2.94,2.94,0,0,1,2.62,0C101.18,279.14,101.3,279.58,101.13,279.92Z"/><path class="cls-12" d="M98.05,286.36a18.31,18.31,0,0,1-9-2.15c-2.46-1.42-3.81-3.32-3.81-5.36s1.35-4,3.81-5.37c5-2.85,13-2.85,18,0,2.46,1.42,3.81,3.33,3.81,5.37s-1.35,3.94-3.81,5.36A18.35,18.35,0,0,1,98.05,286.36Zm0-14.4A17.72,17.72,0,0,0,89.39,274c-2.25,1.3-3.49,3-3.49,4.82s1.24,3.52,3.49,4.82c4.78,2.76,12.55,2.76,17.33,0,2.25-1.3,3.49-3,3.49-4.82s-1.24-3.52-3.49-4.82A17.73,17.73,0,0,0,98.05,272Z"/><path class="cls-12" d="M119.75,262.78l-1.56-.25a.45.45,0,0,0-.46.19l-.25.52h0a8.53,8.53,0,0,0-1.57.11l-.47-.47a.55.55,0,0,0-.51-.08l-1.4.47c-.18.06-.24.19-.14.29l.46.47h0a3.29,3.29,0,0,0-1,.71l-.9-.14a.49.49,0,0,0-.48.16l-.42.9c-.06.12.1.19.3.23l.9.14h0a1.63,1.63,0,0,0,.19.92l-.82.29c-.18.06-.24.19-.14.3l.81.81a.55.55,0,0,0,.51.08l.81-.27h0a5,5,0,0,0,1.25.56l-.24.52c0,.12.06.2.26.23l1.56.25c.2,0,.35,0,.4-.13l.25-.52h0a7.9,7.9,0,0,0,1.58-.11l.49.47a.58.58,0,0,0,.51.08l1.41-.47c.18-.06.24-.2.14-.3l-.46-.47v0a3.42,3.42,0,0,0,1-.74l.9.14c.2,0,.36,0,.42-.11l.42-.9c0-.11,0-.24-.24-.27l-.9-.14h0a1.48,1.48,0,0,0-.2-.9l.8-.26c.18-.06.24-.19.14-.3l-.81-.81a.55.55,0,0,0-.51-.08l-.82.27h0a4.94,4.94,0,0,0-1.26-.57l.24-.52C120,263,120,262.81,119.75,262.78ZM115,266.31a.76.76,0,0,1,.06-.51,1.39,1.39,0,0,1,.53-.55l.08-.05,0,0,.08-.05.09,0,0,0,.19-.07,0,0,.09,0h0l.11,0h0l.07,0h.09l.1,0,.15,0h.47a3.92,3.92,0,0,1,.59.05,2.86,2.86,0,0,1,.91.28l.13.07.08,0,.07.05.16.13.06.06.08.09,0,.05,0,0,0,.07,0,.09s0,0,0,.06a.77.77,0,0,1,0,.63,1.32,1.32,0,0,1-.41.48l-.08,0-.23.14-.09,0-.05,0-.13.06a3.85,3.85,0,0,1-1.87.16,3.2,3.2,0,0,1-.84-.24,1.87,1.87,0,0,1-.28-.16l-.09-.05a.93.93,0,0,1-.18-.16,1.1,1.1,0,0,1-.15-.16l0,0a.21.21,0,0,1,0-.06l0-.07,0-.12s0,0,0,0S115,266.33,115,266.31Z"/><path class="cls-12" d="M127.29,263.13l-1,.07c-.13,0-.21.1-.2.17l.08.34h0a4.41,4.41,0,0,0-.87.28l-.46-.21a.38.38,0,0,0-.33,0l-.63.46c-.08.06-.06.14,0,.19l.46.21h0a1.15,1.15,0,0,0-.27.54l-.58,0c-.13,0-.23.09-.21.16l.12.58c0,.08.14.1.27.09l.58,0h0a1.59,1.59,0,0,0,.49.51l-.35.28c-.08.06-.06.15,0,.19l.8.36a.35.35,0,0,0,.33,0l.36-.27h0a4.3,4.3,0,0,0,1,.15l.08.34c0,.07.11.11.24.1l1-.07c.13,0,.2-.06.18-.13l-.07-.34h0a3.71,3.71,0,0,0,.87-.28l.48.2a.35.35,0,0,0,.33,0l.62-.47c.08-.05.06-.14,0-.19l-.46-.21h0a1.22,1.22,0,0,0,.27-.56l.58-.05c.13,0,.21,0,.2-.11l-.13-.59a.23.23,0,0,0-.25-.12l-.58,0h0a1.49,1.49,0,0,0-.48-.49l.36-.27c.08-.05.06-.14,0-.19l-.81-.36a.38.38,0,0,0-.33,0l-.36.26h0a4.46,4.46,0,0,0-1-.16l-.07-.33A.2.2,0,0,0,127.29,263.13Zm-1.31,2.7a.56.56,0,0,1-.1-.7l0,0v0l0,0,0,0h0a.46.46,0,0,1,.07-.07l0,0,0,0h0l0,0,0,0,0,0,0,0,0,0,.08,0,0,0,.06,0,.1,0h.06a1.93,1.93,0,0,1,.36-.06,2.74,2.74,0,0,1,.65,0l.1,0,.06,0,.06,0,.15.05.06,0,.08,0,0,0,0,0,0,0,.07,0,0,0a.63.63,0,0,1,.24.37.47.47,0,0,1,0,.33s0,0,0,0a.44.44,0,0,1-.08.11l0,0v0l-.06.05a1.82,1.82,0,0,1-1,.35,1.86,1.86,0,0,1-.58,0l-.23-.05-.07,0-.18-.06-.15-.08h0l0,0,0,0-.08-.07,0,0Z"/><path class="cls-12" d="M120.68,273.3a18.32,18.32,0,0,1-9-2.15c-2.46-1.42-3.81-3.32-3.81-5.36s1.35-4,3.81-5.37c5-2.86,13-2.85,18,0h0c2.46,1.42,3.81,3.33,3.81,5.37s-1.35,3.94-3.81,5.36A18.31,18.31,0,0,1,120.68,273.3Zm0-14.4A17.73,17.73,0,0,0,112,261c-2.25,1.3-3.49,3-3.49,4.82s1.24,3.52,3.49,4.82c4.78,2.76,12.55,2.76,17.33,0,2.25-1.3,3.49-3,3.49-4.82s-1.24-3.52-3.49-4.82h0A17.72,17.72,0,0,0,120.68,258.9Z"/><path class="cls-12" d="M159.35,278.13a.37.37,0,0,1-.37-.37V244L72.64,193.89v32.68a.37.37,0,1,1-.73,0V193.25a.38.38,0,0,1,.18-.32.38.38,0,0,1,.37,0l87.07,50.48a.35.35,0,0,1,.18.31v34A.37.37,0,0,1,159.35,278.13Z"/><polygon class="cls-58" points="72.27 193.25 159.37 243.73 159.37 277.76 72.27 226.57 72.27 193.25"/><path class="cls-32" d="M89.74,231.63l-15.42,8.9a4.92,4.92,0,0,1-4.41-.18l-14.79-8.54c-1.29-.75-1.44-1.89-.31-2.54l15.42-8.9a4.9,4.9,0,0,1,4.4.18l14.79,8.54C90.72,229.84,90.86,231,89.74,231.63Z"/><path class="cls-59" d="M90.48,261V230.73h0a1.41,1.41,0,0,1-.74.9l-15.42,8.9a4,4,0,0,1-2,.44v30.66a4,4,0,0,0,2-.43l15.42-8.91A1.24,1.24,0,0,0,90.48,261Z"/><path class="cls-60" d="M69.91,240.35l-14.79-8.54a2,2,0,0,1-1-1.24v30.26c-.11.56.25,1.18,1,1.65L69.91,271a5.09,5.09,0,0,0,2.36.62V241A5.09,5.09,0,0,1,69.91,240.35Z"/><path class="cls-61" d="M69.91,240.35l-14.79-8.54a2,2,0,0,1-1-1.24v30.26c-.11.56.25,1.18,1,1.65L69.91,271a5.09,5.09,0,0,0,2.36.62V241A5.09,5.09,0,0,1,69.91,240.35Z"/><polygon class="cls-28" points="68.35 246.09 69.54 246.77 69.54 248.15 68.35 247.46 68.35 246.09"/><polygon class="cls-28" points="65.92 244.68 67.11 245.37 67.11 246.74 65.92 246.06 65.92 244.68"/><polygon class="cls-28" points="63.48 243.28 64.67 243.97 64.67 245.34 63.48 244.65 63.48 243.28"/><polygon class="cls-28" points="61.05 241.87 62.24 242.56 62.24 243.94 61.05 243.25 61.05 241.87"/><polygon class="cls-28" points="58.62 240.47 59.81 241.16 59.81 242.53 58.62 241.84 58.62 240.47"/><polygon class="cls-28" points="56.19 239.07 57.38 239.75 57.38 241.13 56.19 240.44 56.19 239.07"/><polygon class="cls-28" points="63.33 241.74 69.54 245.32 69.54 246.01 63.33 242.43 63.33 241.74"/><polygon class="cls-28" points="56.19 237.62 62.25 241.12 62.25 241.81 56.19 238.31 56.19 237.62"/><polygon class="cls-28" points="65.55 246.66 68.83 248.56 68.83 249.1 65.55 247.21 65.55 246.66"/><polygon class="cls-28" points="61.22 244.16 64.5 246.06 64.5 246.6 61.22 244.71 61.22 244.16"/><polygon class="cls-28" points="56.9 241.66 60.17 243.56 60.17 244.1 56.9 242.21 56.9 241.66"/><path class="cls-62" d="M85.94,253.46a10.08,10.08,0,0,1-4.57,7.91c-2.52,1.46-4.57.28-4.57-2.63a10.08,10.08,0,0,1,4.57-7.91C83.89,249.37,85.94,250.55,85.94,253.46Z"/><path class="cls-63" d="M83.21,250.19a4.28,4.28,0,0,1,.39,1.9A10.14,10.14,0,0,1,79,260a4.32,4.32,0,0,1-1.85.61c.71,1.46,2.32,1.83,4.2.75A10.16,10.16,0,0,0,86,253.45C86,251.28,84.83,250.08,83.21,250.19Z"/><path class="cls-28" d="M77.05,223.81c2.64,1.53,2.64,4,0,5.52a10.53,10.53,0,0,1-9.56,0c-2.64-1.52-2.64-4,0-5.52A10.59,10.59,0,0,1,77.05,223.81Z"/><path class="cls-64" d="M77.05,229.33a10.53,10.53,0,0,1-9.56,0,3.36,3.36,0,0,1-2-2.73v4.19a3.36,3.36,0,0,0,2,2.78,10.53,10.53,0,0,0,9.56,0,3.34,3.34,0,0,0,2-2.78V226.6A3.34,3.34,0,0,1,77.05,229.33Z"/><path class="cls-12" d="M159.52,285.57l-.36-.63,29.05-16.34a2.86,2.86,0,0,1,4.25,2.49v.53h-.74v-.53a2.11,2.11,0,0,0-3.15-1.85Z"/><path class="cls-32" d="M176.81,282.16l-15.42,8.9a4.92,4.92,0,0,1-4.41-.18l-14.78-8.54c-1.3-.75-1.44-1.89-.32-2.54l15.42-8.9a4.92,4.92,0,0,1,4.41.18l14.78,8.54C177.79,280.37,177.93,281.51,176.81,282.16Z"/><path class="cls-65" d="M177.55,311.53V281.26h0a1.4,1.4,0,0,1-.74.9l-15.42,8.9a4,4,0,0,1-2,.44v30.66a4,4,0,0,0,2-.43l15.42-8.91A1.23,1.23,0,0,0,177.55,311.53Z"/><path class="cls-66" d="M157,290.88l-14.78-8.54a2,2,0,0,1-1.06-1.24v30.26c-.11.56.25,1.18,1.06,1.65L157,321.54a5.12,5.12,0,0,0,2.36.62V291.5A5.12,5.12,0,0,1,157,290.88Z"/><path class="cls-67" d="M157,290.88l-14.78-8.54a2,2,0,0,1-1.06-1.24v30.26c-.11.56.25,1.18,1.06,1.65L157,321.54a5.12,5.12,0,0,0,2.36.62V291.5A5.12,5.12,0,0,1,157,290.88Z"/><polygon class="cls-28" points="155.72 296.36 156.91 297.04 156.91 298.42 155.72 297.73 155.72 296.36"/><polygon class="cls-28" points="153.29 294.95 154.48 295.64 154.48 297.01 153.29 296.33 153.29 294.95"/><polygon class="cls-28" points="150.85 293.55 152.04 294.24 152.04 295.61 150.85 294.92 150.85 293.55"/><polygon class="cls-28" points="148.42 292.14 149.61 292.83 149.61 294.2 148.42 293.52 148.42 292.14"/><polygon class="cls-28" points="145.99 290.74 147.18 291.43 147.18 292.8 145.99 292.11 145.99 290.74"/><polygon class="cls-28" points="143.56 289.34 144.75 290.02 144.75 291.4 143.56 290.71 143.56 289.34"/><polygon class="cls-28" points="150.7 292.01 156.91 295.6 156.91 296.29 150.7 292.7 150.7 292.01"/><polygon class="cls-28" points="143.56 287.89 149.62 291.39 149.62 292.08 143.56 288.58 143.56 287.89"/><polygon class="cls-28" points="152.92 296.93 156.2 298.83 156.2 299.37 152.92 297.48 152.92 296.93"/><polygon class="cls-28" points="148.59 294.43 151.87 296.33 151.87 296.87 148.59 294.98 148.59 294.43"/><polygon class="cls-28" points="144.26 291.94 147.54 293.83 147.54 294.37 144.26 292.48 144.26 291.94"/><path class="cls-62" d="M173.31,303.73a10.08,10.08,0,0,1-4.57,7.91c-2.52,1.46-4.57.28-4.57-2.63a10.08,10.08,0,0,1,4.57-7.91C171.26,299.64,173.31,300.82,173.31,303.73Z"/><path class="cls-68" d="M170.58,300.46a4.28,4.28,0,0,1,.4,1.9,10.15,10.15,0,0,1-4.59,7.95,4.32,4.32,0,0,1-1.85.61c.71,1.46,2.32,1.83,4.2.75a10.15,10.15,0,0,0,4.59-7.95C173.33,301.55,172.2,300.35,170.58,300.46Z"/><path class="cls-28" d="M164.15,275c2.64,1.53,2.64,4,0,5.52a10.53,10.53,0,0,1-9.56,0c-2.64-1.52-2.64-4,0-5.52A10.59,10.59,0,0,1,164.15,275Z"/><path class="cls-69" d="M164.15,280.52a10.53,10.53,0,0,1-9.56,0,3.36,3.36,0,0,1-2-2.74V282a3.35,3.35,0,0,0,2,2.78,10.59,10.59,0,0,0,9.56,0,3.35,3.35,0,0,0,2-2.78v-4.2A3.36,3.36,0,0,1,164.15,280.52Z"/><path class="cls-3" d="M216.64,41.37h0A2.49,2.49,0,0,0,218,44.59l18,7.13a2.47,2.47,0,0,0,3.21-1.38h0a2.47,2.47,0,0,0-1.39-3.21L219.86,40A2.49,2.49,0,0,0,216.64,41.37Z"/><path class="cls-70" d="M235.48,44.74l5.8,2.31a3.84,3.84,0,0,1,2.14,5h0a3.84,3.84,0,0,1-5,2.14l-5.79-2.3S230.36,48.05,235.48,44.74Z"/><path class="cls-71" d="M246.76,76.36a1.64,1.64,0,0,1-.56.52l-13,7.45c-1.42.81-3.42,0-4.44-1.77h0c-1-1.79-.71-3.91.71-4.73l15-8.57a.92.92,0,0,1,1.11.13C246.63,70.42,248.87,73.06,246.76,76.36Z"/><path class="cls-72" d="M255.38,80.77a1.67,1.67,0,0,1-.56.53l-13,7.45c-1.42.81-3.42,0-4.44-1.77h0c-1-1.79-.71-3.92.71-4.73l15-8.58a1,1,0,0,1,1.11.13C255.25,74.83,257.49,77.48,255.38,80.77Z"/><path class="cls-5" d="M235,103.18c.1,1.08-2.48,1.75-4.65,3-3,1.75-6.26,2.69-7.81,1.8a1,1,0,0,1-.59-.85v-1.77c-.05-1,1.44-2.53,3.7-4.73,2.49-2.43,4.08-3.95,7.81-1.8,1.06.62,1.49,1.08,1.5,1.47Z"/><path class="cls-6" d="M225.67,100.63c-3,2.93-4.66,4.66-3.11,5.56s4.64-.45,7.81-2.85c2.78-2.1,6.83-2.36,3.11-4.51S228.16,98.2,225.67,100.63Z"/><path class="cls-71" d="M228.08,98.5a1.62,1.62,0,0,1-.17-.75V80.33c0-1.63,1.68-3,3.74-3h0c2.06,0,3.75,1.34,3.75,3V100a.94.94,0,0,1-.67.9C233.3,101.34,229.89,102,228.08,98.5Z"/><path class="cls-73" d="M254.09,82.29a.72.72,0,0,1-.32.11c-1.66.13-7.61-1.17-13.57-7.88a3.16,3.16,0,0,1-.81-1.93V53.54a3.14,3.14,0,0,1,1.34-2.91L245.21,48a3.14,3.14,0,0,1,3.19.3l6.11,3.52A10,10,0,0,1,259,59.6V78.76a1,1,0,0,1-.44.92Z"/><path class="cls-3" d="M256.89,84.07h0a2.48,2.48,0,0,0,2.48-2.47V62.27a2.48,2.48,0,0,0-2.48-2.47h0a2.48,2.48,0,0,0-2.47,2.47V81.6A2.48,2.48,0,0,0,256.89,84.07Z"/><path class="cls-70" d="M253.07,65.32V59.08a3.83,3.83,0,0,1,3.82-3.82h0a3.83,3.83,0,0,1,3.83,3.82v6.24S258,68.86,253.07,65.32Z"/><path class="cls-5" d="M243.94,107.13c.11,1.08-2.47,1.75-4.64,3-3,1.74-6.26,2.69-7.81,1.8a1,1,0,0,1-.59-.85v-1.77c-.06-1,1.43-2.53,3.7-4.74,2.49-2.43,4.08-3.94,7.81-1.79,1.06.61,1.49,1.07,1.49,1.47Z"/><path class="cls-6" d="M234.6,104.57c-3,2.94-4.66,4.67-3.11,5.56s4.64-.45,7.81-2.84c2.77-2.1,6.83-2.36,3.11-4.51S237.09,102.14,234.6,104.57Z"/><path class="cls-72" d="M237,102.44a1.63,1.63,0,0,1-.18-.75V84.28c0-1.64,1.69-3,3.75-3h0c2.06,0,3.74,1.33,3.74,3V104a.94.94,0,0,1-.66.91C242.22,105.29,238.81,105.91,237,102.44Z"/><path class="cls-74" d="M253.41,53a1.56,1.56,0,0,1-.93,1.31,4.94,4.94,0,0,1-4.46,0,1.58,1.58,0,0,1-.93-1.31V48.87a1.56,1.56,0,0,1,.93-1.31,4.87,4.87,0,0,1,4.46,0,1.55,1.55,0,0,1,.93,1.31Z"/><circle class="cls-75" cx="250.17" cy="42.24" r="8.7"/><path class="cls-76" d="M257.42,32c7.43,2.55,3.74,13.41-1.67,17.32-2.64-1.44.58-4-3-2.23-.72-3.49.89-2.43-.08-6.83-3.78,2-11.14-.41-12.28-4.06,1.32-.58,2.7-4.32,5.77-5.69C250.1,28.7,255.17,29.48,257.42,32Z"/><path class="cls-75" d="M253.07,47.13c0,1,.73,1.46,1.63.94a3.6,3.6,0,0,0,1.63-2.82c0-1-.73-1.46-1.63-.94A3.6,3.6,0,0,0,253.07,47.13Z"/><path class="cls-51" d="M241.17,45a6,6,0,0,0,2.72,4.73c1.51.86,2.73.16,2.73-1.58a6,6,0,0,0-2.73-4.72C242.39,42.6,241.17,43.3,241.17,45Zm.62-.49c0-.48.94-.32,2.1.35S246,46.5,246,47s-.94.32-2.1-.35S241.79,45,241.79,44.55Z"/><path class="cls-51" d="M253,42.62s-2,5.75-6.74,4.2v2.41s4.8,1.92,6.5-2.18C252.72,47.05,253.69,42.51,253,42.62Z"/><path d="M358.28,262.35c-.06,1.12,1.63,2.69,4.21,4.18,3.42,2,4.64,4.49,8.87,2,1.22-.7,1.72-1.26,1.75-1.74V264.2c.12-1.23-2.82-2-5.28-3.41-3.43-2-7.12-3.06-8.87-2a1.16,1.16,0,0,0-.68,1Z"/><path class="cls-77" d="M362.49,263.87c-3.43-2-5.29-4.11-3.53-5.12s5.44.06,8.87,2,7.77,2.68,3.53,5.12S365.91,265.85,362.49,263.87Z"/><path d="M367.81,255.79c-.07,1.12,1.63,2.69,4.2,4.18,3.43,2,4.64,4.49,8.88,2,1.21-.7,1.72-1.26,1.75-1.74v-2.64c.12-1.22-2.82-2-5.28-3.4-3.43-2-7.12-3.06-8.88-2a1.13,1.13,0,0,0-.67,1Z"/><path class="cls-77" d="M372,257.31c-3.42-2-5.29-4.11-3.53-5.12s5.45.06,8.88,2,7.76,2.67,3.53,5.12S375.44,259.29,372,257.31Z"/><path class="cls-54" d="M350.86,202.18h0a2.83,2.83,0,0,1,3.05-2.55l21.88,2a2.82,2.82,0,0,1,2.55,3h0a2.83,2.83,0,0,1-3,2.56l-21.88-2A2.81,2.81,0,0,1,350.86,202.18Z"/><path class="cls-12" d="M371.71,208.41l7.05.63a4.36,4.36,0,0,0,4.72-3.95h0a4.36,4.36,0,0,0-3.94-4.72l-7.06-.63S368.2,202.43,371.71,208.41Z"/><path class="cls-57" d="M373,263a1.77,1.77,0,0,0,.2-.85V232.76c0-1.86-1.92-3.38-4.26-3.38h0c-2.34,0-4.26,1.52-4.26,3.38v31.95a1.08,1.08,0,0,0,.76,1C367.06,266.23,370.94,266.94,373,263Z"/><path class="cls-78" d="M382.21,256.2a1.92,1.92,0,0,0,.19-.85V226c0-1.86-1.91-3.38-4.25-3.38h0c-2.35,0-4.26,1.52-4.26,3.38v32a1.06,1.06,0,0,0,.76,1C376.28,259.44,380.15,260.14,382.21,256.2Z"/><path class="cls-79" d="M366.08,238a.7.7,0,0,0,.36.12c1.88.15,8.65-1.33,15.42-9a3.53,3.53,0,0,0,.92-2.19V205.35a3.56,3.56,0,0,0-1.52-3.3l-5.1-3a3.54,3.54,0,0,0-3.62.33l-7,4a11.32,11.32,0,0,0-5.1,8.83V234a1.1,1.1,0,0,0,.5,1Z"/><path class="cls-80" d="M368.05,204.76a1.75,1.75,0,0,0,1.05,1.49,5.59,5.59,0,0,0,5.07,0,1.75,1.75,0,0,0,1.05-1.49V200a1.77,1.77,0,0,0-1.05-1.49,5.59,5.59,0,0,0-5.07,0,1.77,1.77,0,0,0-1.05,1.49Z"/><circle class="cls-54" cx="371.63" cy="192.52" r="9.89" transform="translate(-45.48 158.05) rotate(-22.66)"/><path class="cls-54" d="M359.92,240.63h0a2.82,2.82,0,0,1-2.47-3.12l3-21.22a2.82,2.82,0,0,1,3.12-2.47h0a2.82,2.82,0,0,1,2.47,3.11l-3,21.22A2.82,2.82,0,0,1,359.92,240.63Z"/><path class="cls-12" d="M367.15,220.55l.81-7a4.36,4.36,0,0,0-3.83-4.82h0a4.36,4.36,0,0,0-4.81,3.82l-.81,7S361.09,223.9,367.15,220.55Z"/><path class="cls-81" d="M377.21,201.53c-3.12,1.82-5.5.44-6.35-.88-2.13-3.31-2.49-1.1-3.76-2.66-1.66-2.73-1.29-6.47-3.6-8.19-3.32-2.47-2.41-7.4,6.24-9.61,11.62-3,16.2,11.68,8.94,20.15A4.49,4.49,0,0,1,377.21,201.53Z"/><path class="cls-54" d="M368.18,198.4c-.83.84-1.75.59-2.06-.55a4,4,0,0,1,1-3.57,1.13,1.13,0,0,1,2.06.55A4.08,4.08,0,0,1,368.18,198.4Z"/><path class="cls-54" d="M360,131.29h0a2.6,2.6,0,0,0,2.89-2.27L366,104.1a2.61,2.61,0,0,0-2.27-2.9h0a2.61,2.61,0,0,0-2.9,2.27l-3,24.92A2.6,2.6,0,0,0,360,131.29Z"/><path class="cls-5" d="M375.24,166.42c0,.35-.25.65-.71.94-.13.08,0-1.87-.43-1.54-.13.09-6.4,5-9.9,4.07a.74.74,0,0,1-.52-.75v-.79c-.05-.89,1.27-2.24,3.27-4.19,2.21-2.16,3.62-3.5,6.92-1.59.95.54,1.33,1,1.33,1.3Z"/><path class="cls-82" d="M367,164.16c-2.67,2.6-4.12,4.13-2.75,4.93s4.11-.4,6.92-2.53c2.46-1.86,6.06-2.09,2.75-4S369.16,162,367,164.16Z"/><path class="cls-54" d="M369.64,162.91l.19-24,7.94,2.57-1.36,3.91a28.86,28.86,0,0,1-1,10.53s-1.14,2.31-.91,7.69C374.5,163.6,371.58,165.26,369.64,162.91Z"/><path class="cls-5" d="M367.58,160.13c0,.34-.25.64-.71.93-.13.09,0-1.86-.44-1.54-.13.1-6.39,5-9.89,4.08a.75.75,0,0,1-.53-.76v-.78c-.05-.89,1.28-2.25,3.28-4.2,2.21-2.15,3.62-3.5,6.92-1.59,1,.54,1.32.95,1.33,1.3Z"/><path class="cls-82" d="M359.29,157.86c-2.67,2.6-4.13,4.14-2.75,4.93s4.11-.4,6.92-2.52c2.46-1.86,6.05-2.09,2.75-4S361.5,155.71,359.29,157.86Z"/><path class="cls-54" d="M362,156.62l.2-24,7.94,2.57-1.36,3.92a28.93,28.93,0,0,1-1,10.52s-1.13,2.31-.9,7.7C366.84,157.31,363.92,159,362,156.62Z"/><path class="cls-83" d="M380.58,133.29v8.87s-10.4,3.51-20.17-8.87V124.7Z"/><path class="cls-83" d="M375.64,136.71a.76.76,0,0,1-.33.11c-1.75.13-8-1.23-14.27-8.29a3.25,3.25,0,0,1-.85-2v-20a3.31,3.31,0,0,1,1.4-3.06l4.72-2.75a3.3,3.3,0,0,1,3.35.31l6.43,3.71a10.48,10.48,0,0,1,4.71,8.17V133a1,1,0,0,1-.45,1Z"/><path class="cls-80" d="M373.82,105.92a1.64,1.64,0,0,1-1,1.37,5.17,5.17,0,0,1-4.69,0,1.63,1.63,0,0,1-1-1.37v-4.37a1.63,1.63,0,0,1,1-1.38,5.17,5.17,0,0,1,4.69,0,1.64,1.64,0,0,1,1,1.38Z"/><path class="cls-54" d="M378.59,138.53h0a2.61,2.61,0,0,0,2.6-2.6V110.87a2.61,2.61,0,0,0-2.6-2.6h0a2.61,2.61,0,0,0-2.6,2.6v25.06A2.61,2.61,0,0,0,378.59,138.53Z"/><path class="cls-3" d="M373.55,99.72c0,1.09.77,1.54,1.71,1a3.75,3.75,0,0,0,1.71-3c0-1.09-.76-1.53-1.71-1A3.8,3.8,0,0,0,373.55,99.72Z"/><path class="cls-84" d="M364.64,111.49s-8.85-8-3.45-22.35L365.33,104Z"/><circle class="cls-54" cx="370.54" cy="94.52" r="9.15" transform="translate(-11.8 87.27) rotate(-13.22)"/><path class="cls-84" d="M367.83,111.49s6.8-7.5,2.08-21.38L361.44,93s-2.91-7.22,6.67-9.3c0,0,6.39-1.39,8.61,3.89,0,0,5.13.41,3.19,11C379.91,98.58,379.63,108.57,367.83,111.49Z"/><path class="cls-85" d="M447.73,153.29q-7.55,0-11.49-3.82t-3.95-11.1V113.82H439v24.05q0,4.81,2.36,7.45a8.33,8.33,0,0,0,6.56,2.63,8.5,8.5,0,0,0,6.8-2.73q2.34-2.73,2.34-7.68V113.82h6.69v24.11q0,7.42-4.13,11.39T447.73,153.29Z"/><path class="cls-86" d="M490.73,152.73V136.91c0-2.88-.44-4.94-1.34-6.19a4.84,4.84,0,0,0-4.24-1.88,5.77,5.77,0,0,0-4.9,2.4,10.73,10.73,0,0,0-1.78,6.52v15h-6.35V130.94c0-2.19-.09-4.36-.25-6.52h6.05c.2,2.76.3,4.59.3,5.47h.11a11.9,11.9,0,0,1,3.79-4.61,9.77,9.77,0,0,1,5.55-1.44q4.72,0,7.08,2.79c1.58,1.86,2.36,4.73,2.36,8.62v17.48Z"/><path class="cls-87" d="M526.64,152.73h-6.13l-.22-4.47a8.93,8.93,0,0,1-3.4,3.89,9.72,9.72,0,0,1-4.89,1.14q-4.37,0-6.67-2.27a8.42,8.42,0,0,1-2.31-6.3,7.91,7.91,0,0,1,3.15-6.76c2.1-1.57,5.2-2.42,9.28-2.55l4.84-.16v-.88a8.3,8.3,0,0,0-1.07-4.77,4.14,4.14,0,0,0-3.6-1.48,5.24,5.24,0,0,0-3.3.85,4.38,4.38,0,0,0-1.45,2.61l-6.13-1a7.67,7.67,0,0,1,3.46-5.19,14.74,14.74,0,0,1,7.5-1.58c3.78,0,6.54.89,8.3,2.68s2.64,4.56,2.64,8.31Zm-12.71-3.92a5.73,5.73,0,0,0,4.67-2.06,8,8,0,0,0,1.72-5.29V138.9l-3,.11q-4,.18-5.84,1.43a4.42,4.42,0,0,0-1.78,3.9Q509.68,148.81,513.93,148.81Z"/><path class="cls-88" d="M562.58,141.8a9.43,9.43,0,0,1-3.87,8.07q-3.87,2.87-10.8,2.86H535.29V113.82h11q14.06,0,14.06,9.47a8.87,8.87,0,0,1-1.93,5.83,9.61,9.61,0,0,1-5.47,3.15,11.41,11.41,0,0,1,7.11,3A8.83,8.83,0,0,1,562.58,141.8Zm-9-17.63a4.75,4.75,0,0,0-1.89-4.17,10.13,10.13,0,0,0-5.76-1.32H542v11.46h4a9,9,0,0,0,5.66-1.53A5.33,5.33,0,0,0,553.57,124.17Zm2.24,17a5.37,5.37,0,0,0-2.39-4.76,11.85,11.85,0,0,0-6.7-1.62H542v13.09h5.11q4.39,0,6.54-1.72A6,6,0,0,0,555.81,141.16Z"/><path class="cls-89" d="M596,138.51q0,6.93-3.85,10.85t-10.81,3.93q-6.75,0-10.55-4T567,138.51q0-6.93,3.83-10.8t10.7-3.87q7.11,0,10.8,3.77T596,138.51Zm-6.65,0q0-10-7.71-10-8,0-8,10c0,3.26.66,5.75,2,7.48a6.71,6.71,0,0,0,5.69,2.6Q589.37,148.59,589.37,138.51Z"/><path class="cls-90" d="M629.81,138.51q0,6.93-3.86,10.85t-10.81,3.93q-6.74,0-10.55-4t-3.81-10.8q0-6.93,3.82-10.8t10.7-3.87q7.11,0,10.8,3.77T629.81,138.51Zm-6.66,0q0-10-7.71-10-8,0-8,10c0,3.26.66,5.75,2,7.48a6.71,6.71,0,0,0,5.69,2.6Q623.15,148.59,623.15,138.51Z"/><path class="cls-91" d="M644.75,153.23a7.15,7.15,0,0,1-5.24-1.89,7.28,7.28,0,0,1-1.92-5.43V129h-4.17v-4.61h4.26l2-6.85h4.23v6.85h6.82V129h-6.82v15.28q0,4.2,3.56,4.2a19.8,19.8,0,0,0,3.62-.36v4.25A25,25,0,0,1,644.75,153.23Z"/><path class="cls-92" d="M682.75,152.73l-14.28-38.91h7l8.73,26c.83,2.49,1.56,5,2.18,7.49q1.14-4.29,2.13-7.35l8.67-26.18h7l-14.25,38.91Z"/><path class="cls-93" d="M708.44,147.62h10.08v-28l-9.11,5.82v-5.27l9.5-6.35h5.94v33.8h8.59v5.11h-25Z"/><path class="cls-94" d="M739.35,152.73V145.5H746v7.23Z"/><path class="cls-95" d="M752.08,152.73v-4.44A26.2,26.2,0,0,1,756,142a50.76,50.76,0,0,1,6.79-6.63,41.41,41.41,0,0,0,6.75-6.57,7.82,7.82,0,0,0,1.65-4.51,5.82,5.82,0,0,0-1.58-4.35,6.11,6.11,0,0,0-4.44-1.53q-5.53,0-6.3,5.94l-6.41-.44a11.7,11.7,0,0,1,3.85-7.85,12.91,12.91,0,0,1,8.72-2.81q6,0,9.29,2.83a9.9,9.9,0,0,1,3.33,8,11,11,0,0,1-.95,4.55,17.24,17.24,0,0,1-2.75,4.17,48.36,48.36,0,0,1-5.86,5.31q-7.07,5.61-8.81,9.31h19v5.33Z"/><path class="cls-96" d="M784.4,152.73V145.5h6.66v7.23Z"/><path class="cls-97" d="M823.65,133.26q0,9.81-3.38,14.92t-10.07,5.11q-13.29,0-13.29-20a36.58,36.58,0,0,1,1.48-11.35,13,13,0,0,1,4.35-6.55,12.51,12.51,0,0,1,7.62-2.12q6.78,0,10,4.91T823.65,133.26Zm-6.41,0a43.68,43.68,0,0,0-.69-8.7,9.6,9.6,0,0,0-2.17-4.78,5.34,5.34,0,0,0-4-1.52,5.58,5.58,0,0,0-5.46,3.44q-1.6,3.43-1.61,11.56,0,7.85,1.63,11.41a5.74,5.74,0,0,0,10.65-.06Q817.23,141,817.24,133.26Z"/><path class="cls-11" d="M404.3,197.59q0,8.43-7.87,12.54l-.16-.2a6.78,6.78,0,0,0-1.64-1.6q7.35-2.46,7.73-10.74h-4.51a16.88,16.88,0,0,0-2.3.2v-2a20.08,20.08,0,0,0,2.3.2h4.55v-3.51c0-.45-.07-1.24-.18-2.36l2.19.28c.29,0,.45.1.48.19a.54.54,0,0,1,0,.15c0,.11-.1.25-.29.4a.61.61,0,0,0-.23.42,5.5,5.5,0,0,0-.06,1V196h6.19a16,16,0,0,0,2.36-.2v2a15.76,15.76,0,0,0-2.36-.2Zm6.3,10c.78,0,1.18-1.05,1.2-3.08a6.61,6.61,0,0,0,2.23,1.16,7.42,7.42,0,0,1-1.18,2.88,2.47,2.47,0,0,1-2,.79l-1,0H408a4.2,4.2,0,0,1-2.34-.43,1.91,1.91,0,0,1-.6-1.7v-6.61a17.51,17.51,0,0,0-.17-2.29l2,.26c.34,0,.53.12.57.25a.13.13,0,0,1,0,.08.87.87,0,0,1-.27.48c-.18.14-.27.6-.26,1.37v5.76c0,.5.05.79.16.89s.37.17.87.19c.2,0,.53,0,1,0h1C410.23,207.65,410.44,207.63,410.6,207.61Zm-5.14-15.11,1.13-1.54a39.86,39.86,0,0,1,4.06,3l-1.28,1.55A21.46,21.46,0,0,0,405.46,192.5Z"/><path class="cls-11" d="M420.24,205a14.14,14.14,0,0,1-2.95,3.78,5.38,5.38,0,0,0-1.92-1,9.43,9.43,0,0,0,3.48-3.78,26.89,26.89,0,0,0-2.6-1.54,29.92,29.92,0,0,0,1.24-5.63h-.06a17.13,17.13,0,0,0-1.95.26l-.11-2a13.1,13.1,0,0,0,2,.12h.36c.08-.76.14-1.57.19-2.42,0-.56,0-1.06,0-1.5,0-.22,0-.43,0-.63l2.17.4c.26.07.41.17.45.32s-.08.32-.3.5a1,1,0,0,0-.38.76c-.11,1-.21,1.78-.3,2.48l.8-.05a18.52,18.52,0,0,0,2-.22c0,.11,0,.34-.07.66-.07.61-.12,1-.13,1.31a25.82,25.82,0,0,1-1.14,6.51l.34.24c.53.39.93.68,1.2.85L421.36,206l-.09-.08A12.7,12.7,0,0,0,420.24,205Zm.15-8.32-1,0c0,.09,0,.23-.07.4-.37,2.14-.64,3.66-.83,4.57l.18.1c.31.18.61.36.89.54A22.19,22.19,0,0,0,420.39,196.67Zm6.07,6h-1.28a12.51,12.51,0,0,1-3.32,6.3,6.77,6.77,0,0,0-2-1.05,7.64,7.64,0,0,0,3.49-5.21c-.34,0-.73.07-1.18.14v-1.92c.56.1,1,.17,1.44.2a25.57,25.57,0,0,0,.26-2.83l-.71.07-.83.1v-1.87l.39,0a7.39,7.39,0,0,0,1.17.11c0-.94.06-1.92.06-2.95h-.23a14,14,0,0,0-2,.19V192.1a18.72,18.72,0,0,0,2,.16h2.6a21.91,21.91,0,0,0,2.36-.16c-.12.85-.19,1.56-.22,2.14l-.38,11.82a2.35,2.35,0,0,1-.67,2,5.6,5.6,0,0,1-2.8.81,11,11,0,0,0-.82-2.24,14.12,14.12,0,0,0,1.86.26c.39,0,.59-.2.59-.66Zm-.8-4.37c-.07,1.27-.14,2.22-.23,2.83h1.05l.09-2.83Zm1-4.49h-1c0,1.16,0,2.15-.07,2.95h.93ZM431,209.69h-2.21c.11-1,.17-1.85.17-2.46V194.57c0-.75-.08-1.6-.17-2.56.91.11,1.64.16,2.19.17h1.88a18.93,18.93,0,0,0,2.3-.19c-1.05,2.48-2,4.56-2.78,6.22q2.88,2.94,2.8,5.18a3.59,3.59,0,0,1,0,.43q0,2.42-3.9,2.79a3.7,3.7,0,0,0-.46-1.56v2.18A21.87,21.87,0,0,0,431,209.69Zm-.15-16v3.44a28,28,0,0,0,1.53-3.44Zm2.43,9.64q-.14-1.8-2.43-4.35v5.44c.55.06.93.09,1.13.09C432.91,204.55,433.34,204.16,433.3,203.35Z"/><path class="cls-11" d="M436.73,202.13a14,14,0,0,1,.81-5,18.4,18.4,0,0,1,2.58-4.44h2.27a18.64,18.64,0,0,0-2.62,4.53,15.5,15.5,0,0,0,0,9.89,18.36,18.36,0,0,0,2.62,4.54h-2.27a17.52,17.52,0,0,1-2.59-4.48A14.18,14.18,0,0,1,436.73,202.13Z"/><path class="cls-11" d="M450,207.79a5.89,5.89,0,0,1-4.27-1.42,5.46,5.46,0,0,1-1.47-4.12v-9.12h2.5v8.94a4,4,0,0,0,.87,2.76,3.58,3.58,0,0,0,5,0,4.22,4.22,0,0,0,.87-2.85v-8.81H456v9a5.62,5.62,0,0,1-1.53,4.23A6.12,6.12,0,0,1,450,207.79Z"/><path class="cls-11" d="M466,207.58v-5.87a4.09,4.09,0,0,0-.49-2.3,1.83,1.83,0,0,0-1.58-.7,2.15,2.15,0,0,0-1.82.89,4,4,0,0,0-.66,2.42v5.56h-2.36v-8.09c0-.81,0-1.62-.09-2.42h2.24c.08,1,.12,1.7.12,2h0a4.48,4.48,0,0,1,1.4-1.71,3.62,3.62,0,0,1,2.06-.53,3.24,3.24,0,0,1,2.63,1,4.85,4.85,0,0,1,.88,3.2v6.49Z"/><path class="cls-11" d="M479.32,207.58h-2.27l-.09-1.66a3.26,3.26,0,0,1-1.26,1.45,3.59,3.59,0,0,1-1.81.42,3.4,3.4,0,0,1-2.48-.84,3.13,3.13,0,0,1-.85-2.34,3,3,0,0,1,1.16-2.51,6.08,6.08,0,0,1,3.45-.95l1.79-.06v-.33a3.13,3.13,0,0,0-.39-1.77,1.55,1.55,0,0,0-1.34-.54,1.94,1.94,0,0,0-1.22.31,1.57,1.57,0,0,0-.54,1l-2.28-.36a2.88,2.88,0,0,1,1.29-1.93,5.46,5.46,0,0,1,2.78-.58,3.53,3.53,0,0,1,4.06,4.08Zm-4.71-1.45a2.13,2.13,0,0,0,1.73-.77,3,3,0,0,0,.63-2v-1l-1.11,0a4.15,4.15,0,0,0-2.17.53,1.64,1.64,0,0,0-.66,1.44C473,205.57,473.55,206.13,474.61,206.13Z"/><path class="cls-11" d="M486.77,202.16a14.26,14.26,0,0,1-.79,5,18.24,18.24,0,0,1-2.61,4.51h-2.26a19,19,0,0,0,2.63-4.58,15.53,15.53,0,0,0,0-9.78,19.32,19.32,0,0,0-2.63-4.6h2.26a18.07,18.07,0,0,1,2.62,4.56A14.13,14.13,0,0,1,486.77,202.16Z"/><path class="cls-11" d="M488.78,201.64v-1.9c.78.07,1.76.13,2.94.16h12.72c1.24,0,2.22-.09,2.95-.16v1.9c-.72-.06-1.7-.12-2.95-.16h-5.25v1.7h3.05c.92,0,1.83-.07,2.73-.14V205c-.89-.08-1.79-.15-2.73-.19h-3.05v2.51c1,0,1.8,0,2.44,0a46.25,46.25,0,0,0,6.5-.49,5.12,5.12,0,0,0-.89,2.28c-1.86.07-3.38.1-4.56.1h-1.23l-.85,0a8.92,8.92,0,0,1-7.28-3,15.93,15.93,0,0,1-2.88,3.9,10,10,0,0,0-1.95-1.62q2.73-.9,4.26-6.53l1.79.66c.39.13.59.27.6.4s-.13.28-.48.46-.46.41-.58.92a6,6,0,0,0,3.21,2.53v-5.41h-5.57C490.47,201.52,489.49,201.58,488.78,201.64Zm15.5-10.32c-.1,1-.16,1.89-.17,2.69v2c0,1,.1,1.85.17,2.68q-1.44-.12-2.67-.15h-6.72q-1.15,0-2.73.15c.11-1.24.17-2.14.17-2.73v-1.93a25.87,25.87,0,0,0-.17-2.73c.9.08,1.8.14,2.73.16h6.66C502.39,191.47,503.3,191.42,504.28,191.32ZM494.22,193v1.22h8V193Zm0,2.75V197h8v-1.26Z"/><path class="cls-11" d="M509.91,201v-2.1c1,.07,2.24.12,3.55.14H525c1.25,0,2.35-.08,3.31-.16v2.1c-1-.11-2-.18-3.25-.2h-11.5A21.84,21.84,0,0,0,509.91,201Z"/><path class="cls-11" d="M530.29,199.49a14.3,14.3,0,0,0,9.08-9.11l2.14.82c.21.08.32.18.34.29s-.09.23-.28.33a1.27,1.27,0,0,0-.4.36,18.61,18.61,0,0,0,9.06,6.66,8.77,8.77,0,0,0-1.68,1.65l-.15.17a26.82,26.82,0,0,1-8.23-6.78,22.4,22.4,0,0,1-8,7.35,4.5,4.5,0,0,0-1.12-1.11C530.73,199.87,530.47,199.66,530.29,199.49Zm11.12-.23v8.08a26.86,26.86,0,0,0,.16,2.82h-2.3a27.46,27.46,0,0,0,.16-2.89v-8.39a15.7,15.7,0,0,0-.16-2l2.2.33c.24,0,.37.1.39.2s0,.27-.18.52A2.51,2.51,0,0,0,541.41,199.26Z"/><path class="cls-11" d="M556.2,207.74h4.23v-1.89H558.1c-.43,0-1.11.06-2,.16v-1.3a25.46,25.46,0,0,1-3.14,2.14,7.2,7.2,0,0,0-1.53-1.56l-.2-.16a10.41,10.41,0,0,0,5.55-3.59h-2.69c-.56,0-1.23.08-2,.18v-1.94c.89.11,1.56.17,2,.19h2.15v-5.59h-1.12c-.16,0-.68.05-1.56.13l-.48,0v-1.91c.93.1,1.61.16,2,.17h1.12v-.17c0-.45-.08-1.19-.16-2.22l2.14.26c.28,0,.44.11.47.22s0,0,0,.06a.76.76,0,0,1-.24.42,1,1,0,0,0-.25.46,2.41,2.41,0,0,0-.07.7v.27h6v-.17q0-.67-.15-2.22l2.14.26c.28,0,.43.08.45.14a.45.45,0,0,1,0,.13.75.75,0,0,1-.24.43,1.07,1.07,0,0,0-.26.46,2.94,2.94,0,0,0-.06.7v.27h1.16c.29,0,1-.06,2-.17v1.89l-.55,0c-.85-.08-1.33-.11-1.44-.11H566V200h2.18c.2,0,.87-.05,2-.17v1.92a19.65,19.65,0,0,0-2-.18h-2.37a9.61,9.61,0,0,0,5.6,2.82,6.7,6.7,0,0,0-1.8,2,23.7,23.7,0,0,1-2.93-1.7V206c-.88-.09-1.55-.15-2-.16h-2.37v1.89h4.45c.49,0,1.16-.07,2-.17v1.89h-.16c-1-.1-1.61-.14-1.85-.14H556.2c-.19,0-.81.05-1.87.14h-.17v-1.89C555.16,207.68,555.84,207.74,556.2,207.74Zm2.8-6.2a18.74,18.74,0,0,1-2.32,2.65c.75.05,1.22.08,1.42.08h2.33v-.18c0-.34-.06-1.05-.16-2.15l2.1.28c.29,0,.46.13.49.27s-.07.31-.31.51a.42.42,0,0,0-.16.29,3.34,3.34,0,0,0,0,.69v.29h2.37l1.34-.08a9.63,9.63,0,0,1-2.41-2.65Zm-.9-7.16v.83h6v-.83Zm6,3.19v-.84h-6v.84Zm-6,1.54V200h6v-.86Z"/><path class="cls-11" d="M572.93,200.32v-1.93a25.67,25.67,0,0,0,3,.17h5.64v-5.14h-3.9a24,24,0,0,0-3,.19v-1.93a25.32,25.32,0,0,0,3,.16h9.38a24.14,24.14,0,0,0,2.9-.18v2a28.82,28.82,0,0,0-2.9-.19h-3.51v5.14h4.89c1.08,0,2.09-.08,3-.19v1.95a29.72,29.72,0,0,0-3-.18h-4.89V207c0,1.06-.21,1.73-.74,2a8.45,8.45,0,0,1-3.56.69,6.7,6.7,0,0,0-.88-2.35,19.6,19.6,0,0,0,2.46.29c.54,0,.8-.24.75-.82v-6.67H576A25.47,25.47,0,0,0,572.93,200.32Z"/><path class="cls-11" d="M603.49,203.51a3.89,3.89,0,0,1-1.32,3.17,5.77,5.77,0,0,1-3.81,1.11,5.57,5.57,0,0,1-3.45-1,4.55,4.55,0,0,1-1.64-2.88l2.32-.4a2.68,2.68,0,0,0,2.89,2.35q2.61,0,2.61-2.25a1.94,1.94,0,0,0-.26-1.05,2.23,2.23,0,0,0-.71-.69,4.51,4.51,0,0,0-1.06-.46l-1.31-.4a8.52,8.52,0,0,1-2.43-1,3.48,3.48,0,0,1-1.16-1.31,4.27,4.27,0,0,1-.4-2,3.49,3.49,0,0,1,1.21-2.83,5.09,5.09,0,0,1,3.36-1,5.49,5.49,0,0,1,3.2.81,4.33,4.33,0,0,1,1.6,2.56l-2.35.42a2.6,2.6,0,0,0-4.07-1.47,1.82,1.82,0,0,0-.55,1.41,1.89,1.89,0,0,0,.25,1,2,2,0,0,0,.75.7,10,10,0,0,0,1.94.74,14.7,14.7,0,0,1,2.4.92,4.09,4.09,0,0,1,1.14.88,3.16,3.16,0,0,1,.63,1.12A4.37,4.37,0,0,1,603.49,203.51Z"/><path class="cls-11" d="M615.89,202.27a6.23,6.23,0,0,1-1.2,4,4.09,4.09,0,0,1-3.35,1.47,4,4,0,0,1-2-.47,3.45,3.45,0,0,1-1.26-1.38h0c0,.27,0,.54,0,.81s0,.54,0,.81v4.06h-2.37V199.41c0-.71,0-1.49-.08-2.34h2.28a16.86,16.86,0,0,1,.13,1.79h0a3.52,3.52,0,0,1,3.46-2,3.93,3.93,0,0,1,3.25,1.4A6.26,6.26,0,0,1,615.89,202.27Zm-2.46,0q0-3.69-2.59-3.69a2.48,2.48,0,0,0-2.1,1,4.55,4.55,0,0,0-.72,2.77,4.6,4.6,0,0,0,.7,2.77,2.39,2.39,0,0,0,2.08.95Q613.42,206,613.43,202.29Z"/><path class="cls-11" d="M623.21,198.81a2.11,2.11,0,0,0-1.83,1,4.74,4.74,0,0,0-.69,2.72v5h-2.36v-7.91c0-1.11,0-2-.07-2.6h2.25c.07.82.1,1.62.1,2.38h0a4.66,4.66,0,0,1,1.14-2,2.48,2.48,0,0,1,1.7-.57,2.06,2.06,0,0,1,.8.13v1.94A4.83,4.83,0,0,0,623.21,198.81Z"/><path class="cls-11" d="M626.13,194.69v-2h2.35v2Zm0,12.89V197.07h2.36v10.51Z"/><path class="cls-11" d="M638.52,207.58v-5.87a4.09,4.09,0,0,0-.49-2.3,1.82,1.82,0,0,0-1.58-.7,2.15,2.15,0,0,0-1.82.89A4,4,0,0,0,634,202v5.56h-2.36v-8.09c0-.81,0-1.62-.09-2.42h2.25c.07,1,.11,1.7.11,2h0a4.41,4.41,0,0,1,1.41-1.71,3.58,3.58,0,0,1,2.06-.53,3.27,3.27,0,0,1,2.63,1,4.91,4.91,0,0,1,.87,3.2v6.49Z"/><path class="cls-11" d="M643.2,202.26a6.11,6.11,0,0,1,1.15-4,4,4,0,0,1,3.3-1.39,4,4,0,0,1,2.06.52,3.37,3.37,0,0,1,1.34,1.5h0a12.72,12.72,0,0,1,.14-1.82h2.25c-.05.62-.08,1.4-.08,2.34v7.86a4.16,4.16,0,0,1-1.32,3.08,5.21,5.21,0,0,1-3.76,1.28q-4,0-4.66-2.82l2.35-.36c.26,1,1,1.45,2.38,1.45a2.51,2.51,0,0,0,2-.78,2.69,2.69,0,0,0,.68-1.82v-1.1c0-.23,0-.45,0-.68h0a3.62,3.62,0,0,1-1.41,1.57,4.19,4.19,0,0,1-2.2.52,3.76,3.76,0,0,1-3.14-1.39A6.28,6.28,0,0,1,643.2,202.26Zm2.47,0q0,3.62,2.67,3.61a2.38,2.38,0,0,0,2-1,4.57,4.57,0,0,0,.7-2.7,4.46,4.46,0,0,0-.7-2.68,2.65,2.65,0,0,0-4,0A4.51,4.51,0,0,0,645.67,202.26Z"/><path class="cls-11" d="M666.89,203.52a3.51,3.51,0,0,1-1.44,3,6.61,6.61,0,0,1-4,1.06h-4.68V193.13h4.07c3.48,0,5.22,1.18,5.22,3.52a3.27,3.27,0,0,1-.72,2.16,3.48,3.48,0,0,1-2,1.17,4.23,4.23,0,0,1,2.64,1.12A3.25,3.25,0,0,1,666.89,203.52ZM663.54,197a1.76,1.76,0,0,0-.7-1.55,3.74,3.74,0,0,0-2.14-.49h-1.45v4.25h1.47a3.4,3.4,0,0,0,2.11-.56A2,2,0,0,0,663.54,197Zm.84,6.31a2,2,0,0,0-.89-1.77,4.41,4.41,0,0,0-2.49-.6h-1.75v4.86h1.9a3.92,3.92,0,0,0,2.43-.64A2.25,2.25,0,0,0,664.38,203.29Z"/><path class="cls-11" d="M679.3,202.3a5.47,5.47,0,0,1-1.43,4,5.36,5.36,0,0,1-4,1.46,5.2,5.2,0,0,1-3.92-1.48,5.56,5.56,0,0,1-1.41-4,5.46,5.46,0,0,1,1.42-4,6.33,6.33,0,0,1,8,0A5.51,5.51,0,0,1,679.3,202.3Zm-2.47,0q0-3.7-2.86-3.7t-3,3.7a4.51,4.51,0,0,0,.73,2.78,2.48,2.48,0,0,0,2.11,1C675.83,206,676.83,204.8,676.83,202.3Z"/><path class="cls-11" d="M691.84,202.3a5.51,5.51,0,0,1-1.42,4,5.4,5.4,0,0,1-4,1.46,5.2,5.2,0,0,1-3.92-1.48,5.56,5.56,0,0,1-1.41-4,5.46,5.46,0,0,1,1.42-4,6.33,6.33,0,0,1,8,0A5.51,5.51,0,0,1,691.84,202.3Zm-2.47,0q0-3.7-2.86-3.7t-3,3.7a4.51,4.51,0,0,0,.73,2.78,2.48,2.48,0,0,0,2.11,1C688.38,206,689.37,204.8,689.37,202.3Z"/><path class="cls-11" d="M697.39,207.77a2.63,2.63,0,0,1-1.94-.71,2.67,2.67,0,0,1-.71-2v-6.27h-1.55v-1.71h1.58l.75-2.54h1.56v2.54h2.54v1.71h-2.54v5.68c0,1,.45,1.55,1.33,1.55a7.3,7.3,0,0,0,1.34-.13v1.58A9.5,9.5,0,0,1,697.39,207.77Z"/><path class="cls-11" d="M702.59,203.31v-2.08h5.94v2.08Z"/><path class="cls-11" d="M711.77,207.58v-1.65a9.86,9.86,0,0,1,1.45-2.34,19.33,19.33,0,0,1,2.53-2.46,14.81,14.81,0,0,0,2.5-2.44,2.87,2.87,0,0,0,.61-1.67,2.13,2.13,0,0,0-.58-1.61,2.27,2.27,0,0,0-1.65-.57,2.18,2.18,0,0,0-2.34,2.2l-2.38-.16a4.33,4.33,0,0,1,1.43-2.92,4.83,4.83,0,0,1,3.24-1A5.19,5.19,0,0,1,720,194a3.69,3.69,0,0,1,1.23,3,4,4,0,0,1-.35,1.69,6.62,6.62,0,0,1-1,1.54,18.29,18.29,0,0,1-2.18,2,11.79,11.79,0,0,0-3.27,3.45h7v2Z"/><path class="cls-11" d="M723.77,207.58V204.9h2.47v2.68Z"/><path class="cls-11" d="M728.49,207.58v-1.65a9.92,9.92,0,0,1,1.46-2.34,19.83,19.83,0,0,1,2.52-2.46,15.4,15.4,0,0,0,2.51-2.44,2.94,2.94,0,0,0,.61-1.67,2.14,2.14,0,0,0-.59-1.61,2.27,2.27,0,0,0-1.65-.57A2.19,2.19,0,0,0,731,197l-2.37-.16a4.33,4.33,0,0,1,1.43-2.92,4.8,4.8,0,0,1,3.23-1,5.15,5.15,0,0,1,3.45,1.05,3.67,3.67,0,0,1,1.24,3,4,4,0,0,1-.36,1.69,6,6,0,0,1-1,1.54,18,18,0,0,1-2.17,2,11.65,11.65,0,0,0-3.27,3.45h7v2Z"/><path class="cls-11" d="M740.49,207.58V204.9H743v2.68Z"/><path class="cls-11" d="M745.22,207.58v-1.65a9.86,9.86,0,0,1,1.45-2.34,19.83,19.83,0,0,1,2.52-2.46,15,15,0,0,0,2.51-2.44,2.87,2.87,0,0,0,.61-1.67,2.13,2.13,0,0,0-.58-1.61,2.27,2.27,0,0,0-1.65-.57,2.18,2.18,0,0,0-2.34,2.2l-2.38-.16a4.33,4.33,0,0,1,1.43-2.92,4.83,4.83,0,0,1,3.24-1,5.19,5.19,0,0,1,3.45,1.05,3.69,3.69,0,0,1,1.23,3,4.19,4.19,0,0,1-.35,1.69,6.62,6.62,0,0,1-1,1.54,18.29,18.29,0,0,1-2.18,2,11.65,11.65,0,0,0-3.27,3.45h7.05v2Z"/><path class="cls-11" d="M757.21,207.58V204.9h2.47v2.68Z"/><path class="cls-11" d="M773.1,197.36a4,4,0,0,1-.88,2.61,4.26,4.26,0,0,1-2.48,1.44l4,6.17h-2.84l-3.53-5.88h-2.11v5.88h-2.49V193.13h5.08a6,6,0,0,1,3.87,1.11A3.77,3.77,0,0,1,773.1,197.36Zm-2.49,0a2.21,2.21,0,0,0-.78-1.82,3.51,3.51,0,0,0-2.22-.62h-2.34v5h2.42a3.14,3.14,0,0,0,2.14-.67A2.34,2.34,0,0,0,770.61,197.38Z"/><path class="cls-11" d="M784.15,207.58h-8.29V193.13h7.87v2h-5.38v4.15h4.74v1.92h-4.74v4.44h5.8Z"/><path class="cls-11" d="M789.23,193.13V205.6h5.55v2h-8.06V193.13Z"/><path class="cls-11" d="M805.28,207.58H797V193.13h7.87v2h-5.38v4.15h4.75v1.92h-4.75v4.44h5.8Z"/><path class="cls-11" d="M814.56,193.13,820,207.58h-2.5l-1.44-4h-5.84l-1.42,4h-2.5l5.39-14.45ZM813.11,195c-.12.4-.24.77-.35,1.11s-.24.72-.39,1.13l-1.61,4.49h4.7l-1.62-4.48C813.61,196.64,813.37,195.89,813.11,195Z"/><path class="cls-11" d="M830.94,203.51a3.89,3.89,0,0,1-1.32,3.17,5.77,5.77,0,0,1-3.81,1.11,5.57,5.57,0,0,1-3.45-1,4.49,4.49,0,0,1-1.63-2.88l2.31-.4a2.68,2.68,0,0,0,2.9,2.35c1.73,0,2.6-.75,2.6-2.25a1.94,1.94,0,0,0-.26-1.05,2.2,2.2,0,0,0-.7-.69,4.79,4.79,0,0,0-1.07-.46l-1.3-.4a8.61,8.61,0,0,1-2.44-1,3.48,3.48,0,0,1-1.16-1.31,4.27,4.27,0,0,1-.4-2,3.49,3.49,0,0,1,1.21-2.83,5.1,5.1,0,0,1,3.36-1,5.52,5.52,0,0,1,3.21.81,4.32,4.32,0,0,1,1.59,2.56l-2.35.42a2.31,2.31,0,0,0-2.47-2,2.27,2.27,0,0,0-1.59.51,1.79,1.79,0,0,0-.56,1.41,1.89,1.89,0,0,0,.25,1,2.12,2.12,0,0,0,.75.7,10,10,0,0,0,1.94.74,14.7,14.7,0,0,1,2.4.92,4.09,4.09,0,0,1,1.14.88,3.16,3.16,0,0,1,.63,1.12A4.37,4.37,0,0,1,830.94,203.51Z"/><path class="cls-11" d="M841.68,207.58h-8.29V193.13h7.87v2h-5.38v4.15h4.75v1.92h-4.75v4.44h5.8Z"/><path class="cls-11" d="M404,217.1h.12a17.34,17.34,0,0,0,2,.19,14.65,14.65,0,0,0,5.83-1.06l1.58,1.79a.57.57,0,0,1,.16.31.29.29,0,0,1-.12.23.64.64,0,0,1-.36.09,1.64,1.64,0,0,1-.42-.06,1.36,1.36,0,0,0-.51-.08,4.59,4.59,0,0,0-.68.06c-1.82.21-3.66.35-5.5.44v3.19h4.57A17.25,17.25,0,0,0,413,222a31.51,31.51,0,0,1-2.92,8.09,11.42,11.42,0,0,0,4.56,3.5,7.61,7.61,0,0,0-2.22,1.51,23,23,0,0,1-3.47-3.39,19,19,0,0,1-3.93,3.16,7.27,7.27,0,0,0-1.08-1.07l-.31.57a5,5,0,0,0-1.55-.78c0,.15,0,.4.07.73,0,.12,0,.22,0,.28h-2.22a18.26,18.26,0,0,0,.16-2.37v-4.54h-1.76a16.45,16.45,0,0,1-2,7.12,8.65,8.65,0,0,0-2.11-.88c1.6-1.71,2.37-4.79,2.29-9.24v-5.32c0-.66-.05-1.45-.14-2.39l2.24.34c.21,0,.33.13.34.27s-.08.31-.27.5-.29.59-.27,1.33v2.87h1.76v-3.48a17.47,17.47,0,0,0-.17-2.41l2.36.33c.21,0,.32.13.32.26a.82.82,0,0,1-.3.51,1.94,1.94,0,0,0-.32,1.35v3.44c.16,0,.62-.07,1.4-.18v2a14.06,14.06,0,0,0-1.78-.19h-3.27v2.25h1.51c.34,0,1.09-.06,2.26-.2a17.77,17.77,0,0,0-.14,2.28v4.17a2.09,2.09,0,0,0,0,.24,1,1,0,0,0,0,.18q2.19-2.79,2.12-8.75v-4.45A24.14,24.14,0,0,0,404,217.1Zm2,8.36a18.26,18.26,0,0,1-1.71,7.63,16.38,16.38,0,0,0,3.53-3A21,21,0,0,1,406,225.46Zm4.51-1.68h-3a14.23,14.23,0,0,0,1.42,4.5A19.29,19.29,0,0,0,410.5,223.78Z"/><path class="cls-11" d="M422.86,231a13.89,13.89,0,0,0-2.38.2v-1.76a27.15,27.15,0,0,1-3.45,3.22,5.75,5.75,0,0,0-1.72-1.6q4.54-2.2,7.93-9.42h-3.61a14.86,14.86,0,0,0-2.76.22v-2a16.24,16.24,0,0,0,2.76.22h4.79v-1.54a24.18,24.18,0,0,0-.18-2.91l2.33.26c.28,0,.42.14.43.29s-.11.33-.37.53a1,1,0,0,0-.3.8v2.57h4.88a19.72,19.72,0,0,0,2.77-.2v2a19.6,19.6,0,0,0-2.77-.2h-3.82q2.94,6.62,8,9.08a8.74,8.74,0,0,0-2.21,1.66,17.86,17.86,0,0,1-3-2.75v1.59a11.87,11.87,0,0,0-2.39-.22h-1.44v1.4a21.67,21.67,0,0,0,.13,2.92h-2.2a26.63,26.63,0,0,0,.16-2.92V231Zm1.56-7.37a29.77,29.77,0,0,1-3.78,5.65c.89.08,1.63.12,2.22.14h1.56Zm3.35,5.79c.73,0,1.42-.06,2.07-.14a22.43,22.43,0,0,1-3.51-5.7v5.84Z"/><path class="cls-11" d="M439.79,222.21h-1a9.6,9.6,0,0,0-2,.23v-2a12.65,12.65,0,0,0,2,.18h1.42V218c0-.65-.1-1.39-.2-2.23l2.2.28c.3,0,.47.13.51.26s-.08.3-.32.49-.31.53-.3,1.2v2.62h.28a12,12,0,0,0,1.94-.18v2a10.08,10.08,0,0,0-1.9-.21h-.32v.86a29.37,29.37,0,0,1,2.88,2.65l-1.36,1.57a16.7,16.7,0,0,0-1.52-1.91v7.09a21.83,21.83,0,0,0,.2,2.49h-2.27a24.85,24.85,0,0,0,.18-2.49v-6.63a22.36,22.36,0,0,1-2.16,3.67,9.36,9.36,0,0,0-2-1A15,15,0,0,0,439.79,222.21Zm7.65-1a35.42,35.42,0,0,1-1.89,3.16,4.19,4.19,0,0,0-2-1,16.73,16.73,0,0,0,3.9-7.76l2.17.8c.2.08.3.19.28.33s-.18.25-.44.38a.79.79,0,0,0-.4.48c-.2.53-.48,1.21-.84,2h4.94a16.84,16.84,0,0,0,2.31-.22c-.08.83-.13,2-.14,3.39-.05,3.61-.13,6.4-.24,8.35a2.74,2.74,0,0,1-1.53,2.8,12.47,12.47,0,0,1-4.14.63,6.15,6.15,0,0,0-.8-2.52,8.45,8.45,0,0,0,2.65.46l.57,0c.86-.09,1.3-.78,1.34-2.1.13-4.38.2-7.45.23-9.2Zm5.58,9.23-1.8.79c-.18-.49-.38-1-.59-1.43-1.76.25-3,.46-3.78.61a10.19,10.19,0,0,0-2,.67,11.85,11.85,0,0,0-.82-1.95,2.38,2.38,0,0,0,1-.67,17.43,17.43,0,0,0,2.49-6.26l2.12.69c.25.09.38.21.38.36s-.16.29-.44.42a1.24,1.24,0,0,0-.58.67q-1.12,2.52-2.2,4.48l3.13-.42c-.34-.67-.78-1.48-1.33-2.42l1.73-.79A41.4,41.4,0,0,1,453,230.49Z"/><path class="cls-11" d="M457.54,233.67a8,8,0,0,0,3.29-3.1c-.86-1.16-1.59-2.26-2.2-3.28l1.66-.95a11.94,11.94,0,0,0,1.41,2.42,16.13,16.13,0,0,0,.69-3.55h-1.32a4,4,0,0,0-1.46.38l-.3-1-.28-1q.77,0,1-.45c.67-1.38,1.2-2.6,1.6-3.67h-1.7c-.27,0-.87.08-1.78.21v-2a9.29,9.29,0,0,0,1.8.2h2.27c.38,0,1.09-.06,2.14-.16l-2.58,5.92h1a10.32,10.32,0,0,0,1.85-.21,26,26,0,0,1-1.5,6.84q2.16,2.38,7.71,2.4a45.25,45.25,0,0,0,5.89-.48,8,8,0,0,0-.62,2.24c-1.65.09-2.92.13-3.8.13q-7.09.09-10.06-2.67a21.15,21.15,0,0,1-2.87,3.13A6.28,6.28,0,0,0,457.54,233.67ZM464,222.33v-1.9a9.19,9.19,0,0,0,2.14.22h2.75v-1.26H467a15.91,15.91,0,0,0-2.09.2V217.7a11.63,11.63,0,0,0,2.09.2h1.87v-.29a9,9,0,0,0-.23-1.93L471,216q.27.06.27.24a.71.71,0,0,1-.2.4.84.84,0,0,0-.26.7v.6H473a15.53,15.53,0,0,0,2.19-.18,11.74,11.74,0,0,0-.24,1.76v1.17h.28a11.83,11.83,0,0,0,1.72-.2v1.93a7.84,7.84,0,0,0-1.68-.23h-.32v1.21a11.76,11.76,0,0,0,.22,1.77,11.71,11.71,0,0,0-1.94-.21h-2.39v1.14h2.29a16.64,16.64,0,0,0,2.1-.2v1.87a14.24,14.24,0,0,0-2.1-.19h-2.29v1.14h3a9.92,9.92,0,0,0,2.18-.23v1.9c-1-.11-1.72-.18-2.18-.18h-3v.32a19.47,19.47,0,0,0,.19,2h-2.29c.11-1.05.19-1.72.21-2v-.32h-2.66a8.6,8.6,0,0,0-2.23.25v-2a7.93,7.93,0,0,0,2.23.28h2.66v-1.14h-2.14a16.62,16.62,0,0,0-2.1.22v-1.92a15.28,15.28,0,0,0,2.1.22h2.14v-1.14h-1.8a15,15,0,0,0-2.14.21v-2a5.79,5.79,0,0,0,2.14.34h1.8v-1.28h-2.75C465.52,222.18,464.81,222.24,464,222.33Zm6.78-2.94v1.26H473v-1.26Zm0,4H473v-1.28h-2.23Z"/><path class="cls-11" d="M481.9,234.52h-2.14c.12-1.06.17-1.77.17-2.13v-10.1a23.26,23.26,0,0,0-.17-2.37,12.67,12.67,0,0,0,1.74.21,24.06,24.06,0,0,0,1.16-4.43l1.84.52c.43.1.66.24.69.39s-.15.36-.52.6a1.09,1.09,0,0,0-.4.65c-.06.19-.15.44-.26.75-.19.53-.38,1-.58,1.52h1.69a16.6,16.6,0,0,0,2.26-.19,21.46,21.46,0,0,0-.16,2.35v.53a14.42,14.42,0,0,0,3.11-7.24l1.92.64c.4.15.59.28.58.4s-.17.34-.56.64c-.08,0-.19.22-.34.56a20.82,20.82,0,0,1-.84,2.21h3.64c.35,0,1-.06,2.13-.18-.11,1.12-.16,1.92-.16,2.42l-.1,9.48a2.64,2.64,0,0,1-1,2.44,9,9,0,0,1-4,1,5.53,5.53,0,0,0-.86-2.22c1,.08,1.64.12,1.92.12q2,.08,1.92-1.44c0-1.69.05-3.36.08-5s.07-3.36.09-5.07h-4.37a24.88,24.88,0,0,1-1.49,2.48,5.83,5.83,0,0,0-1.74-1v8.84a16.6,16.6,0,0,0,.16,2h-2.2c.09-.59.13-1,.14-1.18h-3.57C481.75,233.07,481.8,233.67,481.9,234.52Zm-.13-12.81v4h3.59v-4Zm0,5.49v4h3.59v-4Zm7.19-1.68,1.49-1.23a44.34,44.34,0,0,1,3.46,4l-1.68,1.32A23.18,23.18,0,0,0,489,225.52Z"/><path class="cls-11" d="M507.38,231.93a67.82,67.82,0,0,0-7.44,2.38l-.76-2.26a34.18,34.18,0,0,0,8.42-2.26A19.1,19.1,0,0,0,507.38,231.93Zm-2.74-13.77c-.57,1.05-1.3,2.28-2.18,3.69.48,0,1.08-.09,1.81-.16a22.67,22.67,0,0,0,1.4-2.86l1.64,1.11s0,0,0,0l.06,0v-.68l.57,0c.88.08,1.44.11,1.67.1h1.75v-1.22c0-.74-.07-1.58-.16-2.5l2.15.34c.38.05.59.11.61.18a.7.7,0,0,1,0,.14q0,.2-.39.54c-.24.18-.36.57-.34,1.18v1.34h2.91c.14,0,.63,0,1.47-.1l.56,0v1.86a18.3,18.3,0,0,0-2-.18h-2.91v6.17h1.87v-2.74c0-.28,0-1.06-.1-2.33l2,.28c.37.06.57.14.59.24s-.08.26-.37.5-.2.53-.2,1.22v2.37c0,.42.06,1.13.12,2.12l-.69-.06c-.75-.07-1.23-.11-1.43-.1h-1.75v3.63c0,.51.2.77.74.78a6,6,0,0,0,.71,0,5.62,5.62,0,0,0,.84,0,1.06,1.06,0,0,0,1-.64,5.32,5.32,0,0,0,.2-2.1,9.23,9.23,0,0,0,2.29,1.24,4.57,4.57,0,0,1-1.2,2.59,3.87,3.87,0,0,1-2.62.71c-1,0-1.6,0-1.92,0a1.93,1.93,0,0,1-1.9-2.22v-3.95h-1.64c-.26,0-.8,0-1.63.11l-.58.05c0-.6.08-1.3.12-2.12v-2.2c0-.4-.05-1.17-.16-2.33l2,.27c.36.06.55.13.57.2a1.17,1.17,0,0,1,0,.16c0,.13-.13.27-.36.42s-.24.53-.25,1.2v2.74h1.87V221h-1.75c-.51,0-1.26.07-2.24.18v-.38l0,0L507,221c-.1,0-.27.26-.52.68q-1.72,2.85-3.39,5.09c1.34-.2,2.68-.45,4-.73a6.89,6.89,0,0,0-.4,1.93c-3.54.56-5.71,1-6.51,1.47q-.09-.28-.24-.84c-.13-.51-.23-.88-.32-1.13a2.87,2.87,0,0,0,1.53-1.1,36.24,36.24,0,0,0,2.12-3,13.09,13.09,0,0,0-3.32.76,8,8,0,0,1-.25-.8,5.66,5.66,0,0,0-.36-1.05,2.66,2.66,0,0,0,1.24-1,19.63,19.63,0,0,0,2.71-5.61l1.83,1c.45.26.67.44.64.56s-.24.24-.73.37C505,217.66,504.83,217.84,504.64,218.16Z"/><path class="cls-11" d="M524.34,234.7h-2.27a14.83,14.83,0,0,0,.2-2.71V219.12a15.81,15.81,0,0,0-.24-2.72,10.84,10.84,0,0,0,2.52.28h11.51a16,16,0,0,0,2.52-.22,18.6,18.6,0,0,0-.22,2.73v12.44a18.07,18.07,0,0,0,.22,2.86h-2.31a6.93,6.93,0,0,0,.21-1.48H524.15A8.88,8.88,0,0,0,524.34,234.7Zm-.19-3.25h12.33V218.28H524.15ZM533,225a20,20,0,0,1,2.31,2.63l-1,.77c.74-.05,1.29-.11,1.65-.16v1.91c-1-.11-1.77-.17-2.35-.19h-6.54c-.47,0-1.25.09-2.35.21v-1.95c1.12.12,1.9.19,2.35.2h2.15V225h-1.77q-.84,0-2,.21v-1.95c.94.13,1.61.2,2,.21h1.79v-2.22H527c-.53,0-1.2.11-2,.22v-2c.73.11,1.4.19,2,.23h6.67q1-.06,2-.21v2a19.24,19.24,0,0,0-2-.2h-2.5v2.22h1.92q.87,0,2-.21v1.95q-1.12-.16-2-.21h-1.92v3.44h2.52a23.4,23.4,0,0,0-2-2.34Z"/><path class="cls-11" d="M549.2,216.75l1.26-1.35a33.94,33.94,0,0,1,3.09,2.36l-.73.86H557c.92,0,1.72-.1,2.38-.19v1.94c-1-.1-1.74-.16-2.38-.18h-2.11l1.48.76q.35.18.3.42c0,.16-.22.27-.49.35a1.34,1.34,0,0,0-.74.61c-.09.16-.26.42-.52.79l-.19.29H558c.54,0,1.21-.09,2-.2v2c-1-.11-1.64-.18-2-.19H546.31c0,.29,0,.59,0,.89a14.26,14.26,0,0,1-3.13,9.27,12.36,12.36,0,0,0-2.06-1c2.13-1.55,3.19-4.19,3.17-7.9,0-1-.06-2-.16-3.07,1,.11,1.81.18,2.47.2h2.14c-.59-.81-1.18-1.55-1.76-2.22l1.16-1H546.6c-.61,0-1.41.08-2.39.18v-1.94c.72.09,1.52.15,2.39.19h5C550.73,217.87,549.91,217.24,549.2,216.75Zm3.32,6.66a21.33,21.33,0,0,0,1.73-3.22h-5.71c.76.83,1.5,1.7,2.2,2.6l-.78.62Z"/><path class="cls-11" d="M562.11,230.6a2.54,2.54,0,0,0,.81.31,5.28,5.28,0,0,0,.94.1,2.09,2.09,0,0,0,1.67-.67,3,3,0,0,0,.59-2v-8h-2.43v-2h4.91v10a4.81,4.81,0,0,1-1.15,3.38,3.93,3.93,0,0,1-3,1.27,8.46,8.46,0,0,1-2.3-.23Z"/><path class="cls-11" d="M579.66,232.78h-2.28l-.08-1.66a3.39,3.39,0,0,1-1.26,1.45,3.66,3.66,0,0,1-1.82.42,3.37,3.37,0,0,1-2.47-.84,3.1,3.1,0,0,1-.86-2.34,2.93,2.93,0,0,1,1.17-2.51,6,6,0,0,1,3.44-1l1.8-.06V226a3,3,0,0,0-.4-1.77,1.54,1.54,0,0,0-1.33-.54,2,2,0,0,0-1.23.31,1.67,1.67,0,0,0-.54,1l-2.27-.36a2.84,2.84,0,0,1,1.28-1.93,5.47,5.47,0,0,1,2.79-.58,4.19,4.19,0,0,1,3.08,1,4.26,4.26,0,0,1,1,3.09Zm-4.72-1.45a2.13,2.13,0,0,0,1.73-.77,2.93,2.93,0,0,0,.64-2v-1l-1.12.05a4.18,4.18,0,0,0-2.17.53,1.65,1.65,0,0,0-.66,1.45C573.36,230.77,573.89,231.33,574.94,231.33Z"/><path class="cls-11" d="M587.76,232.78H585l-3.87-10.51h2.5l2.06,6.25c.41,1.32.65,2.13.72,2.42.06-.24.15-.54.27-.92s.29-.88.51-1.52l2.1-6.23h2.49Z"/><path class="cls-11" d="M601.27,232.78H599l-.09-1.66a3.33,3.33,0,0,1-1.26,1.45,3.59,3.59,0,0,1-1.81.42,3.4,3.4,0,0,1-2.48-.84,3.13,3.13,0,0,1-.86-2.34,2.93,2.93,0,0,1,1.17-2.51,6,6,0,0,1,3.45-1l1.79-.06V226a3.13,3.13,0,0,0-.39-1.77,1.55,1.55,0,0,0-1.34-.54A1.94,1.94,0,0,0,596,224a1.57,1.57,0,0,0-.54,1l-2.28-.36a2.85,2.85,0,0,1,1.29-1.93,5.46,5.46,0,0,1,2.78-.58,3.53,3.53,0,0,1,4.06,4.08Zm-4.71-1.45a2.14,2.14,0,0,0,1.73-.77,3,3,0,0,0,.63-2v-1l-1.11.05a4.15,4.15,0,0,0-2.17.53,1.65,1.65,0,0,0-.66,1.45C595,230.77,595.5,231.33,596.56,231.33Z"/><path class="cls-11" d="M603.4,223.68v-1.93q1,.12,1.89.18H606v-3.52c0-.84-.09-1.65-.18-2.42l2.19.27c.29,0,.45.11.48.28a1,1,0,0,1-.33.54c-.21.13-.3.53-.27,1.22v3.63h.22a16.2,16.2,0,0,0,1.68-.18v1.93a14.28,14.28,0,0,0-1.65-.17h-.25v9.05c0,.94.08,1.77.16,2.48h-2.23c.09-.88.15-1.71.18-2.48v-9.05h-.74C605,223.51,604.41,223.57,603.4,223.68Zm11.91,8.75-1.45,1.39a21.24,21.24,0,0,0-2.67-2.69l.8-.8h-1.43a17.87,17.87,0,0,0-2,.18v-1.94a19.86,19.86,0,0,0,2,.19h7.29a7.21,7.21,0,0,0-.19-1.32l1.45.16a4.38,4.38,0,0,1,0-.52,3.44,3.44,0,0,0,0-.4h-2.64a8.81,8.81,0,0,0,.14,1.26h-2.16c0-.38.07-.8.1-1.26h-2.47a10.49,10.49,0,0,0,.16,1.62h-2.18a18.51,18.51,0,0,0,.16-1.94v-4a19.11,19.11,0,0,0-.16-2q1.15.14,2.1.18h2.43v-.92h-3.27a19.09,19.09,0,0,0-2.06.18v-1.91c.75.08,1.43.15,2.06.19h3.27v-.15c0-.56-.08-1.27-.16-2.14l2.08.28c.22,0,.34.08.37.15a.5.5,0,0,1,0,.16.55.55,0,0,1-.18.33c-.21.15-.3.49-.27,1v.34h2.24c-.33-.21-.8-.49-1.4-.82a1,1,0,0,1-.21-.11l1.22-1.46a25.59,25.59,0,0,1,2.22,1.38l-.76,1h.38c.47,0,1.12-.08,2-.19v1.91a13.84,13.84,0,0,0-2-.18h-3.69v.92h2.71c.58,0,1.26-.09,2-.18-.09.72-.14,1.37-.17,1.94v3.78a13.91,13.91,0,0,0,.17,2h-1.15a.64.64,0,0,1-.1.13.56.56,0,0,0-.28.55v0h1.16a18.69,18.69,0,0,0,2-.19v1.94c-.8-.09-1.46-.15-2-.18h-1.16v2.08c0,1.14-.16,1.82-.59,2.06s-1.44.52-3.3.67a12,12,0,0,0-.88-2.26c1.29.16,2,.25,2.25.25.46,0,.67-.19.63-.61v-2.19h-4.72C613.75,230.89,614.48,231.59,615.31,232.43ZM612.14,222v.92h2.51V222Zm0,2.33v.93h2.51v-.93Zm7.08-2.33h-2.69v.92h2.69Zm0,2.33h-2.69v.93h2.69Z"/><path class="cls-11" d="M644.1,227.5a4.93,4.93,0,0,0-1.39,2.06c-1.23-.28-2.17-.52-2.83-.72,0,.45-.06.87-.06,1.27v2.78a17.93,17.93,0,0,0,.14,2h-2.23c0-.08,0-.2.08-.35a3.53,3.53,0,0,0,.09-.65h-7.24c0,.18.06.51.14,1a1.76,1.76,0,0,1,0,.25H628.6c.12-1.09.18-1.78.17-2v-3c0-.13,0-.36,0-.71a1.28,1.28,0,0,1,0-.18q-1.25.42-2.88.87a5.93,5.93,0,0,0-1.4-1.87,20.79,20.79,0,0,0,8.2-2.74,18.31,18.31,0,0,1-1.95-1.63l1.3-1.18a10.72,10.72,0,0,0,2.19,1.81,13.57,13.57,0,0,0,2.12-2H631.6a34.89,34.89,0,0,1-3.8,3.6,8,8,0,0,0-1.91-1.42,13.2,13.2,0,0,0,5.57-5.1h-3.91V220a18.09,18.09,0,0,0,.17,2h-2.19a20.37,20.37,0,0,0,.18-2v-.22c0-.39-.08-1.05-.2-2,1.12.12,1.87.17,2.25.17h6a22.81,22.81,0,0,0-2.13-1.33l1.12-1.48a36.28,36.28,0,0,1,3.47,2.16l-.44.65h4.71a21.43,21.43,0,0,0,2.19-.17c-.11,1-.15,1.67-.15,1.93v.17c0,.24,0,.81.12,1.72,0,.13,0,.24,0,.31h-2.19a17.21,17.21,0,0,0,.18-2v-.36h-7c.31.11.48.27.5.47s-.18.34-.48.4a.85.85,0,0,0-.54.24l-.23.24h4.64a26.16,26.16,0,0,0,2.85-.24A22.18,22.18,0,0,1,636,225.5,22.24,22.24,0,0,0,644.1,227.5Zm-13.44,2.14v2.69h7.24v-2.69Zm3.76-3a24.23,24.23,0,0,1-2.69,1.43h5.82A22,22,0,0,1,634.42,226.64Z"/><path class="cls-11" d="M647.57,226.28h6.73v-8h-5a13.33,13.33,0,0,0-2,.19v-2c.55.09,1,.14,1.19.16a7.46,7.46,0,0,0,.85,0h11.91a9,9,0,0,0,1.68-.2v2a16.55,16.55,0,0,0-1.66-.19h-5v8h6.63a11.6,11.6,0,0,0,1.74-.16v2a12.67,12.67,0,0,0-1.72-.19h-6.65v5.39a8.23,8.23,0,0,0,.2,1.83h-2.31a9.49,9.49,0,0,0,.14-1,7.34,7.34,0,0,0,0-.88V227.9h-6.69a12.31,12.31,0,0,0-1.77.21v-2A13.36,13.36,0,0,0,647.57,226.28Zm3.93-.84a32.65,32.65,0,0,0-3.31-5.1l1.73-1.05a47.37,47.37,0,0,1,3.38,5.06Zm5.41-1a21.19,21.19,0,0,0,3.4-5.45l1.83,1.08q.4.24.39.48c0,.16-.21.27-.51.34s-.39.22-.58.54a41.23,41.23,0,0,1-2.64,4Z"/><path class="cls-11" d="M684.65,223.68l-1.53,1.53a20.27,20.27,0,0,0-1.32-1.57q-12.28.41-13.3.75l-.73-2.08A4.5,4.5,0,0,0,670.2,221a25.45,25.45,0,0,0,4.48-5.47l1.87.9c.38.18.57.34.55.48s-.22.28-.64.42a1.91,1.91,0,0,0-.84.59c-1,1.14-2.59,2.65-4.62,4.51l3.07-.1c2.7-.07,4.8-.14,6.28-.21a41.34,41.34,0,0,0-3.52-3l1.38-1.32A75,75,0,0,1,684.65,223.68Zm-4.16,9.89H671.8a10.54,10.54,0,0,0,.16,1.55h-2.24a17.19,17.19,0,0,0,.17-2.31v-4.53a19.27,19.27,0,0,0-.17-2.44,15.35,15.35,0,0,0,2.44.2h8a18.62,18.62,0,0,0,2.48-.2,18.31,18.31,0,0,0-.17,2.44v4.24a15.58,15.58,0,0,0,.17,2.29h-2.27A5.39,5.39,0,0,0,680.49,233.57Zm0-1.56V227.6H671.8V232Z"/><path class="cls-11" d="M693.6,228.72v3.15c-.18,1.48-1.2,2.53-3.05,3.13v-1.49a2,2,0,0,0,1-1.41h-1.24v-3.38Z"/><path class="cls-11" d="M711.13,235.17a6,6,0,0,0-1.72-1.75l0,0a15,15,0,0,0,8.19-10l-3.8.11c-.86,0-1.86.12-3,.27l-.1-2.09c1.07.09,2,.15,2.83.16l4.37-.12a25.16,25.16,0,0,0,.19-3.18,19.25,19.25,0,0,0-.15-2.25l2.3.26c.26,0,.4.08.41.14a.49.49,0,0,1,0,.12.89.89,0,0,1-.24.45,2,2,0,0,0-.26,1c0,.15,0,.34,0,.58,0,.73-.12,1.71-.28,2.93l4.41-.16a20.66,20.66,0,0,0,2.22-.18,24.42,24.42,0,0,0-.46,2.86c-.33,3.7-.57,6.27-.74,7.72a2.87,2.87,0,0,1-1.16,2.51c-.63.44-2,.69-4,.75a5.46,5.46,0,0,0-.68-2.48,21.65,21.65,0,0,0,2.52.3,1.28,1.28,0,0,0,1-.26,1.58,1.58,0,0,0,.39-1q.47-3.39.82-8.57l-4.54.14Q718.18,230.27,711.13,235.17Zm3.34-18.49A19.32,19.32,0,0,1,716.7,220l-1.78,1.1a13.72,13.72,0,0,0-1.87-3l-.24-.32Zm6.44,13.81a26,26,0,0,0-2.62-3l1.43-1.34.44.43a32,32,0,0,1,2.35,2.57Z"/><path class="cls-11" d="M733,232.78h-2.5V218.33H733Z"/><path class="cls-11" d="M746.13,218.33v2h-4.32v12.44h-2.48V220.34h-4.25v-2Z"/><path class="cls-11" d="M750.3,222h-.94a12.75,12.75,0,0,0-2,.17v-2c.46.08.84.13,1.13.16s.55,0,.87,0h1.09v-2.15c0-.68-.07-1.52-.17-2.52l2.12.28c.33,0,.51.13.55.28s-.09.33-.36.54a.56.56,0,0,0-.19.32,5.12,5.12,0,0,0,0,.72v2.53h.77a14.68,14.68,0,0,0,2-.2v2c-.48-.07-.86-.11-1.16-.13a7.69,7.69,0,0,0-.83,0h-.82v.4c.8.83,1.7,1.81,2.69,3l.36.41a5.27,5.27,0,0,0-1.68,1.36,13.78,13.78,0,0,0-1.37-2v7.74q4.39-2.82,4.26-13.43v-.59h-.4a16.61,16.61,0,0,0-2,.17v-2l1.23.14a7,7,0,0,0,.78,0h6.11a21.61,21.61,0,0,0,2.28-.2q-1.46,3.94-2.21,6.15h1.13c.51,0,1.24-.06,2.18-.16a26.93,26.93,0,0,1-3.1,7.22,14.28,14.28,0,0,0,4.55,3,4.84,4.84,0,0,0-2.13,1.71,39.38,39.38,0,0,1-3.62-3.19,42.19,42.19,0,0,1-4.75,3.46,5,5,0,0,0-1.87-1.89,10.87,10.87,0,0,0,5.34-3.07,22.8,22.8,0,0,1-2-3.71,15.06,15.06,0,0,1-4.05,7.62,3.15,3.15,0,0,0-1.67-1,16.57,16.57,0,0,0,.15,2H750.3c.11-1,.15-1.72.15-2.11v-6.19a30.7,30.7,0,0,1-1.69,3.14,5,5,0,0,0-2.16-1.12A14.41,14.41,0,0,0,750.3,222Zm11.55-3.15h-3.31c0,.8,0,1.87-.09,3.2a18.85,18.85,0,0,0,2.88,6.67,17,17,0,0,0,1.76-3.9h-1.45a20.17,20.17,0,0,0-2.14.16A49.25,49.25,0,0,0,761.85,218.87Z"/><path class="cls-11" d="M787.81,227.5a4.93,4.93,0,0,0-1.39,2.06c-1.23-.28-2.17-.52-2.83-.72,0,.45-.07.87-.07,1.27v2.78a18.43,18.43,0,0,0,.15,2h-2.23a3,3,0,0,0,.07-.35,3.91,3.91,0,0,0,.1-.65h-7.24c0,.18.06.51.14,1a1.76,1.76,0,0,1,0,.25h-2.24c.12-1.09.18-1.78.17-2v-3c0-.13,0-.36,0-.71a1.28,1.28,0,0,1,0-.18q-1.25.42-2.88.87a5.81,5.81,0,0,0-1.41-1.87,20.79,20.79,0,0,0,8.21-2.74,18.31,18.31,0,0,1-2-1.63l1.3-1.18a10.72,10.72,0,0,0,2.19,1.81,13.57,13.57,0,0,0,2.12-2h-4.71a34.89,34.89,0,0,1-3.8,3.6,8,8,0,0,0-1.91-1.42,13.26,13.26,0,0,0,5.57-5.1h-3.91V220a20.36,20.36,0,0,0,.16,2h-2.18a20.37,20.37,0,0,0,.18-2v-.22c0-.39-.08-1.05-.2-2,1.12.12,1.87.17,2.25.17h6a21.43,21.43,0,0,0-2.12-1.33l1.12-1.48a36.28,36.28,0,0,1,3.47,2.16l-.45.65h4.72a21.43,21.43,0,0,0,2.19-.17,19,19,0,0,0-.15,1.93v.17c0,.24,0,.81.11,1.72,0,.13,0,.24,0,.31h-2.19a17.21,17.21,0,0,0,.18-2v-.36h-7c.31.11.47.27.49.47s-.17.34-.47.4a.85.85,0,0,0-.54.24l-.24.24h4.65a26.16,26.16,0,0,0,2.85-.24,22.43,22.43,0,0,1-4.39,4.83A22.24,22.24,0,0,0,787.81,227.5Zm-13.44,2.14v2.69h7.24v-2.69Zm3.76-3a23.49,23.49,0,0,1-2.7,1.43h5.83A22,22,0,0,1,778.13,226.64Z"/><path class="cls-11" d="M790.34,230.73V228.8c.86.09,1.59.15,2.19.17h8.34c.38,0,1.14-.06,2.27-.15v1.89c-.82-.09-1.58-.14-2.27-.16h-8.34Q791.84,230.57,790.34,230.73Zm17-14c-.11,1.05-.17,1.68-.17,1.89v.4c0,.49.08,1.16.17,2h-2.23c.1-.81.15-1.45.18-1.95v-.59H792.56v.63c0,.5.07,1.17.16,2h-2.26c.09-.88.15-1.53.16-1.94v-.45c0-.52-.08-1.18-.16-2,.76.08,1.52.14,2.26.17h12.35C805.51,216.91,806.28,216.85,807.38,216.75Zm-13.23,2.46,2,.25c.37,0,.58.1.61.19a.54.54,0,0,1,0,.18.9.9,0,0,1-.31.54.84.84,0,0,0-.36.66,3.31,3.31,0,0,1,0,.4h7c.42,0,1.12-.06,2.09-.16v1.86l-.78-.07-1.25-.09h-7.09l-.22,2.24h8.51a14.42,14.42,0,0,0,2-.21c-.12,1-.2,1.71-.22,2.18-.12,2.12-.22,3.64-.3,4.57.1,1.57-1.43,2.48-4.61,2.72a4.93,4.93,0,0,0-.83-2.28,21.38,21.38,0,0,0,2.25.2,1.09,1.09,0,0,0,.89-.27A2,2,0,0,0,804,231c.07-.56.17-2,.28-4.25H796c-.7,0-1.46.06-2.3.14a18.83,18.83,0,0,0,.29-2l.31-3.89C794.26,220.72,794.23,220.12,794.15,219.21Z"/><path class="cls-11" d="M810.3,224.12a19.39,19.39,0,0,0,4.83-8.7l2.12.93c.29.12.43.27.44.44s-.17.29-.46.42a1.44,1.44,0,0,0-.66.74l-1.08,2.26V232a29.59,29.59,0,0,0,.16,3h-2.23c.09-.87.15-1.87.16-3v-8.5c-.42.64-.87,1.27-1.32,1.87A11.11,11.11,0,0,0,810.3,224.12Zm5.5.19q3.47-2.76,4.85-8.91l2.31.76c.28.1.42.23.43.38s-.14.3-.41.44a1.15,1.15,0,0,0-.62.69c-.26.68-.62,1.48-1.06,2.4h5.4c1.13,0,2.08-.08,2.85-.17v2a26.3,26.3,0,0,0-2.85-.18h-3.76v2.95h2.83a22.91,22.91,0,0,0,2.61-.16v2a15.8,15.8,0,0,0-2.61-.22h-2.83v2.71h3.69c.89,0,1.76-.07,2.61-.17v2a17.9,17.9,0,0,0-2.61-.2h-3.69V232c0,1.19.06,2.22.14,3.09h-2.3a26.39,26.39,0,0,0,.16-3.09v-10.3h-.44a18.6,18.6,0,0,1-2.75,3.81A9.16,9.16,0,0,0,815.8,224.31Z"/><path class="cls-11" d="M849,231.77c0,.89-.16,1.44-.57,1.67a7.77,7.77,0,0,1-3,.72,6.43,6.43,0,0,0-.86-2.23c1,.11,1.68.17,2,.17s.39,0,.46-.15a1.09,1.09,0,0,0,.09-.58v-7.63h-2.79V231a13.54,13.54,0,0,0,.16,1.91h-2.18c.06-.41.1-.77.13-1.06s0-.57,0-.87v-7.25h-2.57v7.57A10.33,10.33,0,0,0,840,233h-2.18c.07-.41.11-.74.13-1s0-.46,0-.72v-7.57h-2.53v8.67a10.34,10.34,0,0,0,.16,1.71h-2.22c.06-.39.11-.71.13-1s0-.48,0-.73v-8.58a13.43,13.43,0,0,0-.18-1.92,13.78,13.78,0,0,0,2,.2h2.06a37.09,37.09,0,0,0,1.51-3.47H833.6a16.51,16.51,0,0,0-1.82.19v-2L833,217l.68,0h14.84a9.46,9.46,0,0,0,1.7-.2v2a12.84,12.84,0,0,0-1.7-.19h-7.09c-.37.8-1,2-1.75,3.47h7.58a14.41,14.41,0,0,0,1.92-.18c-.08.52-.12.89-.14,1.12s0,.48,0,.74Z"/><path class="cls-11" d="M852.82,225.88a13.58,13.58,0,0,0,3.51-8.1l2.12.54c.27.07.41.19.44.34s-.1.33-.34.51a1.13,1.13,0,0,0-.42.62c-.13.43-.24.8-.35,1.12h3.4v-2.23c0-.93-.07-1.83-.17-2.68l2.33.32c.23.05.36.14.38.29s-.1.33-.32.53-.25.54-.24,1.23v2.54h3.75a22.58,22.58,0,0,0,2.6-.2v2a22.56,22.56,0,0,0-2.6-.18h-3.75v3.83H866c.8,0,1.64-.07,2.52-.16v2A22.6,22.6,0,0,0,866,228h-2.81v4.35h5.31q1.47,0,2.73-.18v1.94c-.91-.09-1.82-.15-2.73-.16H855.7c-.84,0-1.75.07-2.73.16v-1.94q1.34.15,2.73.18h5.48V228h-3.11a16.91,16.91,0,0,0-2.31.19v-2c1.08.11,1.85.16,2.31.16h3.11v-3.83h-4a33.31,33.31,0,0,1-2.05,4A19.15,19.15,0,0,0,852.82,225.88Z"/></g></g></g></svg>