<svg xmlns="http://www.w3.org/2000/svg" viewBox="0 0 360 360"><defs><style>.cls-1{fill:#a2a2a2;}</style></defs><title>资源 422</title><g id="图层_2" data-name="图层 2"><g id="图层_1-2" data-name="图层 1"><path class="cls-1" d="M180,0A180,180,0,1,0,360,180,180,180,0,0,0,180,0Zm0,350A170,170,0,1,1,350,180,170,170,0,0,1,180,350Z"/><path class="cls-1" d="M180,20A159.46,159.46,0,0,0,68,65.77a60.18,60.18,0,0,1,24,4c8.72,3.44,15.44,9.18,19.26,17.64q2.2-1.29,4.36-2.6a111.85,111.85,0,0,1,41.81-17.47l.87-.17c.78-.15,1.55-.29,2.33-.42l2.51-.39.8-.13.5-.06,1.68-.21,1.55-.17,1.7-.18c1-.09,2-.16,3-.23l1.14-.06c.81,0,1.61-.08,2.41-.11l1,0c1.05,0,2.1,0,3.14,0h.27c1,0,2.07,0,3.1,0l2.15.09h.29l2.09.1c46.61,2.94,87,34.78,101.54,79A112,112,0,0,1,294.93,183c.12,35.94.05,71.88.05,107.82v.46A160,160,0,0,0,180,20Z"/><path class="cls-1" d="M197.42,246.41a68.8,68.8,0,1,0-17,2.18A68.89,68.89,0,0,0,197.42,246.41Z"/><path class="cls-1" d="M268,290.21c-8.72-3.44-15.44-9.18-19.26-17.64q-2.2,1.29-4.36,2.6a111.85,111.85,0,0,1-41.81,17.47l-.87.17c-.78.15-1.55.29-2.33.42l-2.51.39-.8.13-.5.06-1.68.21-1.55.17-1.7.18c-1,.09-2,.16-3,.23l-1.15.06c-.8,0-1.6.08-2.4.11l-1,0c-1.05,0-2.09.05-3.13.05h-.28c-1,0-2.07,0-3.09-.05-.72,0-1.45-.05-2.17-.09h-.28l-2.09-.1c-46.61-2.94-87-34.78-101.54-79A112,112,0,0,1,65.07,177c-.12-35.94,0-71.88,0-107.82v-.46A160,160,0,0,0,292,294.23,60.18,60.18,0,0,1,268,290.21Z"/></g></g></svg>